<svg xmlns="http://www.w3.org/2000/svg" viewBox="0 0 283.15 318.57">
    <defs>
        <style>.cls-1{fill:#555;}.cls-2{fill:#5e9ee6;}.cls-3{fill:#ff7464;}.cls-4{fill:#44c25a;}.cls-5{fill:#ff9f31;}</style>
    </defs>
    <g id="text2">
        <path id="x" class="cls-1" d="M242.94,307.2l-21.8,10.85a3.93,3.93,0,0,1-5.22-1.77,4,4,0,0,1,1.7-5.38l19.72-9.81m23.37-2.72,20.17-10.05a4,4,0,0,0,1.87-5.32,3.92,3.92,0,0,0-5.28-1.89c-.06.06-.06.06-.11.06L255.1,292.26m24,18.3H270.6c-5.45.29-11.92-5.95-18.57-13.55-6.7-7.26-13.51-15.9-24-16.18H219.5a4,4,0,0,0,0,8H228c5.11-.28,11.47,5.95,18.12,13.55,6.7,7.26,13.74,15.9,24.47,16.18h8.52a4,4,0,0,0,0-8Z"/>
        <path id="u" class="cls-1" d="M142.9,284.73v10.89c-.09,7.91,3.38,14.28,8.79,17.92s12.16,5,19.31,5h24.66a10.89,10.89,0,0,0,10.9-10.89V284.73a4,4,0,1,0-8,0v22.94a2.88,2.88,0,0,1-2.87,2.87H171c-6.13,0-11.39-1.26-14.74-3.6s-5.25-5.49-5.33-11.32V284.73a4,4,0,1,0-8,0Z"/>
        <path id="l" class="cls-1" d="M133.2,310.54h-47a2.89,2.89,0,0,1-2.87-2.87V284.73a4,4,0,1,0-8,0v22.94a10.9,10.9,0,0,0,10.9,10.89h47a4,4,0,1,0,0-8Z"/>
        <path id="e" class="cls-1" d="M18.35,303.65a4,4,0,0,1,0-8H59.67a4,4,0,1,1,0,8H18.35m45.31,6.89h-47A9,9,0,0,1,10.7,308,7.75,7.75,0,0,1,8,302.51v-5.17a8.68,8.68,0,0,1,2.76-5.84,8.68,8.68,0,0,1,5.84-2.76h47a4,4,0,1,0,0-8h-47A17.41,17.41,0,0,0,0,297.34v5.17c.26,9,8,15.86,16.63,16.06h47a4,4,0,1,0,0-8Z"/>
        <path id="blue" class="cls-2" d="M64.85,52a15.23,15.23,0,0,0-10.66-4c-4.65,0-9.06,1.53-11.46,4l-6.22,6.22a14.06,14.06,0,0,0-3.68,10A16.47,16.47,0,0,0,37.2,79.69l76.72,76.73-8.29,8.29L28.91,88A28,28,0,0,1,21.1,68.23,25.67,25.67,0,0,1,28.21,50l6.22-6.23c5.42-5.34,12.77-7.41,19.76-7.43a26.87,26.87,0,0,1,19,7.43l32.49,32.49-8.29,8.3L64.85,52Zm58.75,94.7-74-74a5.87,5.87,0,1,1,8.3-8.3l65.66,65.67,9.68-9.68,8.29,8.3-18,18Z"/>
        <path id="red" class="cls-3" d="M218.3,52,185.81,84.53l-8.29-8.3L210,43.74c2.45-2.39,4-6.64,4-11.05s-1.56-8.67-4-11.06l-6.22-6.22a14,14,0,0,0-10-3.68,16.43,16.43,0,0,0-11.46,4.37L105.63,92.82l-8.29-8.29L174.06,7.8A28.09,28.09,0,0,1,193.82,0a25.65,25.65,0,0,1,18.26,7.11l6.22,6.22c5.19,5.24,7.42,12.39,7.45,19.36S223.49,46.8,218.3,52ZM197.56,36.83,131.9,102.5l9.67,9.68-8.29,8.29-18-18,74-74a5.86,5.86,0,1,1,8.29,8.29Z"/>
        <path id="green" class="cls-4" d="M254.94,191l-6.22,6.22c-5.25,5.18-12.39,7.42-19.36,7.44s-14.11-2.26-19.35-7.44l-32.49-32.49,8.29-8.29L218.3,188.9c2.39,2.45,6.64,4,11.06,4s8.67-1.56,11.06-4l6.22-6.22a14,14,0,0,0,3.68-10A16.43,16.43,0,0,0,246,161.26L169.22,84.53l8.3-8.3L254.24,153a28,28,0,0,1,7.81,19.76A25.73,25.73,0,0,1,254.94,191Zm-21.43-14.52a5.87,5.87,0,0,1-8.3,0l-65.66-65.67-9.68,9.68-8.3-8.29,18-18,74,74a5.86,5.86,0,0,1,0,8.29Z"/>
        <path id="oringe" class="cls-5" d="M79.36,225.54a14,14,0,0,0,10,3.67,16.41,16.41,0,0,0,11.46-4.36l76.73-76.73,8.29,8.3-76.72,76.72A28.1,28.1,0,0,1,89.33,241a25.7,25.7,0,0,1-18.26-7.12l-6.22-6.22c-5.19-5.24-7.43-12.38-7.45-19.35s2.26-14.11,7.45-19.36l32.49-32.48,8.29,8.29L73.14,197.2c-2.45,2.39-4,6.64-4,11.06s1.56,8.66,4,11.06l6.22,6.22Zm14.52-13.13a5.87,5.87,0,0,1-8.29-8.3l65.66-65.67-9.68-9.67,8.3-8.3,18,18-74,74Z"/>
    </g>
</svg>