<svg xmlns="http://www.w3.org/2000/svg" viewBox="0 0 403.74 141.73">
    <defs>
        <style>.cls-1{fill:#555;}.cls-2{fill:#5e9ee6;}.cls-3{fill:#ff7464;}.cls-4{fill:#44c25a;}.cls-5{fill:#ff9f31;}</style>
    </defs>
    <g id="text2">
        <path id="x" class="cls-1" d="M368.31,78.12l-19.2,9.56a3.46,3.46,0,0,1-4.6-1.56,3.54,3.54,0,0,1,1.5-4.74l17.37-8.65M384,70.34l17.77-8.86a3.5,3.5,0,0,0,1.65-4.68,3.45,3.45,0,0,0-4.65-1.66c-.05,0-.05,0-.1,0L379,65m21.16,16.12h-7.51c-4.8.25-10.5-5.24-16.35-11.94-5.91-6.4-11.91-14-21.16-14.26h-7.51a3.53,3.53,0,0,0,0,7.06h7.51c4.5-.26,10.1,5.23,15.95,11.93,5.91,6.4,12.11,14,21.56,14.26h7.51a3.53,3.53,0,0,0,0-7Z"/>
        <path id="u" class="cls-1" d="M280.18,58.32v9.6c-.07,7,3,12.57,7.75,15.78s10.71,4.42,17,4.43h21.72a9.6,9.6,0,0,0,9.6-9.6V58.32a3.54,3.54,0,1,0-7.07,0V78.53a2.54,2.54,0,0,1-2.53,2.53H304.94c-5.41,0-10-1.11-13-3.18s-4.62-4.83-4.7-10v-9.6a3.54,3.54,0,1,0-7.07,0Z"/>
        <path id="l" class="cls-1" d="M271.64,81.06H230.2a2.54,2.54,0,0,1-2.52-2.53V58.32a3.54,3.54,0,0,0-7.08,0V78.53a9.61,9.61,0,0,0,9.6,9.6h41.44a3.54,3.54,0,0,0,0-7.07Z"/>
        <path id="e" class="cls-1" d="M170.46,75a3.54,3.54,0,1,1,0-7.07h36.4a3.54,3.54,0,1,1,0,7.07h-36.4m39.92,6.07H168.94a8,8,0,0,1-5.23-2.26A6.89,6.89,0,0,1,161.36,74V69.44a8.43,8.43,0,0,1,7.58-7.58h41.44a3.54,3.54,0,0,0,0-7.08H168.94a15.34,15.34,0,0,0-14.65,14.66V74c.23,8,7,14,14.65,14.15h41.44a3.54,3.54,0,0,0,0-7.07Z"/>
        <path id="blue" class="cls-2" d="M25.73,30.61a8.93,8.93,0,0,0-6.26-2.35,9.63,9.63,0,0,0-6.75,2.35L9.06,34.27A8.3,8.3,0,0,0,6.9,40.13a9.69,9.69,0,0,0,2.57,6.75L54.6,92l-4.88,4.88L4.59,51.76A16.5,16.5,0,0,1,0,40.13,15.1,15.1,0,0,1,4.18,29.39l3.66-3.66a16.4,16.4,0,0,1,11.63-4.37,15.8,15.8,0,0,1,11.14,4.37L49.72,44.84l-4.88,4.88L25.73,30.61ZM60.29,86.32,16.79,42.81a3.45,3.45,0,0,1,4.88-4.88L60.29,76.56,66,70.87l4.88,4.88L60.29,86.32Z"/>
        <path id="red" class="cls-3" d="M116,30.61,96.89,49.72,92,44.84l19.11-19.11a9.29,9.29,0,0,0,2.36-6.5,9.33,9.33,0,0,0-2.36-6.51l-3.66-3.66A8.28,8.28,0,0,0,101.6,6.9a9.67,9.67,0,0,0-6.74,2.57L49.72,54.6l-4.88-4.88L90,4.59A16.48,16.48,0,0,1,101.6,0a15.1,15.1,0,0,1,10.74,4.18L116,7.84a16.11,16.11,0,0,1,4.38,11.39A16.07,16.07,0,0,1,116,30.61Zm-12.2-8.94L65.17,60.29l5.7,5.7L66,70.87,55.42,60.29l43.5-43.5a3.45,3.45,0,0,1,4.88,4.88Z"/>
        <path id="green" class="cls-4" d="M137.55,112.34,133.89,116a17,17,0,0,1-22.77,0L92,96.89,96.89,92,116,111.12a10.15,10.15,0,0,0,13,0l3.66-3.66a8.19,8.19,0,0,0,2.16-5.86,9.62,9.62,0,0,0-2.57-6.74L87.13,49.72,92,44.84,137.14,90a16.48,16.48,0,0,1,4.59,11.62,15.1,15.1,0,0,1-4.18,10.74Zm-12.61-8.54a3.43,3.43,0,0,1-4.87,0L81.44,65.17l-5.69,5.7L70.87,66,81.44,55.42l43.5,43.5a3.45,3.45,0,0,1,0,4.88Z"/>
        <path id="oringe" class="cls-5" d="M34.27,132.67a8.21,8.21,0,0,0,5.86,2.16,9.65,9.65,0,0,0,6.75-2.57L92,87.13,96.89,92,51.76,137.14a16.5,16.5,0,0,1-11.63,4.59,15.1,15.1,0,0,1-10.74-4.18l-3.66-3.66a17,17,0,0,1,0-22.77L44.84,92l4.88,4.88L30.61,116a10.15,10.15,0,0,0,0,13l3.66,3.66Zm8.54-7.73a3.45,3.45,0,0,1-4.88-4.87L76.56,81.44l-5.69-5.69,4.88-4.88L86.32,81.44l-43.51,43.5Z"/>
    </g>
</svg>