<svg xmlns="http://www.w3.org/2000/svg" viewBox="0 0 283.15 37.85">
    <defs>
        <style>.cls-1{fill:#555;}</style>
    </defs>
    <g id="text">
        <path id="x" class="cls-1" d="M242.94,26.49l-21.8,10.85a3.93,3.93,0,0,1-5.22-1.77,4,4,0,0,1,1.7-5.38l19.72-9.82m23.37-2.71,20.17-10a4,4,0,0,0,1.87-5.32A3.92,3.92,0,0,0,277.47.4c-.06.06-.06.06-.11.06L255.1,11.55m24,18.3H270.6c-5.45.28-11.92-6-18.57-13.55C245.33,9,238.52.4,228,.12H219.5a4,4,0,0,0,0,8H228c5.11-.29,11.47,6,18.12,13.55,6.7,7.26,13.74,15.9,24.47,16.18h8.52a4,4,0,0,0,0-8Z"/>
        <path id="u" class="cls-1" d="M142.9,4V14.91c-.09,7.91,3.38,14.28,8.79,17.92s12.16,5,19.31,5h24.66A10.89,10.89,0,0,0,206.56,27V4a4,4,0,1,0-8,0V27a2.87,2.87,0,0,1-2.87,2.86H171c-6.13,0-11.39-1.25-14.74-3.6s-5.25-5.48-5.33-11.31V4a4,4,0,1,0-8,0Z"/>
        <path id="l" class="cls-1" d="M133.2,29.82h-47A2.87,2.87,0,0,1,83.3,27V4a4,4,0,1,0-8,0V27a10.9,10.9,0,0,0,10.9,10.89h47a4,4,0,0,0,0-8Z"/>
        <path id="e" class="cls-1" d="M18.35,22.94a4,4,0,0,1,0-8H59.67a4,4,0,1,1,0,8H18.35m45.31,6.88h-47a9,9,0,0,1-5.93-2.55A7.77,7.77,0,0,1,8,21.79V16.63a8.68,8.68,0,0,1,2.76-5.84A8.68,8.68,0,0,1,16.63,8h47a4,4,0,1,0,0-8h-47A17.41,17.41,0,0,0,0,16.63v5.16c.26,9,8,15.87,16.63,16.06h47a4,4,0,1,0,0-8Z"/>
    </g>
</svg>