<svg id="SvgjsSvg1000" xmlns="http://www.w3.org/2000/svg" version="1.1" xmlns:xlink="http://www.w3.org/1999/xlink" xmlns:svgjs="http://svgjs.com/svgjs" width="373" height="356"><defs id="SvgjsDefs1001"><marker id="SvgjsMarker1043" markerWidth="14" markerHeight="10" refX="10" refY="5" viewBox="0 0 14 10" orient="auto" markerUnits="userSpaceOnUse" stroke-dasharray="0,0"><path id="SvgjsPath1044" d="M0 0L14 5L0 10L0 0 " fill="#212121" stroke="#212121" stroke-width="1"></path></marker><marker id="SvgjsMarker1047" markerWidth="14" markerHeight="10" refX="4" refY="5" viewBox="0 0 14 10" orient="auto" markerUnits="userSpaceOnUse" stroke-dasharray="0,0"><path id="SvgjsPath1048" d="M14 0L0 5L14 10L14 0 " fill="#212121" stroke="#212121" stroke-width="1"></path></marker></defs><g id="SvgjsG1007" transform="translate(25,25)"><path id="SvgjsPath1008" d="M0 0L153 0L153 141L0 141Z " stroke="rgba(33,33,33,1)" stroke-width="2" fill-opacity="1" fill="#ffffff"></path><g id="SvgjsG1009"><text id="SvgjsText1010" font-family="微软雅黑" text-anchor="middle" font-size="14px" width="133px" fill="#212121" font-weight="400" align="top" lineHeight="300%" font-style="" opacity="1" y="-15" transform="rotate(0)"><tspan id="SvgjsTspan1011" dy="42" x="76.5"><tspan id="SvgjsTspan1012" style="text-decoration:;">UI Component</tspan></tspan></text></g></g><g id="SvgjsG1013" transform="translate(142.25,232)"><path id="SvgjsPath1014" d="M0 49.25C0 -16.416666666666668 98.5 -16.416666666666668 98.5 49.25C98.5 114.91666666666667 0 114.91666666666667 0 49.25Z " stroke="rgba(33,33,33,1)" stroke-width="2" fill-opacity="1" fill="#f5f5f5"></path><g id="SvgjsG1015"><text id="SvgjsText1016" font-family="微软雅黑" text-anchor="middle" font-size="14px" width="79px" fill="#212121" font-weight="700" align="middle" lineHeight="125%" font-style="" opacity="1" y="38" transform="rotate(0)"><tspan id="SvgjsTspan1017" dy="17" x="49.5"><tspan id="SvgjsTspan1018" style="text-decoration:;">App State</tspan></tspan></text></g></g><g id="SvgjsG1019" transform="translate(52,109)"><path id="SvgjsPath1020" d="M13.333333333333334 0L85.66666666666667 0C103.44444444444444 0 103.44444444444444 40 85.66666666666667 40L13.333333333333334 40C-4.444444444444445 40 -4.444444444444445 0 13.333333333333334 0Z " stroke="rgba(33,33,33,1)" stroke-width="2" fill-opacity="1" fill="#f5f5f5"></path><g id="SvgjsG1021"><text id="SvgjsText1022" font-family="微软雅黑" text-anchor="middle" font-size="14px" width="79px" fill="#212121" font-weight="700" align="middle" lineHeight="125%" font-style="" opacity="1" y="0.25" transform="rotate(0)"><tspan id="SvgjsTspan1023" dy="17" x="49.5"><tspan id="SvgjsTspan1024" style="text-decoration:;">Component</tspan></tspan><tspan id="SvgjsTspan1025" dy="17" x="49.5"><tspan id="SvgjsTspan1026" style="text-decoration:;">State</tspan></tspan></text></g></g><g id="SvgjsG1027" transform="translate(195,25)"><path id="SvgjsPath1028" d="M0 0L153 0L153 141L0 141Z " stroke="rgba(33,33,33,1)" stroke-width="2" fill-opacity="1" fill="#ffffff"></path><g id="SvgjsG1029"><text id="SvgjsText1030" font-family="微软雅黑" text-anchor="middle" font-size="14px" width="133px" fill="#212121" font-weight="400" align="top" lineHeight="300%" font-style="" opacity="1" y="-15" transform="rotate(0)"><tspan id="SvgjsTspan1031" dy="42" x="76.5"><tspan id="SvgjsTspan1032" style="text-decoration:;">UI Component</tspan></tspan></text></g></g><g id="SvgjsG1033" transform="translate(222,109)"><path id="SvgjsPath1034" d="M13.333333333333334 0L85.66666666666667 0C103.44444444444444 0 103.44444444444444 40 85.66666666666667 40L13.333333333333334 40C-4.444444444444445 40 -4.444444444444445 0 13.333333333333334 0Z " stroke="rgba(33,33,33,1)" stroke-width="2" fill-opacity="1" fill="#f5f5f5"></path><g id="SvgjsG1035"><text id="SvgjsText1036" font-family="微软雅黑" text-anchor="middle" font-size="14px" width="79px" fill="#212121" font-weight="700" align="middle" lineHeight="125%" font-style="" opacity="1" y="0.25" transform="rotate(0)"><tspan id="SvgjsTspan1037" dy="17" x="49.5"><tspan id="SvgjsTspan1038" style="text-decoration:;">Component</tspan></tspan><tspan id="SvgjsTspan1039" dy="17" x="49.5"><tspan id="SvgjsTspan1040" style="text-decoration:;">State</tspan></tspan></text></g></g><g id="SvgjsG1041"><path id="SvgjsPath1042" d="M191.5 231L191.5 199L101.5 199L101.5 169.60000000000002 " stroke="#212121" stroke-width="2" fill="none" marker-end="url(#SvgjsMarker1043)"></path></g><g id="SvgjsG1045"><path id="SvgjsPath1046" d="M271.5 169.60000000000002L271.5 199L191.5 199L191.5 231 " stroke="#212121" stroke-width="2" fill="none" marker-start="url(#SvgjsMarker1047)"></path></g></svg>