<svg id="SvgjsSvg1000" xmlns="http://www.w3.org/2000/svg" version="1.1" xmlns:xlink="http://www.w3.org/1999/xlink" xmlns:svgjs="http://svgjs.com/svgjs" width="710" height="731"><defs id="SvgjsDefs1001"><marker id="SvgjsMarker1037" markerWidth="14" markerHeight="10" refX="4" refY="5" viewBox="0 0 14 10" orient="auto" markerUnits="userSpaceOnUse" stroke-dasharray="0,0"><path id="SvgjsPath1038" d="M14 0L0 5L14 10L14 0 " fill="#616161" stroke="#616161" stroke-width="1"></path></marker><marker id="SvgjsMarker1041" markerWidth="14" markerHeight="10" refX="4" refY="5" viewBox="0 0 14 10" orient="auto" markerUnits="userSpaceOnUse" stroke-dasharray="0,0"><path id="SvgjsPath1042" d="M14 0L0 5L14 10L14 0 " fill="#616161" stroke="#616161" stroke-width="1"></path></marker><marker id="SvgjsMarker1063" markerWidth="14" markerHeight="10" refX="10" refY="5" viewBox="0 0 14 10" orient="auto" markerUnits="userSpaceOnUse" stroke-dasharray="0,0"><path id="SvgjsPath1064" d="M0 0L14 5L0 10L0 0 " fill="#616161" stroke="#616161" stroke-width="1"></path></marker><marker id="SvgjsMarker1073" markerWidth="14" markerHeight="10" refX="10" refY="5" viewBox="0 0 14 10" orient="auto" markerUnits="userSpaceOnUse" stroke-dasharray="0,0"><path id="SvgjsPath1074" d="M0 0L14 5L0 10L0 0 " fill="#616161" stroke="#616161" stroke-width="1"></path></marker><marker id="SvgjsMarker1095" markerWidth="14" markerHeight="10" refX="10" refY="5" viewBox="0 0 14 10" orient="auto" markerUnits="userSpaceOnUse" stroke-dasharray="0,0"><path id="SvgjsPath1096" d="M0 0L14 5L0 10L0 0 " fill="#323232" stroke="#323232" stroke-width="1"></path></marker><marker id="SvgjsMarker1099" markerWidth="14" markerHeight="10" refX="10" refY="5" viewBox="0 0 14 10" orient="auto" markerUnits="userSpaceOnUse" stroke-dasharray="0,0"><path id="SvgjsPath1100" d="M0 0L14 5L0 10L0 0 " fill="#616161" stroke="#616161" stroke-width="1"></path></marker><marker id="SvgjsMarker1123" markerWidth="14" markerHeight="10" refX="4" refY="5" viewBox="0 0 14 10" orient="auto" markerUnits="userSpaceOnUse" stroke-dasharray="0,0"><path id="SvgjsPath1124" d="M14 0L0 5L14 10L14 0 " fill="#616161" stroke="#616161" stroke-width="1"></path></marker><marker id="SvgjsMarker1125" markerWidth="14" markerHeight="10" refX="10" refY="5" viewBox="0 0 14 10" orient="auto" markerUnits="userSpaceOnUse" stroke-dasharray="0,0"><path id="SvgjsPath1126" d="M0 0L14 5L0 10L0 0 " fill="#616161" stroke="#616161" stroke-width="1"></path></marker><marker id="SvgjsMarker1129" markerWidth="14" markerHeight="10" refX="4" refY="5" viewBox="0 0 14 10" orient="auto" markerUnits="userSpaceOnUse" stroke-dasharray="0,0"><path id="SvgjsPath1130" d="M14 0L0 5L14 10L14 0 " fill="#616161" stroke="#616161" stroke-width="1"></path></marker><marker id="SvgjsMarker1131" markerWidth="14" markerHeight="10" refX="10" refY="5" viewBox="0 0 14 10" orient="auto" markerUnits="userSpaceOnUse" stroke-dasharray="0,0"><path id="SvgjsPath1132" d="M0 0L14 5L0 10L0 0 " fill="#616161" stroke="#616161" stroke-width="1"></path></marker><marker id="SvgjsMarker1183" markerWidth="14" markerHeight="10" refX="10" refY="5" viewBox="0 0 14 10" orient="auto" markerUnits="userSpaceOnUse" stroke-dasharray="0,0"><path id="SvgjsPath1184" d="M0 0L14 5L0 10L0 0 " fill="#616161" stroke="#616161" stroke-width="1"></path></marker><marker id="SvgjsMarker1187" markerWidth="14" markerHeight="10" refX="10" refY="5" viewBox="0 0 14 10" orient="auto" markerUnits="userSpaceOnUse" stroke-dasharray="0,0"><path id="SvgjsPath1188" d="M0 0L14 5L0 10L0 0 " fill="#616161" stroke="#616161" stroke-width="1"></path></marker><marker id="SvgjsMarker1203" markerWidth="14" markerHeight="10" refX="10" refY="5" viewBox="0 0 14 10" orient="auto" markerUnits="userSpaceOnUse" stroke-dasharray="0,0"><path id="SvgjsPath1204" d="M0 0L14 5L0 10L0 0 " fill="#616161" stroke="#616161" stroke-width="1"></path></marker></defs><g id="SvgjsG1007" transform="translate(313,139.00280448717967)"><path id="SvgjsPath1008" d="M0 0L254 0L254 228L0 228Z " stroke-dasharray="10,6" stroke="rgba(158,158,158,1)" stroke-width="2" fill-opacity="1" fill="#ffffff"></path><g id="SvgjsG1009"><text id="SvgjsText1010" font-family="微软雅黑" text-anchor="middle" font-size="13px" width="234px" fill="#323232" font-weight="400" align="middle" lineHeight="125%" font-style="" opacity="1" y="103.375" transform="rotate(0)"></text></g></g><g id="SvgjsG1011" transform="translate(138,357.0028044871797)"><path id="SvgjsPath1012" d="M0 0L429 0L429 349L0 349Z " stroke-dasharray="10,6" stroke="rgba(158,158,158,1)" stroke-width="2" fill-opacity="1" fill="#ffffff"></path><g id="SvgjsG1013"><text id="SvgjsText1014" font-family="微软雅黑" text-anchor="middle" font-size="13px" width="409px" fill="#323232" font-weight="400" align="middle" lineHeight="125%" font-style="" opacity="1" y="163.875" transform="rotate(0)"></text></g></g><g id="SvgjsG1015" transform="translate(315,319.0028044871797)"><path id="SvgjsPath1016" d="M0 0L250 0L250 57L0 57Z " stroke="none" fill-opacity="1" fill="#ffffff"></path><g id="SvgjsG1017"><text id="SvgjsText1018" font-family="微软雅黑" text-anchor="middle" font-size="13px" width="230px" fill="#323232" font-weight="400" align="middle" lineHeight="125%" font-style="" opacity="1" y="17.875" transform="rotate(0)"></text></g></g><g id="SvgjsG1019" transform="translate(413.5,212.00280448717967)"><path id="SvgjsPath1020" d="M9.9 0L20.1 0L20.1 467L30 467L15 482L0 467L9.9 467L9.9 0Z " stroke="rgba(97,97,97,1)" stroke-width="2" fill-opacity="1" fill="#616161"></path><g id="SvgjsG1021"><text id="SvgjsText1022" font-family="微软雅黑" text-anchor="middle" font-size="13px" width="42px" fill="#ffffff" font-weight="400" align="middle" lineHeight="125%" font-style="" opacity="1" y="206.275" transform="rotate(0)"></text></g></g><g id="SvgjsG1023" transform="translate(346,377.197248931624)"><path id="SvgjsPath1024" d="M0 34.5L82.5 0L165 34.5L82.5 69Z " stroke="rgba(97,97,97,1)" stroke-width="2" fill-opacity="1" fill="#ffffff"></path><g id="SvgjsG1025"><text id="SvgjsText1026" font-family="微软雅黑" text-anchor="middle" font-size="16px" width="145px" fill="#616161" font-weight="400" align="middle" lineHeight="125%" font-style="" opacity="1" y="20.845" transform="rotate(0)"><tspan id="SvgjsTspan1027" dy="20" x="82.5"><tspan id="SvgjsTspan1028" style="text-decoration:;">Reducer</tspan></tspan></text></g></g><g id="SvgjsG1029" transform="translate(346,473.8916933760685)"><path id="SvgjsPath1030" d="M0 34.5L82.5 0L165 34.5L82.5 69Z " stroke="rgba(97,97,97,1)" stroke-width="2" fill-opacity="1" fill="#ffffff"></path><g id="SvgjsG1031"><text id="SvgjsText1032" font-family="微软雅黑" text-anchor="middle" font-size="16px" width="145px" fill="#616161" font-weight="400" align="middle" lineHeight="125%" font-style="" opacity="1" y="20.845" transform="rotate(0)"><tspan id="SvgjsTspan1033" dy="20" x="82.5"><tspan id="SvgjsTspan1034" style="text-decoration:;">Reducer</tspan></tspan></text></g></g><g id="SvgjsG1035"><path id="SvgjsPath1036" d="M263.6 458.0028044871797L303 458.0028044871797L303 411.697248931624L345 411.697248931624 " stroke="#616161" stroke-width="2" fill="none" marker-start="url(#SvgjsMarker1037)"></path></g><g id="SvgjsG1039"><path id="SvgjsPath1040" d="M263.6 458.0028044871797L303 458.0028044871797L303 508.3916933760685L345 508.3916933760685 " stroke="#616161" stroke-width="2" fill="none" marker-start="url(#SvgjsMarker1041)"></path></g><g id="SvgjsG1043" transform="translate(140,664.5861378205129)"><path id="SvgjsPath1044" d="M0 0L58 0L58 40L0 40Z " stroke="none" fill="none"></path><g id="SvgjsG1045"><text id="SvgjsText1046" font-family="微软雅黑" text-anchor="middle" font-size="13px" width="58px" fill="#9e9e9e" font-weight="400" align="middle" lineHeight="125%" font-style="" opacity="1" y="9.375" transform="rotate(0)"><tspan id="SvgjsTspan1047" dy="16" x="29"><tspan id="SvgjsTspan1048" style="text-decoration:;">Model</tspan></tspan></text></g></g><g id="SvgjsG1049" transform="translate(376,157.00280448717967)"><path id="SvgjsPath1050" d="M0 27.5C0 -9.166666666666666 105 -9.166666666666666 105 27.5C105 64.16666666666667 0 64.16666666666667 0 27.5Z " stroke="rgba(97,97,97,1)" stroke-width="2" fill-opacity="1" fill="#ffffff"></path><g id="SvgjsG1051"><text id="SvgjsText1052" font-family="微软雅黑" text-anchor="middle" font-size="16px" width="85px" fill="#616161" font-weight="400" align="middle" lineHeight="125%" font-style="" opacity="1" y="13.5" transform="rotate(0)"><tspan id="SvgjsTspan1053" dy="20" x="52.5"><tspan id="SvgjsTspan1054" style="text-decoration:;">Dispatcher</tspan></tspan></text></g></g><g id="SvgjsG1055" transform="translate(170,393.0028044871797)"><path id="SvgjsPath1056" d="M36 0L108 0L72 130L0 130L36 0Z " stroke="rgba(97,97,97,1)" stroke-width="2" fill-opacity="1" fill="#ffffff"></path><g id="SvgjsG1057"><text id="SvgjsText1058" font-family="微软雅黑" text-anchor="middle" font-size="16px" width="76px" fill="#616161" font-weight="400" align="middle" lineHeight="125%" font-style="" opacity="1" y="51" transform="rotate(0)"><tspan id="SvgjsTspan1059" dy="20" x="54.2"><tspan id="SvgjsTspan1060" style="text-decoration:;">State</tspan></tspan></text></g></g><g id="SvgjsG1061"><path id="SvgjsPath1062" d="M224 392.0028044871797L224 302.5028044871797L224 302.5028044871797L224 215.6028044871797 " stroke="#616161" stroke-width="2" fill="none" marker-end="url(#SvgjsMarker1063)"></path></g><g id="SvgjsG1065" transform="translate(180,157.00280448717967)"><path id="SvgjsPath1066" d="M0 0L88 0L88 55L0 55Z " stroke="rgba(97,97,97,1)" stroke-width="2" fill-opacity="1" fill="#f5f5f5"></path><g id="SvgjsG1067"><text id="SvgjsText1068" font-family="微软雅黑" text-anchor="middle" font-size="16px" width="68px" fill="#616161" font-weight="400" align="middle" lineHeight="125%" font-style="" opacity="1" y="13.5" transform="rotate(0)"><tspan id="SvgjsTspan1069" dy="20" x="44"><tspan id="SvgjsTspan1070" style="text-decoration:;">View</tspan></tspan></text></g></g><g id="SvgjsG1071"><path id="SvgjsPath1072" d="M269 184.50280448717967L322 184.50280448717967L322 184.50280448717967L372.4 184.50280448717967 " stroke="#616161" stroke-width="2" fill="none" marker-end="url(#SvgjsMarker1073)"></path></g><g id="SvgjsG1075" transform="translate(412,645.5861378205129)"><path id="SvgjsPath1076" d="M0 0L120 0L120 40L0 40Z " stroke="none" fill="none"></path><g id="SvgjsG1077"><text id="SvgjsText1078" font-family="微软雅黑" text-anchor="middle" font-size="13px" width="120px" fill="#9e9e9e" font-weight="400" align="middle" lineHeight="125%" font-style="" opacity="1" y="9.375" transform="rotate(0)"><tspan id="SvgjsTspan1079" dy="16" x="60"><tspan id="SvgjsTspan1080" style="text-decoration:;">ActionBus</tspan></tspan></text></g></g><g id="SvgjsG1081" transform="translate(346,280.5028044871797)"><path id="SvgjsPath1082" d="M0 34.5L82.5 0L165 34.5L82.5 69Z " stroke="rgba(97,97,97,1)" stroke-width="2" fill-opacity="1" fill="#ffffff"></path><g id="SvgjsG1083"><text id="SvgjsText1084" font-family="微软雅黑" text-anchor="middle" font-size="16px" width="145px" fill="#616161" font-weight="400" align="middle" lineHeight="125%" font-style="" opacity="1" y="20.845" transform="rotate(0)"><tspan id="SvgjsTspan1085" dy="20" x="82.5"><tspan id="SvgjsTspan1086" style="text-decoration:;">Effect</tspan></tspan></text></g></g><g id="SvgjsG1087" transform="translate(346,570.5861378205129)"><path id="SvgjsPath1088" d="M0 34.5L82.5 0L165 34.5L82.5 69Z " stroke="rgba(97,97,97,1)" stroke-width="2" fill-opacity="1" fill="#ffffff"></path><g id="SvgjsG1089"><text id="SvgjsText1090" font-family="微软雅黑" text-anchor="middle" font-size="16px" width="145px" fill="#616161" font-weight="400" align="middle" lineHeight="125%" font-style="" opacity="1" y="20.845" transform="rotate(0)"><tspan id="SvgjsTspan1091" dy="20" x="82.5"><tspan id="SvgjsTspan1092" style="text-decoration:;">Effect</tspan></tspan></text></g></g><g id="SvgjsG1093"><path id="SvgjsPath1094" d="M512 315.0028044871797L541 315.0028044871797L541 184.50280448717967L484.6 184.50280448717967 " stroke="#323232" stroke-width="2" fill="none" marker-end="url(#SvgjsMarker1095)"></path></g><g id="SvgjsG1097"><path id="SvgjsPath1098" d="M512 605.0861378205129L541 605.0861378205129L541 184.50280448717967L484.6 184.50280448717967 " stroke="#616161" stroke-width="2" fill="none" marker-end="url(#SvgjsMarker1099)"></path></g><g id="SvgjsG1101" transform="translate(25,418.0028044871797)"><path id="SvgjsPath1102" d="M10.799999999999999 49C-9 35 3.6 24.5 8.1 21C6.300000000000001 3.5 28.8 0 37.8 7C45 -3.5 67.5 0 67.5 10.5C85.5 7 92.7 21 85.5 38.5C91.8 52.5 85.5 70 64.8 63C60.300000000000004 72.10000000000001 42.3 72.10000000000001 37.8 63C28.8 70 10.799999999999999 66.5 10.799999999999999 49Z " stroke="rgba(97,97,97,1)" stroke-width="2" fill-opacity="1" fill="#f5f5f5"></path><g id="SvgjsG1103"><text id="SvgjsText1104" font-family="微软雅黑" text-anchor="middle" font-size="16px" width="70px" fill="#616161" font-weight="400" align="middle" lineHeight="125%" font-style="" opacity="1" y="21" transform="rotate(0)"><tspan id="SvgjsTspan1105" dy="20" x="45"><tspan id="SvgjsTspan1106" style="text-decoration:;">API</tspan></tspan></text></g></g><g id="SvgjsG1107" transform="translate(590,265.5028044871797)"><path id="SvgjsPath1108" d="M0 188Q9 188 9 179L9 103Q9 94 22 94Q9 94 9 85L9 9Q9 0 0 0 " stroke="rgba(158,158,158,1)" stroke-width="2" fill="none"></path><path id="SvgjsPath1109" d="M0 0L95 0L95 188L0 188Z " stroke="none" fill="none"></path><g id="SvgjsG1110"><text id="SvgjsText1111" font-family="微软雅黑" text-anchor="start" font-size="16px" width="68px" fill="#9e9e9e" font-weight="400" align="middle" lineHeight="125%" font-style="" opacity="1" y="80" transform="rotate(0)"><tspan id="SvgjsTspan1112" dy="20" x="27"><tspan id="SvgjsTspan1113" style="text-decoration:;">ModuleA</tspan></tspan></text></g></g><g id="SvgjsG1114" transform="translate(590,462.5028044871797)"><path id="SvgjsPath1115" d="M0 188Q9 188 9 179L9 103Q9 94 22 94Q9 94 9 85L9 9Q9 0 0 0 " stroke="rgba(158,158,158,1)" stroke-width="2" fill="none"></path><path id="SvgjsPath1116" d="M0 0L95 0L95 188L0 188Z " stroke="none" fill="none"></path><g id="SvgjsG1117"><text id="SvgjsText1118" font-family="微软雅黑" text-anchor="start" font-size="16px" width="68px" fill="#9e9e9e" font-weight="400" align="middle" lineHeight="125%" font-style="" opacity="1" y="80" transform="rotate(0)"><tspan id="SvgjsTspan1119" dy="20" x="27"><tspan id="SvgjsTspan1120" style="text-decoration:;">ModuleB</tspan></tspan></text></g></g><g id="SvgjsG1121"><path id="SvgjsPath1122" d="M342.4 315.0028044871797L79 315.0028044871797L79 415.1028044871797 " stroke="#616161" stroke-width="2" fill="none" marker-start="url(#SvgjsMarker1123)" marker-end="url(#SvgjsMarker1125)"></path></g><g id="SvgjsG1127"><path id="SvgjsPath1128" d="M342.4 605.0861378205129L76.29999999999995 605.0861378205129L76.29999999999995 491.6028044871797 " stroke="#616161" stroke-width="2" fill="none" marker-start="url(#SvgjsMarker1129)" marker-end="url(#SvgjsMarker1131)"></path></g><g id="SvgjsG1133" transform="translate(385,309.5028044871797)"><path id="SvgjsPath1134" d="M0 0L120 0L120 40L0 40Z " stroke="none" fill="none"></path><g id="SvgjsG1135"><text id="SvgjsText1136" font-family="微软雅黑" text-anchor="middle" font-size="12px" width="120px" fill="#9e9e9e" font-weight="400" align="middle" lineHeight="125%" font-style="" opacity="1" y="10" transform="rotate(0)"><tspan id="SvgjsTspan1137" dy="15" x="60"><tspan id="SvgjsTspan1138" style="text-decoration:;">actionHandler</tspan></tspan></text></g></g><g id="SvgjsG1139" transform="translate(376,406.197248931624)"><path id="SvgjsPath1140" d="M0 0L120 0L120 40L0 40Z " stroke="none" fill="none"></path><g id="SvgjsG1141"><text id="SvgjsText1142" font-family="微软雅黑" text-anchor="middle" font-size="12px" width="120px" fill="#9e9e9e" font-weight="400" align="middle" lineHeight="125%" font-style="" opacity="1" y="10" transform="rotate(0)"><tspan id="SvgjsTspan1143" dy="15" x="60"><tspan id="SvgjsTspan1144" style="text-decoration:;">actionHandler</tspan></tspan></text></g></g><g id="SvgjsG1145" transform="translate(376,502.89169337606836)"><path id="SvgjsPath1146" d="M0 0L120 0L120 40L0 40Z " stroke="none" fill="none"></path><g id="SvgjsG1147"><text id="SvgjsText1148" font-family="微软雅黑" text-anchor="middle" font-size="12px" width="120px" fill="#9e9e9e" font-weight="400" align="middle" lineHeight="125%" font-style="" opacity="1" y="10" transform="rotate(0)"><tspan id="SvgjsTspan1149" dy="15" x="60"><tspan id="SvgjsTspan1150" style="text-decoration:;">actionHandler</tspan></tspan></text></g></g><g id="SvgjsG1151" transform="translate(385,603.5861378205129)"><path id="SvgjsPath1152" d="M0 0L120 0L120 40L0 40Z " stroke="none" fill="none"></path><g id="SvgjsG1153"><text id="SvgjsText1154" font-family="微软雅黑" text-anchor="middle" font-size="12px" width="120px" fill="#9e9e9e" font-weight="400" align="middle" lineHeight="125%" font-style="" opacity="1" y="10" transform="rotate(0)"><tspan id="SvgjsTspan1155" dy="15" x="60"><tspan id="SvgjsTspan1156" style="text-decoration:;">actionHandler</tspan></tspan></text></g></g><g id="SvgjsG1157" transform="translate(176,391.697248931624)"><path id="SvgjsPath1158" d="M0 0L120 0L120 40L0 40Z " stroke="none" fill="none"></path><g id="SvgjsG1159"><text id="SvgjsText1160" font-family="微软雅黑" text-anchor="middle" font-size="13px" width="120px" fill="#9e9e9e" font-weight="400" align="middle" lineHeight="125%" font-style="" opacity="1" y="9.375" transform="rotate(0)"><tspan id="SvgjsTspan1161" dy="16" x="60"><tspan id="SvgjsTspan1162" style="text-decoration:;">ModuleA</tspan></tspan></text></g></g><g id="SvgjsG1163" transform="translate(152,480.8916933760685)"><path id="SvgjsPath1164" d="M0 0L120 0L120 40L0 40Z " stroke="none" fill="none"></path><g id="SvgjsG1165"><text id="SvgjsText1166" font-family="微软雅黑" text-anchor="middle" font-size="13px" width="120px" fill="#9e9e9e" font-weight="400" align="middle" lineHeight="125%" font-style="" opacity="1" y="9.375" transform="rotate(0)"><tspan id="SvgjsTspan1167" dy="16" x="60"><tspan id="SvgjsTspan1168" style="text-decoration:;">ModuleB</tspan></tspan></text></g></g><g id="SvgjsG1169" transform="translate(429,25.002804487179674)"><path id="SvgjsPath1170" d="M0 0L106 0L106 45L0 45Z " stroke="rgba(97,97,97,1)" stroke-width="2" fill-opacity="1" fill="#f5f5f5"></path><g id="SvgjsG1171"><text id="SvgjsText1172" font-family="微软雅黑" text-anchor="middle" font-size="16px" width="86px" fill="#616161" font-weight="400" align="middle" lineHeight="125%" font-style="" opacity="1" y="8.5" transform="rotate(0)"><tspan id="SvgjsTspan1173" dy="20" x="53"><tspan id="SvgjsTspan1174" style="text-decoration:;">Router</tspan></tspan></text></g></g><g id="SvgjsG1175" transform="translate(313,25.002804487179674)"><path id="SvgjsPath1176" d="M0 0L106 0L106 45L0 45Z " stroke="rgba(97,97,97,1)" stroke-width="2" fill-opacity="1" fill="#f5f5f5"></path><g id="SvgjsG1177"><text id="SvgjsText1178" font-family="微软雅黑" text-anchor="middle" font-size="16px" width="86px" fill="#616161" font-weight="400" align="middle" lineHeight="125%" font-style="" opacity="1" y="8.5" transform="rotate(0)"><tspan id="SvgjsTspan1179" dy="20" x="53"><tspan id="SvgjsTspan1180" style="text-decoration:;">Effects</tspan></tspan></text></g></g><g id="SvgjsG1181"><path id="SvgjsPath1182" d="M366 71.00280448717967L366 113.50280448717967L428.5 113.50280448717967L428.5 153.40280448717965 " stroke="#616161" stroke-width="2" fill="none" marker-end="url(#SvgjsMarker1183)"></path></g><g id="SvgjsG1185"><path id="SvgjsPath1186" d="M482 71.00280448717967L482 113.50280448717967L428.5 113.50280448717967L428.5 153.40280448717965 " stroke="#616161" stroke-width="2" fill="none" marker-end="url(#SvgjsMarker1187)"></path></g><g id="SvgjsG1189" transform="translate(379,233.75280448717967)"><path id="SvgjsPath1190" d="M0 0L99 0L99 25L0 25Z " stroke="rgba(255,255,255,1)" stroke-width="2" fill-opacity="1" fill="#ffffff"></path><g id="SvgjsG1191"><text id="SvgjsText1192" font-family="微软雅黑" text-anchor="middle" font-size="16px" width="79px" fill="#616161" font-weight="400" align="middle" lineHeight="125%" font-style="" opacity="1" y="-1.5" transform="rotate(0)"><tspan id="SvgjsTspan1193" dy="20" x="49.5"><tspan id="SvgjsTspan1194" style="text-decoration:;">Action</tspan></tspan></text></g></g><g id="SvgjsG1195" transform="translate(167.5,70.00280448717967)"><path id="SvgjsPath1196" d="M9.24 0L103.76 0L113 22L103.76 44L9.24 44L0 22L9.24 0Z " stroke="rgba(97,97,97,1)" stroke-width="2" fill-opacity="1" fill="#f5f5f5"></path><g id="SvgjsG1197"><text id="SvgjsText1198" font-family="微软雅黑" text-anchor="middle" font-size="16px" width="93px" fill="#616161" font-weight="400" align="middle" lineHeight="125%" font-style="" opacity="1" y="8" transform="rotate(0)"><tspan id="SvgjsTspan1199" dy="20" x="56.5"><tspan id="SvgjsTspan1200" style="text-decoration:;">Component</tspan></tspan></text></g></g><g id="SvgjsG1201"><path id="SvgjsPath1202" d="M224 115.00280448717967L224 135.50280448717967L224 135.50280448717967L224 153.40280448717965 " stroke="#616161" stroke-width="2" fill="none" marker-end="url(#SvgjsMarker1203)"></path></g></svg>