<svg xmlns="http://www.w3.org/2000/svg"
    xmlns:xlink="http://www.w3.org/1999/xlink" width="511px" height="127px">
    <path fill-rule="evenodd" opacity="0.38" fill="#cbcfd9" d="M499.687,69.953 C496.927,72.623 495.547,75.428 495.547,78.371 C495.547,81.317 496.75,84.881 497.134,89.66 C498.190,93.254 498.721,96.911 498.721,100.37 C498.721,106.661 496.168,112.548 491.62,117.701 C485.956,122.852 480.43,125.796 473.329,126.533 L473.329,124.187 C478.480,122.990 482.275,121.58 484.714,118.391 C487.150,115.722 488.371,112.88 488.371,107.489 C488.371,104.729 487.909,101.279 486.991,97.139 C486.70,92.999 485.611,89.504 485.611,86.651 C485.611,81.869 487.336,77.384 490.786,73.196 C494.236,69.11 499.135,65.768 505.483,63.467 C499.135,61.169 494.236,57.926 490.786,53.738 C487.336,49.553 485.611,45.68 485.611,40.283 C485.611,37.432 486.70,33.935 486.991,29.795 C487.909,25.655 488.371,22.205 488.371,19.445 C488.371,14.939 487.150,11.351 484.714,8.681 C482.275,6.14 478.480,4.82 473.329,2.885 L473.329,0.539 C480.43,1.277 485.977,4.196 491.131,9.302 C496.282,14.408 498.859,20.228 498.859,26.759 C498.859,29.888 498.307,33.569 497.203,37.799 C496.99,42.32 495.547,45.620 495.547,48.563 C495.547,51.509 496.927,54.314 499.687,56.981 C502.447,59.651 506.218,61.307 511.3,61.949 L511.3,64.985 C506.218,65.630 502.447,67.286 499.687,69.953 ZM20.344,117.701 C15.238,112.548 12.685,106.661 12.685,100.37 C12.685,96.911 13.213,93.254 14.272,89.66 C15.328,84.881 15.859,81.317 15.859,78.371 C15.859,75.428 14.479,72.623 11.719,69.953 C8.959,67.286 5.185,65.630 0.403,64.985 L0.403,61.949 C5.185,61.307 8.959,59.651 11.719,56.981 C14.479,54.314 15.859,51.509 15.859,48.563 C15.859,45.620 15.307,42.32 14.203,37.799 C13.99,33.569 12.547,29.888 12.547,26.759 C12.547,20.228 15.121,14.408 20.275,9.302 C25.426,4.196 31.360,1.277 38.77,0.539 L38.77,2.885 C32.923,4.82 29.128,6.14 26.692,8.681 C24.253,11.351 23.35,14.939 23.35,19.445 C23.35,22.205 23.494,25.655 24.415,29.795 C25.333,33.935 25.795,37.432 25.795,40.283 C25.795,45.68 24.70,49.553 20.620,53.738 C17.170,57.926 12.271,61.169 5.923,63.467 C12.271,65.768 17.170,69.11 20.620,73.196 C24.70,77.384 25.795,81.869 25.795,86.651 C25.795,89.504 25.333,92.999 24.415,97.139 C23.494,101.279 23.35,104.729 23.35,107.489 C23.35,112.88 24.253,115.722 26.692,118.391 C29.128,121.58 32.923,122.990 38.77,124.187 L38.77,126.533 C31.360,125.796 25.450,122.852 20.344,117.701 Z"/>
</svg>