<?xml version="1.0" encoding="utf-8"?>
<!-- Generator: Adobe Illustrator 26.2.1, SVG Export Plug-In . SVG Version: 6.00 Build 0)  -->
<svg version="1.1" id="text"
	xmlns="http://www.w3.org/2000/svg"
	xmlns:xlink="http://www.w3.org/1999/xlink" x="0px" y="0px" viewBox="0 0 283.1 37.8" style="enable-background:new 0 0 283.1 37.8;" xml:space="preserve">
	<style type="text/css">
	.st0{fill:#666;}
	</style>
	<path id="x" class="st0" d="M242.9,26.5l-21.8,10.9c-1.9,0.9-4.3,0.1-5.2-1.8c-1-2-0.3-4.4,1.7-5.4l19.7-9.8 M260.7,17.7l20.2-10
	c2-1,2.8-3.3,1.9-5.3c-0.9-2-3.2-2.9-5.2-2c0,0-0.1,0-0.1,0c-0.1,0.1-0.1,0.1-0.1,0.1l-22.3,11.1 M279.1,29.8h-8.5
	c-5.5,0.3-11.9-6-18.6-13.5C245.3,9,238.5,0.4,228,0.1h-8.5c-2.2,0-4,1.8-4,4c0,2.2,1.8,4,4,4h8.5c5.1-0.3,11.5,6,18.1,13.5
	c6.7,7.3,13.7,15.9,24.5,16.2h8.5c2.2,0,4-1.8,4-4S281.3,29.8,279.1,29.8L279.1,29.8z"/>
	<path id="u" class="st0" d="M142.9,4v10.9c-0.1,7.9,3.4,14.3,8.8,17.9s12.2,5,19.3,5h24.7c6,0,10.9-4.8,10.9-10.8V4c0-2.2-1.8-4-4-4
	s-4,1.8-4,4v23c0,1.6-1.3,2.9-2.9,2.9H171c-6.1,0-11.4-1.2-14.7-3.6s-5.2-5.5-5.3-11.3V4c0-2.2-1.8-4-4-4S142.9,1.8,142.9,4L142.9,4
	z"/>
	<path id="l" class="st0" d="M133.2,29.8h-47c-1.6,0-2.9-1.2-2.9-2.8V4c0-2.2-1.8-4-4-4s-4,1.8-4,4v23c0,6,4.9,10.9,10.9,10.9h47
	c2.2,0,4-1.8,4-4S135.4,29.9,133.2,29.8L133.2,29.8z"/>
	<path id="e" class="st0" d="M18.4,22.9c-2.2,0-4-1.8-4-4s1.8-4,4-4h41.3c2.2,0,4,1.8,4,4s-1.8,4-4,4H18.4 M63.7,29.8h-47
	c-2.2-0.1-4.3-1-5.9-2.5c-1.6-1.4-2.6-3.4-2.7-5.5v-5.2c0.1-2.2,1.1-4.3,2.8-5.8c1.5-1.7,3.6-2.7,5.9-2.8h47c2.2,0,4-1.8,4-4
	s-1.8-4-4-4h-47C7.6,0.4,0.4,7.6,0,16.6v5.2c0.3,9,8,15.9,16.6,16.1h47c2.2,0,4-1.8,4-4S65.8,29.8,63.7,29.8L63.7,29.8z"/>
</svg>
