<?xml version="1.0" encoding="utf-8"?>
<!-- Generator: Adobe Illustrator 26.2.1, SVG Export Plug-In . SVG Version: 6.00 Build 0)  -->
<svg version="1.1" id="layer"
	xmlns="http://www.w3.org/2000/svg"
	xmlns:xlink="http://www.w3.org/1999/xlink" x="0px" y="0px" viewBox="0 0 283.5 283.5" style="enable-background:new 0 0 283.5 283.5;" xml:space="preserve">
	<style type="text/css">
	.st0{fill:#5E9EE6;}
	.st1{fill:#FF7464;}
	.st2{fill:#44C25A;}
	.st3{fill:#FF9F31;}
	@keyframes rotate{
        from{
            transform:rotate(0);
        }
		to{
            transform:rotate(360deg);
        }
    }
    #layer{
        transform-origin:50% 50%;
        animation:rotate 5s infinite linear;
    }
	</style>
	<path id="blue" class="st0" d="M63.2,71.6c-3-2.7-6.9-4.2-10.9-4.1c-4.8,0-9.3,1.6-11.7,4.1L34.2,78c-2.5,2.8-3.9,6.4-3.8,10.2
	c-0.1,4.3,1.5,8.5,4.5,11.7l78.5,78.5l-8.5,8.5l-78.5-78.5c-5.2-5.4-8.1-12.7-8-20.2c-0.1-6.9,2.5-13.7,7.3-18.7l6.4-6.4
	c5.5-5.5,13-7.6,20.2-7.6c7.2-0.1,14.2,2.6,19.4,7.6l33.2,33.3l-8.5,8.5L63.2,71.6z M123.2,168.5L47.6,92.8c-2.2-2.5-2-6.3,0.5-8.5
	c2.3-2,5.7-2,8,0l67.2,67.2l9.9-9.9l8.5,8.5L123.2,168.5L123.2,168.5z"/>
	<path id="red" class="st1" d="M220.1,71.6l-33.2,33.2l-8.5-8.4l33.2-33.2c2.5-2.5,4.1-6.8,4.1-11.3s-1.6-8.9-4.1-11.3l-6.4-6.4
	c-2.8-2.5-6.4-3.9-10.2-3.8c-4.3-0.1-8.5,1.5-11.7,4.5l-78.4,78.5l-8.5-8.5l78.5-78.5c5.4-5.2,12.7-8.1,20.2-8
	c6.9-0.1,13.7,2.5,18.7,7.3l6.4,6.4c5.3,5.4,7.6,12.7,7.6,19.8S225.4,66.3,220.1,71.6z M198.9,56.1l-67.2,67.2l9.9,9.9l-8.5,8.5
	l-18.4-18.4l75.7-75.7c2.3-2.3,6.1-2.3,8.5,0S201.2,53.7,198.9,56.1L198.9,56.1L198.9,56.1z"/>
	<path id="green" class="st2" d="M257.6,213.8l-6.4,6.4c-5.4,5.3-12.7,7.6-19.8,7.6s-14.4-2.3-19.8-7.6l-33.2-33.3l8.5-8.5l33.2,33.2
	c2.4,2.5,6.8,4.1,11.3,4.1s8.9-1.6,11.3-4.1l6.4-6.4c2.5-2.8,3.9-6.4,3.8-10.2c0.1-4.3-1.5-8.5-4.5-11.7l-78.5-78.5l8.5-8.4
	l78.5,78.5c5.2,5.4,8.1,12.7,8,20.2C265,202,262.4,208.8,257.6,213.8L257.6,213.8z M235.7,198.9c-2.3,2.3-6.1,2.3-8.5,0L160,131.7
	l-9.9,9.9l-8.5-8.5l18.4-18.4l75.6,75.6C238,192.7,238,196.5,235.7,198.9L235.7,198.9L235.7,198.9z"/>
	<path id="oringe" class="st3" d="M78,249.1c2.8,2.5,6.4,3.9,10.2,3.8c4.3,0.1,8.5-1.5,11.7-4.5l78.5-78.5l8.5,8.5l-78.5,78.5
	c-5.4,5.2-12.7,8.1-20.2,8c-6.9,0.1-13.7-2.5-18.7-7.3l-6.4-6.4c-5.3-5.4-7.6-12.7-7.6-19.8s2.3-14.4,7.6-19.8l33.3-33.2l8.5,8.5
	l-33.2,33.2c-2.5,2.4-4.1,6.8-4.1,11.3s1.6,8.9,4.1,11.3L78,249.1L78,249.1z M92.8,235.7c-2.2,2.5-6,2.8-8.5,0.6s-2.8-6-0.6-8.5
	c0.2-0.2,0.4-0.4,0.6-0.6l67.2-67.2l-9.9-9.9l8.5-8.5l18.4,18.4L92.8,235.7z"/>
</svg>
