<?xml version="1.0" encoding="utf-8"?>
<!-- Generator: Adobe Illustrator 26.2.1, SVG Export Plug-In . SVG Version: 6.00 Build 0)  -->
<svg version="1.1" id="root"
    xmlns="http://www.w3.org/2000/svg"
    xmlns:xlink="http://www.w3.org/1999/xlink" x="0px" y="0px" viewBox="0 0 448.8 141.7" style="enable-background:new 0 0 448.8 141.7;" xml:space="preserve">
    <style type="text/css">
	.st0{fill:#555555;}
	.st1{fill:#5E9EE6;}
	.st2{fill:#FF7464;}
	.st3{fill:#44C25A;}
	.st4{fill:#FF9F31;}
    </style>
    <path id="x" class="st0" d="M408.5,78.4l-21.8,10.9c-1.9,0.9-4.3,0.1-5.2-1.8c-1-2-0.2-4.4,1.7-5.4l19.7-9.8 M426.3,69.6l20.2-10.1
	c2-0.9,2.8-3.3,1.9-5.3c0,0,0,0,0,0c-0.9-2-3.2-2.8-5.2-1.9c0,0-0.1,0-0.1,0c-0.1,0-0.1,0-0.1,0l-22.3,11.2 M444.7,81.8h-8.5
	c-5.5,0.3-11.9-6-18.6-13.6c-6.7-7.3-13.5-15.9-24-16.2H385c-2.2,0-4,1.8-4,4s1.8,4,4,4h8.5c5.1-0.3,11.5,5.9,18.1,13.6
	c6.7,7.3,13.8,15.9,24.5,16.2h8.5c2.2-0.3,3.7-2.3,3.5-4.5C447.9,83.5,446.5,82.1,444.7,81.8L444.7,81.8z"/>
    <path id="u" class="st0" d="M308.3,56.1V67c-0.1,8,3.4,14.3,8.8,17.9c5.4,3.6,12.2,5,19.3,5h24.7c6,0,10.9-4.9,10.9-10.9
	c0,0,0,0,0,0v-23c0.1-2.2-1.6-4.1-3.8-4.2s-4.1,1.6-4.2,3.8c0,0.1,0,0.3,0,0.4v23c0,1.6-1.3,2.9-2.9,2.9h-24.7
	c-6.1,0-11.4-1.3-14.8-3.6c-3.4-2.4-5.2-5.5-5.3-11.4V56c0.1-2.2-1.6-4.1-3.8-4.2c-2.2-0.1-4.1,1.6-4.2,3.8
	C308.3,55.7,308.3,55.9,308.3,56.1L308.3,56.1z"/>
    <path id="l" class="st0" d="M298.6,81.8h-47.1c-1.6,0-2.9-1.3-2.9-2.9v-23c0-2.2-1.8-4-4-4c-2.2,0-4,1.8-4,4v23
	c0,6,4.9,10.9,10.9,10.9h47.1c2.2-0.1,3.9-2,3.8-4.2C302.3,83.5,300.7,81.9,298.6,81.8L298.6,81.8z"/>
    <path id="e" class="st0" d="M183.7,74.9c-2.2,0.1-4.1-1.6-4.2-3.8c-0.1-2.2,1.6-4.1,3.8-4.2c0.1,0,0.3,0,0.4,0H225
	c2.2-0.1,4.1,1.6,4.2,3.8c0.1,2.2-1.6,4.1-3.8,4.2c-0.1,0-0.3,0-0.4,0H183.7 M229,81.8h-47.1c-2.2-0.1-4.3-1-5.9-2.6
	c-1.6-1.4-2.6-3.4-2.7-5.5v-5.2c0.4-4.6,4.1-8.2,8.6-8.6H229c2.2,0,4-1.8,4-4s-1.8-4-4-4l0,0h-47.1c-9,0.4-16.3,7.6-16.6,16.7v5.2
	c0.3,9.1,8,15.9,16.6,16.1H229c2.2-0.1,3.9-2,3.8-4.2C232.7,83.5,231.1,81.9,229,81.8L229,81.8z"/>
    <path id="blue" class="st1" d="M25.7,30.6c-1.7-1.6-3.9-2.4-6.3-2.4c-2.5-0.1-4.9,0.7-6.8,2.4l-3.7,3.7c-1.5,1.6-2.2,3.7-2.2,5.9
	c0,2.5,0.9,4.9,2.6,6.8L54.6,92l-4.9,4.9L4.6,51.8c-3-3.1-4.6-7.3-4.6-11.6c-0.1-4,1.4-7.9,4.2-10.7l3.7-3.7
	c3.2-2.9,7.3-4.5,11.6-4.4c4.1-0.1,8.1,1.5,11.1,4.4l19.1,19.1l-4.9,4.9L25.7,30.6z M60.3,86.3L16.8,42.8c-1.3-1.3-1.3-3.5,0-4.9
	s3.5-1.3,4.9,0l38.6,38.6l5.7-5.7l4.9,4.9L60.3,86.3z"/>
    <path id="red" class="st2" d="M116,30.6L96.9,49.7L92,44.8l19.1-19.1c1.6-1.8,2.4-4.1,2.4-6.5c0.1-2.4-0.8-4.7-2.4-6.5l-3.7-3.7
	c-1.6-1.5-3.7-2.2-5.8-2.2c-2.5,0-4.9,0.9-6.7,2.6L49.7,54.6l-4.9-4.9L90,4.6c3.1-3,7.3-4.6,11.6-4.6c4-0.1,7.9,1.4,10.7,4.2
	l3.7,3.7c2.9,3.1,4.5,7.2,4.4,11.4C120.5,23.5,118.9,27.5,116,30.6z M103.8,21.7L65.2,60.3l5.7,5.7L66,70.9L55.4,60.3l43.5-43.5
	c1.3-1.3,3.5-1.3,4.9,0S105.1,20.3,103.8,21.7z"/>
    <path id="green" class="st3" d="M137.6,112.3l-3.7,3.7c-6.5,5.8-16.3,5.8-22.8,0L92,96.9l4.9-4.9l19.1,19.1c3.8,3.1,9.2,3.1,13,0
	l3.7-3.7c1.5-1.6,2.2-3.7,2.2-5.9c0-2.5-0.9-4.9-2.6-6.7L87.1,49.7l4.9-4.9L137.1,90c3,3.1,4.6,7.3,4.6,11.6
	C141.8,105.6,140.3,109.5,137.6,112.3L137.6,112.3z M124.9,103.8c-1.3,1.3-3.5,1.4-4.9,0c0,0,0,0,0,0L81.4,65.2l-5.7,5.7L70.9,66
	l10.6-10.6l43.5,43.5C126.3,100.3,126.3,102.5,124.9,103.8C124.9,103.8,124.9,103.8,124.9,103.8z"/>
    <path id="oringe" class="st4" d="M34.3,132.7c1.6,1.5,3.7,2.2,5.9,2.2c2.5,0,4.9-0.9,6.8-2.6L92,87.1l4.9,4.9l-45.1,45.1
	c-3.1,3-7.3,4.6-11.6,4.6c-4,0.1-7.9-1.4-10.7-4.2l-3.7-3.7c-5.8-6.5-5.8-16.3,0-22.8L44.8,92l4.9,4.9L30.6,116
	c-3.1,3.8-3.1,9.2,0,13L34.3,132.7L34.3,132.7z M42.8,124.9c-1.4,1.3-3.6,1.2-4.9-0.2c-1.2-1.3-1.2-3.4,0-4.7l38.6-38.6l-5.7-5.7
	l4.9-4.9l10.6,10.6C86.3,81.4,42.8,124.9,42.8,124.9z"/>
</svg>
