<?xml version="1.0" encoding="utf-8"?>
<!-- Generator: Adobe Illustrator 26.2.1, SVG Export Plug-In . SVG Version: 6.00 Build 0)  -->
<svg version="1.1" id="layer"
	xmlns="http://www.w3.org/2000/svg"
	xmlns:xlink="http://www.w3.org/1999/xlink" x="0px" y="0px" viewBox="0 0 246.5 246.5" style="enable-background:new 0 0 246.5 246.5;" xml:space="preserve">
	<style type="text/css">
	.st0{fill:#5E9EE6;}
	.st1{fill:#FF7464;}
	.st2{fill:#44C25A;}
	.st3{fill:#FF9F31;}
	</style>
	<path id="blue" class="st0" d="M44.8,53.2c-3-2.7-6.9-4.2-10.9-4.1c-4.8,0-9.3,1.6-11.7,4.1l-6.4,6.4c-2.5,2.8-3.9,6.4-3.8,10.2
	c-0.1,4.3,1.5,8.5,4.5,11.7L95,160l-8.5,8.5L8,90c-5.2-5.4-8.1-12.7-8-20.2c-0.1-6.9,2.5-13.7,7.3-18.7l6.4-6.4
	c5.5-5.5,13-7.6,20.2-7.6c7.2-0.1,14.2,2.6,19.4,7.6L86.5,78L78,86.5L44.8,53.2z M104.8,150.1L29.2,74.4c-2.2-2.5-2-6.3,0.5-8.5
	c2.3-2,5.7-2,8,0l67.2,67.2l9.9-9.9l8.5,8.5L104.8,150.1L104.8,150.1z"/>
	<path id="red" class="st1" d="M201.7,53.2l-33.2,33.2L160,78l33.2-33.2c2.5-2.5,4.1-6.8,4.1-11.3s-1.6-8.9-4.1-11.3l-6.4-6.4
	c-2.8-2.5-6.4-3.9-10.2-3.8c-4.3-0.1-8.5,1.5-11.7,4.5L86.5,95L78,86.5L156.5,8c5.4-5.2,12.7-8.1,20.2-8c6.9-0.1,13.7,2.5,18.7,7.3
	l6.4,6.4c5.3,5.4,7.6,12.7,7.6,19.8S207,47.9,201.7,53.2z M180.5,37.7l-67.2,67.2l9.9,9.9l-8.5,8.5l-18.4-18.4L172,29.2
	c2.3-2.3,6.1-2.3,8.5,0S182.8,35.3,180.5,37.7L180.5,37.7L180.5,37.7z"/>
	<path id="green" class="st2" d="M239.2,195.4l-6.4,6.4c-5.4,5.3-12.7,7.6-19.8,7.6s-14.4-2.3-19.8-7.6L160,168.5l8.5-8.5l33.2,33.2
	c2.4,2.5,6.8,4.1,11.3,4.1s8.9-1.6,11.3-4.1l6.4-6.4c2.5-2.8,3.9-6.4,3.8-10.2c0.1-4.3-1.5-8.5-4.5-11.7l-78.5-78.5L160,78
	l78.5,78.5c5.2,5.4,8.1,12.7,8,20.2C246.6,183.6,244,190.4,239.2,195.4L239.2,195.4z M217.3,180.5c-2.3,2.3-6.1,2.3-8.5,0
	l-67.2-67.2l-9.9,9.9l-8.5-8.5l18.4-18.4l75.6,75.6C219.6,174.3,219.6,178.1,217.3,180.5C217.3,180.5,217.3,180.5,217.3,180.5
	L217.3,180.5z"/>
	<path id="oringe" class="st3" d="M59.6,230.7c2.8,2.5,6.4,3.9,10.2,3.8c4.3,0.1,8.5-1.5,11.7-4.5l78.5-78.5l8.5,8.5L90,238.5
	c-5.4,5.2-12.7,8.1-20.2,8c-6.9,0.1-13.7-2.5-18.7-7.3l-6.4-6.4c-5.3-5.4-7.6-12.7-7.6-19.8s2.3-14.4,7.6-19.8L78,160l8.5,8.5
	l-33.2,33.2c-2.5,2.4-4.1,6.8-4.1,11.3s1.6,8.9,4.1,11.3L59.6,230.7L59.6,230.7z M74.4,217.3c-2.2,2.5-6,2.8-8.5,0.6s-2.8-6-0.6-8.5
	c0.2-0.2,0.4-0.4,0.6-0.6l67.2-67.2l-9.9-9.9l8.5-8.5l18.4,18.4L74.4,217.3z"/>
</svg>
