<svg id="SvgjsSvg1095" xmlns="http://www.w3.org/2000/svg" version="1.1" xmlns:xlink="http://www.w3.org/1999/xlink" xmlns:svgjs="http://svgjs.com/svgjs" width="479" height="440.578125"><defs id="SvgjsDefs1096"><marker id="SvgjsMarker1127" markerWidth="14" markerHeight="10" refX="4" refY="5" viewBox="0 0 14 10" orient="auto" markerUnits="userSpaceOnUse" stroke-dasharray="0,0"><path id="SvgjsPath1128" d="M14 0L0 5L14 10L14 0 " fill="#616161" stroke="#616161" stroke-width="1"></path></marker><marker id="SvgjsMarker1131" markerWidth="14" markerHeight="10" refX="4" refY="5" viewBox="0 0 14 10" orient="auto" markerUnits="userSpaceOnUse" stroke-dasharray="0,0"><path id="SvgjsPath1132" d="M14 0L0 5L14 10L14 0 " fill="#616161" stroke="#616161" stroke-width="1"></path></marker><marker id="SvgjsMarker1153" markerWidth="14" markerHeight="10" refX="10" refY="5" viewBox="0 0 14 10" orient="auto" markerUnits="userSpaceOnUse" stroke-dasharray="0,0"><path id="SvgjsPath1154" d="M0 0L14 5L0 10L0 0 " fill="#616161" stroke="#616161" stroke-width="1"></path></marker><marker id="SvgjsMarker1163" markerWidth="14" markerHeight="10" refX="10" refY="5" viewBox="0 0 14 10" orient="auto" markerUnits="userSpaceOnUse" stroke-dasharray="0,0"><path id="SvgjsPath1164" d="M0 0L14 5L0 10L0 0 " fill="#616161" stroke="#616161" stroke-width="1"></path></marker><marker id="SvgjsMarker1173" markerWidth="14" markerHeight="10" refX="10" refY="5" viewBox="0 0 14 10" orient="auto" markerUnits="userSpaceOnUse" stroke-dasharray="0,0"><path id="SvgjsPath1174" d="M0 0L14 5L0 10L0 0 " fill="#616161" stroke="#616161" stroke-width="1"></path></marker><marker id="SvgjsMarker1177" markerWidth="14" markerHeight="10" refX="10" refY="5" viewBox="0 0 14 10" orient="auto" markerUnits="userSpaceOnUse" stroke-dasharray="0,0"><path id="SvgjsPath1178" d="M0 0L14 5L0 10L0 0 " fill="#616161" stroke="#616161" stroke-width="1"></path></marker></defs><g id="SvgjsG1097" transform="translate(200,25)"><path id="SvgjsPath1098" d="M0 0L254 0L254 156L0 156Z " stroke-dasharray="10,6" stroke="rgba(158,158,158,1)" stroke-width="2" fill-opacity="1" fill="#ffffff"></path><g id="SvgjsG1099"><text id="SvgjsText1100" font-family="微软雅黑" text-anchor="middle" font-size="13px" width="234px" fill="#323232" font-weight="400" align="middle" lineHeight="125%" font-style="" opacity="1" y="67.375" transform="rotate(0)"></text></g></g><g id="SvgjsG1101" transform="translate(25,171)"><path id="SvgjsPath1102" d="M0 0L429 0L429 243L0 243Z " stroke-dasharray="10,6" stroke="rgba(158,158,158,1)" stroke-width="2" fill-opacity="1" fill="#ffffff"></path><g id="SvgjsG1103"><text id="SvgjsText1104" font-family="微软雅黑" text-anchor="middle" font-size="13px" width="409px" fill="#323232" font-weight="400" align="middle" lineHeight="125%" font-style="" opacity="1" y="110.875" transform="rotate(0)"></text></g></g><g id="SvgjsG1105" transform="translate(202,133)"><path id="SvgjsPath1106" d="M0 0L250 0L250 57L0 57Z " stroke="none" fill-opacity="1" fill="#ffffff"></path><g id="SvgjsG1107"><text id="SvgjsText1108" font-family="微软雅黑" text-anchor="middle" font-size="13px" width="230px" fill="#323232" font-weight="400" align="middle" lineHeight="125%" font-style="" opacity="1" y="17.875" transform="rotate(0)"></text></g></g><g id="SvgjsG1109" transform="translate(301,113)"><path id="SvgjsPath1110" d="M9.57 0L19.43 0L19.43 277.5L29 277.5L14.5 292L0 277.5L9.57 277.5L9.57 0Z " stroke="rgba(97,97,97,1)" stroke-width="2" fill-opacity="1" fill="#616161"></path><g id="SvgjsG1111"><text id="SvgjsText1112" font-family="微软雅黑" text-anchor="middle" font-size="13px" width="41px" fill="#ffffff" font-weight="400" align="middle" lineHeight="125%" font-style="" opacity="1" y="120.775" transform="rotate(0)"></text></g></g><g id="SvgjsG1113" transform="translate(233,191.1944444444444)"><path id="SvgjsPath1114" d="M0 34.5L82.5 0L165 34.5L82.5 69Z " stroke="rgba(97,97,97,1)" stroke-width="2" fill-opacity="1" fill="#ffffff"></path><g id="SvgjsG1115"><text id="SvgjsText1116" font-family="微软雅黑" text-anchor="middle" font-size="16px" width="145px" fill="#616161" font-weight="400" align="middle" lineHeight="125%" font-style="" opacity="1" y="20.845" transform="rotate(0)"><tspan id="SvgjsTspan1117" dy="20" x="82.5"><tspan id="SvgjsTspan1118" style="text-decoration:;">ActionHandler</tspan></tspan></text></g></g><g id="SvgjsG1119" transform="translate(233,287.8888888888888)"><path id="SvgjsPath1120" d="M0 34.5L82.5 0L165 34.5L82.5 69Z " stroke="rgba(97,97,97,1)" stroke-width="2" fill-opacity="1" fill="#ffffff"></path><g id="SvgjsG1121"><text id="SvgjsText1122" font-family="微软雅黑" text-anchor="middle" font-size="16px" width="145px" fill="#616161" font-weight="400" align="middle" lineHeight="125%" font-style="" opacity="1" y="20.845" transform="rotate(0)"><tspan id="SvgjsTspan1123" dy="20" x="82.5"><tspan id="SvgjsTspan1124" style="text-decoration:;">ActionHandler</tspan></tspan></text></g></g><g id="SvgjsG1125"><path id="SvgjsPath1126" d="M150.60000000000002 272L190 272L190 225.6944444444444L232 225.6944444444444 " stroke="#616161" stroke-width="2" fill="none" marker-start="url(#SvgjsMarker1127)"></path></g><g id="SvgjsG1129"><path id="SvgjsPath1130" d="M150.60000000000002 272L190 272L190 322.3888888888888L232 322.3888888888888 " stroke="#616161" stroke-width="2" fill="none" marker-start="url(#SvgjsMarker1131)"></path></g><g id="SvgjsG1133" transform="translate(27,375.58333333333326)"><path id="SvgjsPath1134" d="M0 0L58 0L58 40L0 40Z " stroke="none" fill="none"></path><g id="SvgjsG1135"><text id="SvgjsText1136" font-family="微软雅黑" text-anchor="middle" font-size="13px" width="58px" fill="#9e9e9e" font-weight="400" align="middle" lineHeight="125%" font-style="" opacity="1" y="9.375" transform="rotate(0)"><tspan id="SvgjsTspan1137" dy="16" x="29"><tspan id="SvgjsTspan1138" style="text-decoration:;">Model</tspan></tspan></text></g></g><g id="SvgjsG1139" transform="translate(263,58)"><path id="SvgjsPath1140" d="M0 27.5C0 -9.166666666666666 105 -9.166666666666666 105 27.5C105 64.16666666666667 0 64.16666666666667 0 27.5Z " stroke="rgba(97,97,97,1)" stroke-width="2" fill-opacity="1" fill="#ffffff"></path><g id="SvgjsG1141"><text id="SvgjsText1142" font-family="微软雅黑" text-anchor="middle" font-size="16px" width="85px" fill="#616161" font-weight="400" align="middle" lineHeight="125%" font-style="" opacity="1" y="13.5" transform="rotate(0)"><tspan id="SvgjsTspan1143" dy="20" x="52.5"><tspan id="SvgjsTspan1144" style="text-decoration:;">Dispatcher</tspan></tspan></text></g></g><g id="SvgjsG1145" transform="translate(57,207)"><path id="SvgjsPath1146" d="M36 0L108 0L72 130L0 130L36 0Z " stroke="rgba(97,97,97,1)" stroke-width="2" fill-opacity="1" fill="#ffffff"></path><g id="SvgjsG1147"><text id="SvgjsText1148" font-family="微软雅黑" text-anchor="middle" font-size="16px" width="76px" fill="#616161" font-weight="400" align="middle" lineHeight="125%" font-style="" opacity="1" y="51" transform="rotate(0)"><tspan id="SvgjsTspan1149" dy="20" x="54.2"><tspan id="SvgjsTspan1150" style="text-decoration:;">State</tspan></tspan></text></g></g><g id="SvgjsG1151"><path id="SvgjsPath1152" d="M111 206L111 160L111 160L111 116.60000000000002 " stroke="#616161" stroke-width="2" fill="none" marker-end="url(#SvgjsMarker1153)"></path></g><g id="SvgjsG1155" transform="translate(67,58)"><path id="SvgjsPath1156" d="M0 0L88 0L88 55L0 55Z " stroke="rgba(97,97,97,1)" stroke-width="2" fill-opacity="1" fill="#f5f5f5"></path><g id="SvgjsG1157"><text id="SvgjsText1158" font-family="微软雅黑" text-anchor="middle" font-size="16px" width="68px" fill="#616161" font-weight="400" align="middle" lineHeight="125%" font-style="" opacity="1" y="13.5" transform="rotate(0)"><tspan id="SvgjsTspan1159" dy="20" x="44"><tspan id="SvgjsTspan1160" style="text-decoration:;">View</tspan></tspan></text></g></g><g id="SvgjsG1161"><path id="SvgjsPath1162" d="M156 85.5L209 85.5L209 85.5L259.4 85.5 " stroke="#616161" stroke-width="2" fill="none" marker-end="url(#SvgjsMarker1163)"></path></g><g id="SvgjsG1165" transform="translate(302,353.58333333333326)"><path id="SvgjsPath1166" d="M0 0L120 0L120 40L0 40Z " stroke="none" fill="none"></path><g id="SvgjsG1167"><text id="SvgjsText1168" font-family="微软雅黑" text-anchor="middle" font-size="13px" width="120px" fill="#9e9e9e" font-weight="400" align="middle" lineHeight="125%" font-style="" opacity="1" y="9.375" transform="rotate(0)"><tspan id="SvgjsTspan1169" dy="16" x="60"><tspan id="SvgjsTspan1170" style="text-decoration:;">ActionBus</tspan></tspan></text></g></g><g id="SvgjsG1171"><path id="SvgjsPath1172" d="M399 225.6944444444444L428 225.6944444444444L428 85.5L371.6 85.5 " stroke="#616161" stroke-width="2" fill="none" marker-end="url(#SvgjsMarker1173)"></path></g><g id="SvgjsG1175"><path id="SvgjsPath1176" d="M399 322.3888888888888L428 322.3888888888888L428 85.5L371.6 85.5 " stroke="#616161" stroke-width="2" fill="none" marker-end="url(#SvgjsMarker1177)"></path></g><g id="SvgjsG1179" transform="translate(266,134.75)"><path id="SvgjsPath1180" d="M0 0L99 0L99 25L0 25Z " stroke="rgba(255,255,255,1)" stroke-width="2" fill-opacity="1" fill="#ffffff"></path><g id="SvgjsG1181"><text id="SvgjsText1182" font-family="微软雅黑" text-anchor="middle" font-size="16px" width="79px" fill="#616161" font-weight="400" align="middle" lineHeight="125%" font-style="" opacity="1" y="-1.5" transform="rotate(0)"><tspan id="SvgjsTspan1183" dy="20" x="49.5"><tspan id="SvgjsTspan1184" style="text-decoration:;">Action</tspan></tspan></text></g></g></svg>