<svg id="SvgjsSvg1097" xmlns="http://www.w3.org/2000/svg" version="1.1" xmlns:xlink="http://www.w3.org/1999/xlink" xmlns:svgjs="http://svgjs.com/svgjs" width="500.9375" height="416.078125"><defs id="SvgjsDefs1098"></defs><g id="SvgjsG1099" transform="translate(149.5,146.65977991193853)"><path id="SvgjsPath1100" d="M0 103C0 -34.333333333333336 204 -34.333333333333336 204 103C204 240.33333333333334 0 240.33333333333334 0 103Z " stroke="rgba(97,97,97,1)" stroke-width="2" fill-opacity="1" fill="#9e9e9e"></path><g id="SvgjsG1101"><text id="SvgjsText1102" font-family="微软雅黑" text-anchor="middle" font-size="16px" width="184px" fill="#ffffff" font-weight="700" align="middle" lineHeight="125%" font-style="" opacity="1" y="89" transform="rotate(0)"><tspan id="SvgjsTspan1103" dy="20" x="102"><tspan id="SvgjsTspan1104" style="text-decoration:;font-size: inherit;">Core Logic</tspan></tspan></text></g></g><g id="SvgjsG1105" transform="translate(191.5,251.70320796845897)"><path id="SvgjsPath1106" d="M0 0L120 0L120 40L0 40Z " stroke="none" fill="none"></path><g id="SvgjsG1107"><text id="SvgjsText1108" font-family="微软雅黑" text-anchor="middle" font-size="13px" width="120px" fill="#e0e0e0" font-weight="400" align="middle" lineHeight="125%" font-style="" opacity="1" y="9.375" transform="rotate(0)"><tspan id="SvgjsTspan1109" dy="16" x="60"><tspan id="SvgjsTspan1110" style="text-decoration:;">General Code</tspan></tspan></text></g></g><g id="SvgjsG1111" transform="matrix(0.9063077870366497,-0.4226182617407,0.4226182617407,0.9063077870366497,137.71593293666098,90.83085347363529)"><path id="SvgjsPath1112" d="M0 0L75 0L75 38.66666666666667L37.5 58L0 38.66666666666667L0 0Z " stroke="rgba(97,97,97,1)" stroke-width="2" fill-opacity="1" fill="#f5f5f5"></path><g id="SvgjsG1113"><text id="SvgjsText1114" font-family="微软雅黑" text-anchor="middle" font-size="16px" width="75px" fill="#616161" font-weight="400" align="middle" lineHeight="125%" font-style="" opacity="1" y="5.333333333333336" transform="rotate(0)"><tspan id="SvgjsTspan1115" dy="20" x="37.5"><tspan id="SvgjsTspan1116" style="text-decoration:;">React</tspan></tspan></text></g></g><g id="SvgjsG1117" transform="matrix(0.9063077870366497,-0.4226182617407,0.4226182617407,0.9063077870366497,114.70645515202904,65.1488784785246)"><path id="SvgjsPath1118" d="M0 0L95 0L95 32L0 32Z " stroke="none" fill="none"></path><g id="SvgjsG1119"><text id="SvgjsText1120" font-family="微软雅黑" text-anchor="middle" font-size="13px" width="95px" fill="#9e9e9e" font-weight="400" align="middle" lineHeight="125%" font-style="" opacity="1" y="5.375" transform="rotate(0)"><tspan id="SvgjsTspan1121" dy="16" x="47.5"><tspan id="SvgjsTspan1122" style="text-decoration:;">UI Framewrok</tspan></tspan></text></g></g><g id="SvgjsG1123" transform="matrix(0.2588190451025186,-0.9659258262890689,0.9659258262890689,0.2588190451025186,59.47900056697568,224.45328258411703)"><path id="SvgjsPath1124" d="M0 0L75 0L75 38.66666666666667L37.5 58L0 38.66666666666667L0 0Z " stroke="rgba(97,97,97,1)" stroke-width="2" fill-opacity="1" fill="#f5f5f5"></path><g id="SvgjsG1125"><text id="SvgjsText1126" font-family="微软雅黑" text-anchor="middle" font-size="16px" width="75px" fill="#616161" font-weight="400" align="middle" lineHeight="125%" font-style="" opacity="1" y="5.333333333333336" transform="rotate(0)"><tspan id="SvgjsTspan1127" dy="20" x="37.5"><tspan id="SvgjsTspan1128" style="text-decoration:;">Vue</tspan></tspan></text></g></g><g id="SvgjsG1129" transform="matrix(0.2588190451025186,-0.9659258262890689,0.9659258262890689,0.2588190451025186,25.01525775727504,225.57151826732485)"><path id="SvgjsPath1130" d="M0 0L95 0L95 32L0 32Z " stroke="none" fill="none"></path><g id="SvgjsG1131"><text id="SvgjsText1132" font-family="微软雅黑" text-anchor="middle" font-size="13px" width="95px" fill="#9e9e9e" font-weight="400" align="middle" lineHeight="125%" font-style="" opacity="1" y="5.375" transform="rotate(0)"><tspan id="SvgjsTspan1133" dy="16" x="47.5"><tspan id="SvgjsTspan1134" style="text-decoration:;">UI Framewrok</tspan></tspan></text></g></g><g id="SvgjsG1135" transform="matrix(-0.34202014332566855,-0.9396926207859084,0.9396926207859084,-0.34202014332566855,90.8451466668431,364.70771661560343)"><path id="SvgjsPath1136" d="M0 0L75 0L75 38.66666666666667L37.5 58L0 38.66666666666667L0 0Z " stroke="rgba(97,97,97,1)" stroke-width="2" fill-opacity="1" fill="#f5f5f5"></path><g id="SvgjsG1137"><text id="SvgjsText1138" font-family="微软雅黑" text-anchor="middle" font-size="16px" width="75px" fill="#616161" font-weight="400" align="middle" lineHeight="125%" font-style="" opacity="1" y="5.333333333333336" transform="rotate(0)"><tspan id="SvgjsTspan1139" dy="20" x="37.5"><tspan id="SvgjsTspan1140" style="text-decoration:;">...Other</tspan></tspan></text></g></g><g id="SvgjsG1141" transform="matrix(-0.34202014332566855,-0.9396926207859084,0.9396926207859084,-0.34202014332566855,63.25549252828779,385.39132163405696)"><path id="SvgjsPath1142" d="M0 0L95 0L95 32L0 32Z " stroke="none" fill="none"></path><g id="SvgjsG1143"><text id="SvgjsText1144" font-family="微软雅黑" text-anchor="middle" font-size="13px" width="95px" fill="#9e9e9e" font-weight="400" align="middle" lineHeight="125%" font-style="" opacity="1" y="5.375" transform="rotate(0)"><tspan id="SvgjsTspan1145" dy="16" x="47.5"><tspan id="SvgjsTspan1146" style="text-decoration:;">UI Framewrok</tspan></tspan></text></g></g><g id="SvgjsG1147" transform="matrix(0.9396926207859084,0.3420201433256685,-0.3420201433256685,0.9396926207859084,301.8521689824416,65.67563817571875)"><path id="SvgjsPath1148" d="M0 0L75 0L75 38.66666666666667L37.5 58L0 38.66666666666667L0 0Z " stroke="rgba(97,97,97,1)" stroke-width="2" fill-opacity="1" fill="#ffffff"></path><g id="SvgjsG1149"><text id="SvgjsText1150" font-family="微软雅黑" text-anchor="middle" font-size="16px" width="75px" fill="#616161" font-weight="400" align="middle" lineHeight="125%" font-style="" opacity="1" y="5.333333333333336" transform="rotate(0)"><tspan id="SvgjsTspan1151" dy="20" x="37.5"><tspan id="SvgjsTspan1152" style="text-decoration:;">Router</tspan></tspan></text></g></g><g id="SvgjsG1153" transform="matrix(0.9396926207859084,0.3420201433256685,-0.3420201433256685,0.9396926207859084,303.7419215851769,31.245580216975743)"><path id="SvgjsPath1154" d="M0 0L95 0L95 32L0 32Z " stroke="none" fill="none"></path><g id="SvgjsG1155"><text id="SvgjsText1156" font-family="微软雅黑" text-anchor="middle" font-size="13px" width="95px" fill="#9e9e9e" font-weight="400" align="middle" lineHeight="125%" font-style="" opacity="1" y="5.375" transform="rotate(0)"><tspan id="SvgjsTspan1157" dy="16" x="47.5"><tspan id="SvgjsTspan1158" style="text-decoration:;">Effect</tspan></tspan></text></g></g><g id="SvgjsG1159" transform="matrix(0.2588190451025205,0.9659258262890683,-0.9659258262890683,0.2588190451025205,422.57252271049157,155.7078049630228)"><path id="SvgjsPath1160" d="M0 0L75 0L75 38.66666666666667L37.5 58L0 38.66666666666667L0 0Z " stroke="rgba(97,97,97,1)" stroke-width="2" fill-opacity="1" fill="#ffffff"></path><g id="SvgjsG1161"><text id="SvgjsText1162" font-family="微软雅黑" text-anchor="middle" font-size="16px" width="75px" fill="#616161" font-weight="400" align="middle" lineHeight="125%" font-style="" opacity="1" y="5.333333333333336" transform="rotate(0)"><tspan id="SvgjsTspan1163" dy="20" x="37.5"><tspan id="SvgjsTspan1164" style="text-decoration:;">Event</tspan></tspan></text></g></g><g id="SvgjsG1165" transform="matrix(0.2588190451025205,0.9659258262890683,-0.9659258262890683,0.2588190451025205,451.8598831876304,137.50750886166017)"><path id="SvgjsPath1166" d="M0 0L95 0L95 32L0 32Z " stroke="none" fill="none"></path><g id="SvgjsG1167"><text id="SvgjsText1168" font-family="微软雅黑" text-anchor="middle" font-size="13px" width="95px" fill="#9e9e9e" font-weight="400" align="middle" lineHeight="125%" font-style="" opacity="1" y="5.375" transform="rotate(0)"><tspan id="SvgjsTspan1169" dy="16" x="47.5"><tspan id="SvgjsTspan1170" style="text-decoration:;">Effect</tspan></tspan></text></g></g><g id="SvgjsG1171" transform="matrix(-0.3420201433256681,0.9396926207859086,-0.9396926207859086,-0.3420201433256681,440.0770550005508,290.55422586720715)"><path id="SvgjsPath1172" d="M0 0L75 0L75 38.66666666666667L37.5 58L0 38.66666666666667L0 0Z " stroke="rgba(97,97,97,1)" stroke-width="2" fill-opacity="1" fill="#ffffff"></path><g id="SvgjsG1173"><text id="SvgjsText1174" font-family="微软雅黑" text-anchor="middle" font-size="16px" width="75px" fill="#616161" font-weight="400" align="middle" lineHeight="125%" font-style="" opacity="1" y="5.333333333333336" transform="rotate(0)"><tspan id="SvgjsTspan1175" dy="20" x="37.5"><tspan id="SvgjsTspan1176" style="text-decoration:;">...Native</tspan></tspan></text></g></g><g id="SvgjsG1177" transform="matrix(-0.3420201433256681,0.9396926207859086,-0.9396926207859086,-0.3420201433256681,475.1499047073406,293.21000019845815)"><path id="SvgjsPath1178" d="M0 0L95 0L95 32L0 32Z " stroke="none" fill="none"></path><g id="SvgjsG1179"><text id="SvgjsText1180" font-family="微软雅黑" text-anchor="middle" font-size="13px" width="95px" fill="#9e9e9e" font-weight="400" align="middle" lineHeight="125%" font-style="" opacity="1" y="5.375" transform="rotate(0)"><tspan id="SvgjsTspan1181" dy="16" x="47.5"><tspan id="SvgjsTspan1182" style="text-decoration:;">Effect</tspan></tspan></text></g></g><g id="SvgjsG1183" transform="translate(191.5,351.078125)"><path id="SvgjsPath1184" d="M0 0L120 0L120 40L0 40Z " stroke="none" fill="none"></path><g id="SvgjsG1185"><text id="SvgjsText1186" font-family="微软雅黑" text-anchor="middle" font-size="16px" width="120px" fill="#616161" font-weight="400" align="middle" lineHeight="125%" font-style="" opacity="1" y="6" transform="rotate(0)"><tspan id="SvgjsTspan1187" dy="20" x="60"><tspan id="SvgjsTspan1188" style="text-decoration:;">Reusable</tspan></tspan></text></g></g></svg>