<svg id="SvgjsSvg1097" xmlns="http://www.w3.org/2000/svg" version="1.1" xmlns:xlink="http://www.w3.org/1999/xlink" xmlns:svgjs="http://svgjs.com/svgjs" width="667" height="628"><defs id="SvgjsDefs1098"><marker id="SvgjsMarker1131" markerWidth="14" markerHeight="10" refX="10" refY="5" viewBox="0 0 14 10" orient="auto" markerUnits="userSpaceOnUse" stroke-dasharray="0,0"><path id="SvgjsPath1132" d="M0 0L14 5L0 10L0 0 " fill="#616161" stroke="#616161" stroke-width="1"></path></marker><marker id="SvgjsMarker1135" markerWidth="14" markerHeight="10" refX="10" refY="5" viewBox="0 0 14 10" orient="auto" markerUnits="userSpaceOnUse" stroke-dasharray="0,0"><path id="SvgjsPath1136" d="M0 0L14 5L0 10L0 0 " fill="#616161" stroke="#616161" stroke-width="1"></path></marker><marker id="SvgjsMarker1139" markerWidth="14" markerHeight="10" refX="10" refY="5" viewBox="0 0 14 10" orient="auto" markerUnits="userSpaceOnUse" stroke-dasharray="0,0"><path id="SvgjsPath1140" d="M0 0L14 5L0 10L0 0 " fill="#616161" stroke="#616161" stroke-width="1"></path></marker><marker id="SvgjsMarker1143" markerWidth="14" markerHeight="10" refX="10" refY="5" viewBox="0 0 14 10" orient="auto" markerUnits="userSpaceOnUse" stroke-dasharray="0,0"><path id="SvgjsPath1144" d="M0 0L14 5L0 10L0 0 " fill="#616161" stroke="#616161" stroke-width="1"></path></marker><marker id="SvgjsMarker1147" markerWidth="14" markerHeight="10" refX="10" refY="5" viewBox="0 0 14 10" orient="auto" markerUnits="userSpaceOnUse" stroke-dasharray="0,0"><path id="SvgjsPath1148" d="M0 0L14 5L0 10L0 0 " fill="#323232" stroke="#323232" stroke-width="1"></path></marker></defs><g id="SvgjsG1099" transform="translate(25,128)"><path id="SvgjsPath1100" d="M15.54559043348281 0L101.88015214077461 0C122.60760605208503 0 122.60760605208503 46.63677130044843 101.88015214077461 46.63677130044843L15.54559043348281 46.63677130044843C-5.181863477827603 46.63677130044843 -5.181863477827603 0 15.54559043348281 0Z " stroke="rgba(97,97,97,1)" stroke-width="2" fill-opacity="1" fill="#616161"></path><g id="SvgjsG1101"><text id="SvgjsText1102" font-family="微软雅黑" text-anchor="middle" font-size="16px" width="98px" fill="#ffffff" font-weight="400" align="middle" lineHeight="125%" font-style="" opacity="1" y="9.318385650224215" transform="rotate(0)"><tspan id="SvgjsTspan1103" dy="20" x="59"><tspan id="SvgjsTspan1104" style="text-decoration:;">stage.mount</tspan></tspan></text></g></g><g id="SvgjsG1105" transform="translate(226.97227722772277,70.63677130044843)"><path id="SvgjsPath1106" d="M15.54559043348281 0L148.85044917047762 0C169.577903081788 0 169.577903081788 46.63677130044843 148.85044917047762 46.63677130044843L15.54559043348281 46.63677130044843C-5.181863477827603 46.63677130044843 -5.181863477827603 0 15.54559043348281 0Z " stroke="rgba(97,97,97,1)" stroke-width="2" fill-opacity="1" fill="#ffffff"></path><g id="SvgjsG1107"><text id="SvgjsText1108" font-family="微软雅黑" text-anchor="middle" font-size="16px" width="145px" fill="#616161" font-weight="400" align="middle" lineHeight="125%" font-style="" opacity="1" y="9.318385650224215" transform="rotate(0)"><tspan id="SvgjsTspan1109" dy="20" x="82.5"><tspan id="SvgjsTspan1110" style="text-decoration:;">subModule.mount</tspan></tspan></text></g></g><g id="SvgjsG1111" transform="translate(226.97227722772277,185.36322869955154)"><path id="SvgjsPath1112" d="M15.54559043348281 0L148.85044917047762 0C169.577903081788 0 169.577903081788 46.63677130044843 148.85044917047762 46.63677130044843L15.54559043348281 46.63677130044843C-5.181863477827603 46.63677130044843 -5.181863477827603 0 15.54559043348281 0Z " stroke="rgba(97,97,97,1)" stroke-width="2" fill-opacity="1" fill="#ffffff"></path><g id="SvgjsG1113"><text id="SvgjsText1114" font-family="微软雅黑" text-anchor="middle" font-size="16px" width="145px" fill="#616161" font-weight="400" align="middle" lineHeight="125%" font-style="" opacity="1" y="9.318385650224215" transform="rotate(0)"><tspan id="SvgjsTspan1115" dy="20" x="82.5"><tspan id="SvgjsTspan1116" style="text-decoration:;">subModule.mount</tspan></tspan></text></g></g><g id="SvgjsG1117" transform="translate(443.6039603960396,70.63677130044843)"><path id="SvgjsPath1118" d="M15.54559043348281 0L182.4544095665172 0C203.1818634778276 0 203.1818634778276 46.63677130044843 182.4544095665172 46.63677130044843L15.54559043348281 46.63677130044843C-5.181863477827603 46.63677130044843 -5.181863477827603 0 15.54559043348281 0Z " stroke="rgba(97,97,97,1)" stroke-width="2" fill-opacity="1" fill="#ffffff"></path><g id="SvgjsG1119"><text id="SvgjsText1120" font-family="微软雅黑" text-anchor="middle" font-size="16px" width="178px" fill="#616161" font-weight="400" align="middle" lineHeight="125%" font-style="" opacity="1" y="9.318385650224215" transform="rotate(0)"><tspan id="SvgjsTspan1121" dy="20" x="99"><tspan id="SvgjsTspan1122" style="text-decoration:;">grandsonModule.mount</tspan></tspan></text></g></g><g id="SvgjsG1123" transform="translate(443.6039603960396,185.36322869955154)"><path id="SvgjsPath1124" d="M15.54559043348281 0L182.4544095665172 0C203.1818634778276 0 203.1818634778276 46.63677130044843 182.4544095665172 46.63677130044843L15.54559043348281 46.63677130044843C-5.181863477827603 46.63677130044843 -5.181863477827603 0 15.54559043348281 0Z " stroke="rgba(97,97,97,1)" stroke-width="2" fill-opacity="1" fill="#ffffff"></path><g id="SvgjsG1125"><text id="SvgjsText1126" font-family="微软雅黑" text-anchor="middle" font-size="16px" width="178px" fill="#616161" font-weight="400" align="middle" lineHeight="125%" font-style="" opacity="1" y="9.318385650224215" transform="rotate(0)"><tspan id="SvgjsTspan1127" dy="20" x="99"><tspan id="SvgjsTspan1128" style="text-decoration:;">grandsonModule.mount</tspan></tspan></text></g></g><g id="SvgjsG1129"><path id="SvgjsPath1130" d="M143.4257425742574 151.31838565022423L184.69900990099006 151.31838565022423L184.69900990099006 93.95515695067263L223.37227722772275 93.95515695067263 " stroke="#616161" stroke-width="2" fill="none" marker-end="url(#SvgjsMarker1131)"></path></g><g id="SvgjsG1133"><path id="SvgjsPath1134" d="M143.4257425742574 151.31838565022423L184.69900990099006 151.31838565022423L184.69900990099006 208.68161434977577L223.37227722772275 208.68161434977577 " stroke="#616161" stroke-width="2" fill="none" marker-end="url(#SvgjsMarker1135)"></path></g><g id="SvgjsG1137"><path id="SvgjsPath1138" d="M392.36831683168316 93.95515695067263L417.4861386138614 93.95515695067263L417.4861386138614 93.95515695067263L440.0039603960396 93.95515695067263 " stroke="#616161" stroke-width="2" fill="none" marker-end="url(#SvgjsMarker1139)"></path></g><g id="SvgjsG1141"><path id="SvgjsPath1142" d="M392.36831683168316 208.68161434977577L417.4861386138614 208.68161434977577L417.4861386138614 208.68161434977577L440.0039603960396 208.68161434977577 " stroke="#616161" stroke-width="2" fill="none" marker-end="url(#SvgjsMarker1143)"></path></g><g id="SvgjsG1145"><path id="SvgjsPath1146" d="M25 25L333.3019801980198 25L333.3019801980198 25L641.6039603960396 25 " stroke-dasharray="8,5" stroke="#323232" stroke-width="2" fill="none" marker-end="url(#SvgjsMarker1147)"></path><rect id="SvgjsRect1149" width="111" height="20" x="277.8019801980198" y="15" fill="#ffffff"></rect><text id="SvgjsText1150" font-family="微软雅黑" text-anchor="middle" font-size="16px" width="111px" fill="#616161" font-weight="400" align="top" lineHeight="20px" font-style="" opacity="1" y="11" transform="rotate(0)"><tspan id="SvgjsTspan1151" dy="20" x="333.3019801980198"><tspan id="SvgjsTspan1152" style="text-decoration:;">模块Mount顺序 </tspan></tspan></text></g><g id="SvgjsG1153" transform="translate(50,332)"><path id="SvgjsPath1154" d="M0 0L550 0L550 271L0 271Z " stroke="rgba(97,97,97,1)" stroke-width="2" fill-opacity="1" fill="#e0e0e0"></path><g id="SvgjsG1155"><text id="SvgjsText1156" font-family="微软雅黑" text-anchor="start" font-size="14px" width="530px" fill="#616161" font-weight="400" align="top" lineHeight="200%" font-style="" opacity="1" y="-8" transform="rotate(0)"><tspan id="SvgjsTspan1157" dy="28" x="10"><tspan id="SvgjsTspan1158" style="text-decoration:;">stage.view</tspan></tspan></text></g></g><g id="SvgjsG1159" transform="translate(68,367)"><path id="SvgjsPath1160" d="M0 0L209 0L209 219L0 219Z " stroke="rgba(97,97,97,1)" stroke-width="2" fill-opacity="1" fill="#f5f5f5"></path><g id="SvgjsG1161"><text id="SvgjsText1162" font-family="微软雅黑" text-anchor="start" font-size="14px" width="189px" fill="#616161" font-weight="400" align="top" lineHeight="200%" font-style="" opacity="1" y="-8" transform="rotate(0)"><tspan id="SvgjsTspan1163" dy="28" x="10"><tspan id="SvgjsTspan1164" style="text-decoration:;">subModule.view</tspan></tspan></text></g></g><g id="SvgjsG1165" transform="translate(305,367.1296296296297)"><path id="SvgjsPath1166" d="M0 0L278.4055911492204 0L278.4055911492204 218.74074074074065L0 218.74074074074065Z " stroke="rgba(97,97,97,1)" stroke-width="2" fill-opacity="1" fill="#f5f5f5"></path><g id="SvgjsG1167"><text id="SvgjsText1168" font-family="微软雅黑" text-anchor="start" font-size="14px" width="259px" fill="#616161" font-weight="400" align="top" lineHeight="200%" font-style="" opacity="1" y="-8" transform="rotate(0)"><tspan id="SvgjsTspan1169" dy="28" x="10"><tspan id="SvgjsTspan1170" style="text-decoration:;">subModule.view</tspan></tspan></text></g></g><g id="SvgjsG1171" transform="translate(328.85765319110317,403)"><path id="SvgjsPath1172" d="M0 0L230.69028476701425 0L230.69028476701425 164L0 164Z " stroke="rgba(97,97,97,1)" stroke-width="2" fill-opacity="1" fill="#ffffff"></path><g id="SvgjsG1173"><text id="SvgjsText1174" font-family="微软雅黑" text-anchor="start" font-size="14px" width="211px" fill="#616161" font-weight="400" align="top" lineHeight="200%" font-style="" opacity="1" y="-8" transform="rotate(0)"><tspan id="SvgjsTspan1175" dy="28" x="10"><tspan id="SvgjsTspan1176" style="text-decoration:;">grandsonModule.view</tspan></tspan></text></g></g><g id="SvgjsG1177" transform="translate(87.2923076923077,403)"><path id="SvgjsPath1178" d="M0 0L170.41538461538462 0L170.41538461538462 164L0 164Z " stroke="rgba(97,97,97,1)" stroke-width="2" fill-opacity="1" fill="#ffffff"></path><g id="SvgjsG1179"><text id="SvgjsText1180" font-family="微软雅黑" text-anchor="start" font-size="14px" width="151px" fill="#616161" font-weight="400" align="top" lineHeight="200%" font-style="" opacity="1" y="-8" transform="rotate(0)"><tspan id="SvgjsTspan1181" dy="28" x="10"><tspan id="SvgjsTspan1182" style="text-decoration:;">grandsonModule.view</tspan></tspan></text></g></g><g id="SvgjsG1183" transform="translate(300,285)"><path id="SvgjsPath1184" d="M0 0L120 0L120 40L0 40Z " stroke="none" fill="none"></path><g id="SvgjsG1185"><text id="SvgjsText1186" font-family="微软雅黑" text-anchor="middle" font-size="16px" width="120px" fill="#616161" font-weight="400" align="middle" lineHeight="125%" font-style="" opacity="1" y="6" transform="rotate(0)"><tspan id="SvgjsTspan1187" dy="20" x="60"><tspan id="SvgjsTspan1188" style="text-decoration:;">模块UI嵌套</tspan></tspan></text></g></g></svg>