<svg id="SvgjsSvg1320" xmlns="http://www.w3.org/2000/svg" version="1.1" xmlns:xlink="http://www.w3.org/1999/xlink" xmlns:svgjs="http://svgjs.com/svgjs" width="782" height="585"><defs id="SvgjsDefs1321"><marker id="SvgjsMarker1336" markerWidth="14" markerHeight="10" refX="4" refY="5" viewBox="0 0 14 10" orient="auto" markerUnits="userSpaceOnUse" stroke-dasharray="0,0"><path id="SvgjsPath1337" d="M14 0L0 5L14 10L14 0 " fill="#616161" stroke="#616161" stroke-width="1"></path></marker><marker id="SvgjsMarker1370" markerWidth="14" markerHeight="10" refX="10" refY="5" viewBox="0 0 14 10" orient="auto" markerUnits="userSpaceOnUse" stroke-dasharray="0,0"><path id="SvgjsPath1371" d="M0 0L14 5L0 10L0 0 " fill="#616161" stroke="#616161" stroke-width="1"></path></marker><marker id="SvgjsMarker1380" markerWidth="14" markerHeight="10" refX="10" refY="5" viewBox="0 0 14 10" orient="auto" markerUnits="userSpaceOnUse" stroke-dasharray="0,0"><path id="SvgjsPath1381" d="M0 0L14 5L0 10L0 0 " fill="#616161" stroke="#616161" stroke-width="1"></path></marker><marker id="SvgjsMarker1384" markerWidth="14" markerHeight="10" refX="10" refY="5" viewBox="0 0 14 10" orient="auto" markerUnits="userSpaceOnUse" stroke-dasharray="0,0"><path id="SvgjsPath1385" d="M0 0L14 5L0 10L0 0 " fill="#616161" stroke="#616161" stroke-width="1"></path></marker><marker id="SvgjsMarker1418" markerWidth="14" markerHeight="10" refX="10" refY="5" viewBox="0 0 14 10" orient="auto" markerUnits="userSpaceOnUse" stroke-dasharray="0,0"><path id="SvgjsPath1419" d="M0 0L14 5L0 10L0 0 " fill="#616161" stroke="#616161" stroke-width="1"></path></marker><marker id="SvgjsMarker1428" markerWidth="14" markerHeight="10" refX="10" refY="5" viewBox="0 0 14 10" orient="auto" markerUnits="userSpaceOnUse" stroke-dasharray="0,0"><path id="SvgjsPath1429" d="M0 0L14 5L0 10L0 0 " fill="#616161" stroke="#616161" stroke-width="1"></path></marker><marker id="SvgjsMarker1432" markerWidth="14" markerHeight="10" refX="10" refY="5" viewBox="0 0 14 10" orient="auto" markerUnits="userSpaceOnUse" stroke-dasharray="0,0"><path id="SvgjsPath1433" d="M0 0L14 5L0 10L0 0 " fill="#616161" stroke="#616161" stroke-width="1"></path></marker><marker id="SvgjsMarker1466" markerWidth="14" markerHeight="10" refX="10" refY="5" viewBox="0 0 14 10" orient="auto" markerUnits="userSpaceOnUse" stroke-dasharray="0,0"><path id="SvgjsPath1467" d="M0 0L14 5L0 10L0 0 " fill="#616161" stroke="#616161" stroke-width="1"></path></marker><marker id="SvgjsMarker1476" markerWidth="14" markerHeight="10" refX="10" refY="5" viewBox="0 0 14 10" orient="auto" markerUnits="userSpaceOnUse" stroke-dasharray="0,0"><path id="SvgjsPath1477" d="M0 0L14 5L0 10L0 0 " fill="#616161" stroke="#616161" stroke-width="1"></path></marker><marker id="SvgjsMarker1480" markerWidth="14" markerHeight="10" refX="10" refY="5" viewBox="0 0 14 10" orient="auto" markerUnits="userSpaceOnUse" stroke-dasharray="0,0"><path id="SvgjsPath1481" d="M0 0L14 5L0 10L0 0 " fill="#616161" stroke="#616161" stroke-width="1"></path></marker><marker id="SvgjsMarker1484" markerWidth="14" markerHeight="10" refX="10" refY="5" viewBox="0 0 14 10" orient="auto" markerUnits="userSpaceOnUse" stroke-dasharray="0,0"><path id="SvgjsPath1485" d="M0 0L14 5L0 10L0 0 " fill="#616161" stroke="#616161" stroke-width="1"></path></marker><marker id="SvgjsMarker1488" markerWidth="14" markerHeight="10" refX="10" refY="5" viewBox="0 0 14 10" orient="auto" markerUnits="userSpaceOnUse" stroke-dasharray="0,0"><path id="SvgjsPath1489" d="M0 0L14 5L0 10L0 0 " fill="#616161" stroke="#616161" stroke-width="1"></path></marker><marker id="SvgjsMarker1492" markerWidth="14" markerHeight="10" refX="10" refY="5" viewBox="0 0 14 10" orient="auto" markerUnits="userSpaceOnUse" stroke-dasharray="0,0"><path id="SvgjsPath1493" d="M0 0L14 5L0 10L0 0 " fill="#616161" stroke="#616161" stroke-width="1"></path></marker><marker id="SvgjsMarker1532" markerWidth="14" markerHeight="10" refX="10" refY="5" viewBox="0 0 14 10" orient="auto" markerUnits="userSpaceOnUse" stroke-dasharray="0,0"><path id="SvgjsPath1533" d="M0 0L14 5L0 10L0 0 " fill="#616161" stroke="#616161" stroke-width="1"></path></marker><marker id="SvgjsMarker1536" markerWidth="14" markerHeight="10" refX="10" refY="5" viewBox="0 0 14 10" orient="auto" markerUnits="userSpaceOnUse" stroke-dasharray="0,0"><path id="SvgjsPath1537" d="M0 0L14 5L0 10L0 0 " fill="#616161" stroke="#616161" stroke-width="1"></path></marker><marker id="SvgjsMarker1540" markerWidth="14" markerHeight="10" refX="10" refY="5" viewBox="0 0 14 10" orient="auto" markerUnits="userSpaceOnUse" stroke-dasharray="0,0"><path id="SvgjsPath1541" d="M0 0L14 5L0 10L0 0 " fill="#616161" stroke="#616161" stroke-width="1"></path></marker><marker id="SvgjsMarker1562" markerWidth="14" markerHeight="10" refX="10" refY="5" viewBox="0 0 14 10" orient="auto" markerUnits="userSpaceOnUse" stroke-dasharray="0,0"><path id="SvgjsPath1563" d="M0 0L14 5L0 10L0 0 " fill="#616161" stroke="#616161" stroke-width="1"></path></marker><marker id="SvgjsMarker1566" markerWidth="14" markerHeight="10" refX="10" refY="5" viewBox="0 0 14 10" orient="auto" markerUnits="userSpaceOnUse" stroke-dasharray="0,0"><path id="SvgjsPath1567" d="M0 0L14 5L0 10L0 0 " fill="#616161" stroke="#616161" stroke-width="1"></path></marker><marker id="SvgjsMarker1570" markerWidth="14" markerHeight="10" refX="10" refY="5" viewBox="0 0 14 10" orient="auto" markerUnits="userSpaceOnUse" stroke-dasharray="0,0"><path id="SvgjsPath1571" d="M0 0L14 5L0 10L0 0 " fill="#616161" stroke="#616161" stroke-width="1"></path></marker><marker id="SvgjsMarker1592" markerWidth="14" markerHeight="10" refX="10" refY="5" viewBox="0 0 14 10" orient="auto" markerUnits="userSpaceOnUse" stroke-dasharray="0,0"><path id="SvgjsPath1593" d="M0 0L14 5L0 10L0 0 " fill="#616161" stroke="#616161" stroke-width="1"></path></marker><marker id="SvgjsMarker1596" markerWidth="14" markerHeight="10" refX="10" refY="5" viewBox="0 0 14 10" orient="auto" markerUnits="userSpaceOnUse" stroke-dasharray="0,0"><path id="SvgjsPath1597" d="M0 0L14 5L0 10L0 0 " fill="#616161" stroke="#616161" stroke-width="1"></path></marker><marker id="SvgjsMarker1600" markerWidth="14" markerHeight="10" refX="10" refY="5" viewBox="0 0 14 10" orient="auto" markerUnits="userSpaceOnUse" stroke-dasharray="0,0"><path id="SvgjsPath1601" d="M0 0L14 5L0 10L0 0 " fill="#616161" stroke="#616161" stroke-width="1"></path></marker></defs><g id="SvgjsG1322" transform="translate(101,153)"><path id="SvgjsPath1323" d="M0 380.5L0 0L126 0L126 380.5Q94.5 359.5 63 380.5Q31.5 401.5 0 380.5Z " stroke="rgba(97,97,97,1)" stroke-width="2" fill-opacity="1" fill="#f5f5f5"></path><g id="SvgjsG1324"><text id="SvgjsText1325" font-family="微软雅黑" text-anchor="middle" font-size="16px" width="126px" fill="#616161" font-weight="400" align="top" lineHeight="200%" font-style="" opacity="1" y="-10" transform="rotate(0)"><tspan id="SvgjsTspan1326" dy="32" x="63"><tspan id="SvgjsTspan1327" style="text-decoration:;">Window</tspan></tspan></text></g></g><g id="SvgjsG1328" transform="translate(336,25)"><path id="SvgjsPath1329" d="M16.666666666666668 0L83.33333333333333 0C105.55555555555556 0 105.55555555555556 50 83.33333333333333 50L16.666666666666668 50C-5.555555555555556 50 -5.555555555555556 0 16.666666666666668 0Z " stroke="rgba(97,97,97,1)" stroke-width="2" fill-opacity="1" fill="#ffffff"></path><g id="SvgjsG1330"><text id="SvgjsText1331" font-family="微软雅黑" text-anchor="middle" font-size="16px" width="80px" fill="#616161" font-weight="400" align="middle" lineHeight="125%" font-style="" opacity="1" y="11" transform="rotate(0)"><tspan id="SvgjsTspan1332" dy="20" x="50"><tspan id="SvgjsTspan1333" style="text-decoration:;">Router</tspan></tspan></text></g></g><g id="SvgjsG1334"><path id="SvgjsPath1335" d="M91 134L386 134L386 134L681 134 " stroke-dasharray="8,5" stroke="#616161" stroke-width="2" fill="none" marker-start="url(#SvgjsMarker1336)"></path></g><g id="SvgjsG1338" transform="translate(89,98)"><path id="SvgjsPath1339" d="M0 0L165 0L165 32L0 32Z " stroke="none" fill="none"></path><g id="SvgjsG1340"><text id="SvgjsText1341" font-family="微软雅黑" text-anchor="middle" font-size="14px" width="165px" fill="#616161" font-weight="400" align="middle" lineHeight="125%" font-style="" opacity="1" y="4.75" transform="rotate(0)"><tspan id="SvgjsTspan1342" dy="17" x="82.5"><tspan id="SvgjsTspan1343" style="text-decoration:;">WindowHistoryStack</tspan></tspan></text></g></g><g id="SvgjsG1344" transform="translate(114,318)"><path id="SvgjsPath1345" d="M0 8.333333333333334Q25 25 50 8.333333333333334Q75 -8.333333333333334 100 8.333333333333334L100 61.666666666666664Q75 45 50 61.666666666666664Q25 78.33333333333333 0 61.666666666666664L0 8.333333333333334Z " stroke="rgba(97,97,97,1)" stroke-width="2" fill-opacity="1" fill="#616161"></path><g id="SvgjsG1346"><text id="SvgjsText1347" font-family="微软雅黑" text-anchor="middle" font-size="16px" width="100px" fill="#ffffff" font-weight="400" align="top" lineHeight="300%" font-style="" opacity="1" y="-11" transform="rotate(0)"><tspan id="SvgjsTspan1348" dy="48" x="50"><tspan id="SvgjsTspan1349" style="text-decoration:;">Page</tspan></tspan></text></g></g><g id="SvgjsG1350" transform="translate(114,384)"><path id="SvgjsPath1351" d="M0 8.333333333333334Q25 25 50 8.333333333333334Q75 -8.333333333333334 100 8.333333333333334L100 61.666666666666664Q75 45 50 61.666666666666664Q25 78.33333333333333 0 61.666666666666664L0 8.333333333333334Z " stroke="rgba(97,97,97,1)" stroke-width="2" fill-opacity="1" fill="#ffffff"></path><g id="SvgjsG1352"><text id="SvgjsText1353" font-family="微软雅黑" text-anchor="middle" font-size="16px" width="100px" fill="#616161" font-weight="400" align="middle" lineHeight="125%" font-style="" opacity="1" y="21" transform="rotate(0)"><tspan id="SvgjsTspan1354" dy="20" x="50"><tspan id="SvgjsTspan1355" style="text-decoration:;">Page</tspan></tspan></text></g></g><g id="SvgjsG1356" transform="translate(114,450)"><path id="SvgjsPath1357" d="M0 8.333333333333334Q25 25 50 8.333333333333334Q75 -8.333333333333334 100 8.333333333333334L100 61.666666666666664Q75 45 50 61.666666666666664Q25 78.33333333333333 0 61.666666666666664L0 8.333333333333334Z " stroke="rgba(97,97,97,1)" stroke-width="2" fill-opacity="1" fill="#ffffff"></path><g id="SvgjsG1358"><text id="SvgjsText1359" font-family="微软雅黑" text-anchor="middle" font-size="16px" width="100px" fill="#616161" font-weight="400" align="middle" lineHeight="125%" font-style="" opacity="1" y="21" transform="rotate(0)"><tspan id="SvgjsTspan1360" dy="20" x="50"><tspan id="SvgjsTspan1361" style="text-decoration:;">Page</tspan></tspan></text></g></g><g id="SvgjsG1362" transform="translate(129,255)"><path id="SvgjsPath1363" d="M0 17.5C0 -5.833333333333333 70 -5.833333333333333 70 17.5C70 40.833333333333336 0 40.833333333333336 0 17.5Z " stroke="rgba(97,97,97,1)" stroke-width="2" fill-opacity="1" fill="#616161"></path><g id="SvgjsG1364"><text id="SvgjsText1365" font-family="微软雅黑" text-anchor="middle" font-size="14px" width="50px" fill="#ffffff" font-weight="400" align="middle" lineHeight="125%" font-style="" opacity="1" y="6.25" transform="rotate(0)"><tspan id="SvgjsTspan1366" dy="17" x="35"><tspan id="SvgjsTspan1367" style="text-decoration:;">Store</tspan></tspan></text></g></g><g id="SvgjsG1368"><path id="SvgjsPath1369" d="M241 537L241 431L241 431L241 325 " stroke-dasharray="8,5" stroke="#616161" stroke-width="2" fill="none" marker-end="url(#SvgjsMarker1370)"></path></g><g id="SvgjsG1372" transform="translate(129,196)"><path id="SvgjsPath1373" d="M0 17.5L35 0L70 17.5L35 35Z " stroke="rgba(97,97,97,1)" stroke-width="2" fill-opacity="1" fill="#616161"></path><g id="SvgjsG1374"><text id="SvgjsText1375" font-family="微软雅黑" text-anchor="middle" font-size="14px" width="50px" fill="#ffffff" font-weight="400" align="middle" lineHeight="125%" font-style="" opacity="1" y="6.425000000000001" transform="rotate(0)"><tspan id="SvgjsTspan1376" dy="17" x="35"><tspan id="SvgjsTspan1377" style="text-decoration:;">View</tspan></tspan></text></g></g><g id="SvgjsG1378"><path id="SvgjsPath1379" d="M164 325.3333333333333L164 308.16666666666663L164 308.16666666666663L164 293.6 " stroke="#616161" stroke-width="2" fill="none" marker-end="url(#SvgjsMarker1380)"></path></g><g id="SvgjsG1382"><path id="SvgjsPath1383" d="M164 254L164 243L164 243L164 234.60000000000002 " stroke="#616161" stroke-width="2" fill="none" marker-end="url(#SvgjsMarker1384)"></path></g><g id="SvgjsG1386" transform="translate(323,153)"><path id="SvgjsPath1387" d="M0 380.5L0 0L126 0L126 380.5Q94.5 359.5 63 380.5Q31.5 401.5 0 380.5Z " stroke="rgba(97,97,97,1)" stroke-width="2" fill-opacity="1" fill="#f5f5f5"></path><g id="SvgjsG1388"><text id="SvgjsText1389" font-family="微软雅黑" text-anchor="middle" font-size="16px" width="126px" fill="#616161" font-weight="400" align="top" lineHeight="200%" font-style="" opacity="1" y="-10" transform="rotate(0)"><tspan id="SvgjsTspan1390" dy="32" x="63"><tspan id="SvgjsTspan1391" style="text-decoration:;">Window</tspan></tspan></text></g></g><g id="SvgjsG1392" transform="translate(336,318)"><path id="SvgjsPath1393" d="M0 8.333333333333334Q25 25 50 8.333333333333334Q75 -8.333333333333334 100 8.333333333333334L100 61.666666666666664Q75 45 50 61.666666666666664Q25 78.33333333333333 0 61.666666666666664L0 8.333333333333334Z " stroke="rgba(97,97,97,1)" stroke-width="2" fill-opacity="1" fill="#e0e0e0"></path><g id="SvgjsG1394"><text id="SvgjsText1395" font-family="微软雅黑" text-anchor="middle" font-size="16px" width="100px" fill="#616161" font-weight="400" align="top" lineHeight="300%" font-style="" opacity="1" y="-11" transform="rotate(0)"><tspan id="SvgjsTspan1396" dy="48" x="50"><tspan id="SvgjsTspan1397" style="text-decoration:;">Page</tspan></tspan></text></g></g><g id="SvgjsG1398" transform="translate(336,384)"><path id="SvgjsPath1399" d="M0 8.333333333333334Q25 25 50 8.333333333333334Q75 -8.333333333333334 100 8.333333333333334L100 61.666666666666664Q75 45 50 61.666666666666664Q25 78.33333333333333 0 61.666666666666664L0 8.333333333333334Z " stroke="rgba(97,97,97,1)" stroke-width="2" fill-opacity="1" fill="#ffffff"></path><g id="SvgjsG1400"><text id="SvgjsText1401" font-family="微软雅黑" text-anchor="middle" font-size="16px" width="100px" fill="#616161" font-weight="400" align="middle" lineHeight="125%" font-style="" opacity="1" y="21" transform="rotate(0)"><tspan id="SvgjsTspan1402" dy="20" x="50"><tspan id="SvgjsTspan1403" style="text-decoration:;">Page</tspan></tspan></text></g></g><g id="SvgjsG1404" transform="translate(336,450)"><path id="SvgjsPath1405" d="M0 8.333333333333334Q25 25 50 8.333333333333334Q75 -8.333333333333334 100 8.333333333333334L100 61.666666666666664Q75 45 50 61.666666666666664Q25 78.33333333333333 0 61.666666666666664L0 8.333333333333334Z " stroke="rgba(97,97,97,1)" stroke-width="2" fill-opacity="1" fill="#ffffff"></path><g id="SvgjsG1406"><text id="SvgjsText1407" font-family="微软雅黑" text-anchor="middle" font-size="16px" width="100px" fill="#616161" font-weight="400" align="middle" lineHeight="125%" font-style="" opacity="1" y="21" transform="rotate(0)"><tspan id="SvgjsTspan1408" dy="20" x="50"><tspan id="SvgjsTspan1409" style="text-decoration:;">Page</tspan></tspan></text></g></g><g id="SvgjsG1410" transform="translate(351,255)"><path id="SvgjsPath1411" d="M0 17.5C0 -5.833333333333333 70 -5.833333333333333 70 17.5C70 40.833333333333336 0 40.833333333333336 0 17.5Z " stroke="rgba(97,97,97,1)" stroke-width="2" fill-opacity="1" fill="#e0e0e0"></path><g id="SvgjsG1412"><text id="SvgjsText1413" font-family="微软雅黑" text-anchor="middle" font-size="14px" width="50px" fill="#616161" font-weight="400" align="middle" lineHeight="125%" font-style="" opacity="1" y="6.25" transform="rotate(0)"><tspan id="SvgjsTspan1414" dy="17" x="35"><tspan id="SvgjsTspan1415" style="text-decoration:;">Store</tspan></tspan></text></g></g><g id="SvgjsG1416"><path id="SvgjsPath1417" d="M463 537L463 431L463 431L463 325 " stroke-dasharray="8,5" stroke="#616161" stroke-width="2" fill="none" marker-end="url(#SvgjsMarker1418)"></path></g><g id="SvgjsG1420" transform="translate(351,196)"><path id="SvgjsPath1421" d="M0 17.5L35 0L70 17.5L35 35Z " stroke="rgba(97,97,97,1)" stroke-width="2" fill-opacity="1" fill="#e0e0e0"></path><g id="SvgjsG1422"><text id="SvgjsText1423" font-family="微软雅黑" text-anchor="middle" font-size="14px" width="50px" fill="#616161" font-weight="400" align="middle" lineHeight="125%" font-style="" opacity="1" y="6.425000000000001" transform="rotate(0)"><tspan id="SvgjsTspan1424" dy="17" x="35"><tspan id="SvgjsTspan1425" style="text-decoration:;">View</tspan></tspan></text></g></g><g id="SvgjsG1426"><path id="SvgjsPath1427" d="M386 325.3333333333333L386 308.16666666666663L386 308.16666666666663L386 293.6 " stroke="#616161" stroke-width="2" fill="none" marker-end="url(#SvgjsMarker1428)"></path></g><g id="SvgjsG1430"><path id="SvgjsPath1431" d="M386 254L386 243L386 243L386 234.60000000000002 " stroke="#616161" stroke-width="2" fill="none" marker-end="url(#SvgjsMarker1432)"></path></g><g id="SvgjsG1434" transform="translate(545,153)"><path id="SvgjsPath1435" d="M0 380.5L0 0L126 0L126 380.5Q94.5 359.5 63 380.5Q31.5 401.5 0 380.5Z " stroke="rgba(97,97,97,1)" stroke-width="2" fill-opacity="1" fill="#f5f5f5"></path><g id="SvgjsG1436"><text id="SvgjsText1437" font-family="微软雅黑" text-anchor="middle" font-size="16px" width="126px" fill="#616161" font-weight="400" align="top" lineHeight="200%" font-style="" opacity="1" y="-10" transform="rotate(0)"><tspan id="SvgjsTspan1438" dy="32" x="63"><tspan id="SvgjsTspan1439" style="text-decoration:;">Window</tspan></tspan></text></g></g><g id="SvgjsG1440" transform="translate(558,318)"><path id="SvgjsPath1441" d="M0 8.333333333333334Q25 25 50 8.333333333333334Q75 -8.333333333333334 100 8.333333333333334L100 61.666666666666664Q75 45 50 61.666666666666664Q25 78.33333333333333 0 61.666666666666664L0 8.333333333333334Z " stroke="rgba(97,97,97,1)" stroke-width="2" fill-opacity="1" fill="#e0e0e0"></path><g id="SvgjsG1442"><text id="SvgjsText1443" font-family="微软雅黑" text-anchor="middle" font-size="16px" width="100px" fill="#616161" font-weight="400" align="top" lineHeight="300%" font-style="" opacity="1" y="-11" transform="rotate(0)"><tspan id="SvgjsTspan1444" dy="48" x="50"><tspan id="SvgjsTspan1445" style="text-decoration:;">Page</tspan></tspan></text></g></g><g id="SvgjsG1446" transform="translate(558,384)"><path id="SvgjsPath1447" d="M0 8.333333333333334Q25 25 50 8.333333333333334Q75 -8.333333333333334 100 8.333333333333334L100 61.666666666666664Q75 45 50 61.666666666666664Q25 78.33333333333333 0 61.666666666666664L0 8.333333333333334Z " stroke="rgba(97,97,97,1)" stroke-width="2" fill-opacity="1" fill="#ffffff"></path><g id="SvgjsG1448"><text id="SvgjsText1449" font-family="微软雅黑" text-anchor="middle" font-size="16px" width="100px" fill="#616161" font-weight="400" align="middle" lineHeight="125%" font-style="" opacity="1" y="21" transform="rotate(0)"><tspan id="SvgjsTspan1450" dy="20" x="50"><tspan id="SvgjsTspan1451" style="text-decoration:;">Page</tspan></tspan></text></g></g><g id="SvgjsG1452" transform="translate(558,450)"><path id="SvgjsPath1453" d="M0 8.333333333333334Q25 25 50 8.333333333333334Q75 -8.333333333333334 100 8.333333333333334L100 61.666666666666664Q75 45 50 61.666666666666664Q25 78.33333333333333 0 61.666666666666664L0 8.333333333333334Z " stroke="rgba(97,97,97,1)" stroke-width="2" fill-opacity="1" fill="#ffffff"></path><g id="SvgjsG1454"><text id="SvgjsText1455" font-family="微软雅黑" text-anchor="middle" font-size="16px" width="100px" fill="#616161" font-weight="400" align="middle" lineHeight="125%" font-style="" opacity="1" y="21" transform="rotate(0)"><tspan id="SvgjsTspan1456" dy="20" x="50"><tspan id="SvgjsTspan1457" style="text-decoration:;">Page</tspan></tspan></text></g></g><g id="SvgjsG1458" transform="translate(573,255)"><path id="SvgjsPath1459" d="M0 17.5C0 -5.833333333333333 70 -5.833333333333333 70 17.5C70 40.833333333333336 0 40.833333333333336 0 17.5Z " stroke="rgba(97,97,97,1)" stroke-width="2" fill-opacity="1" fill="#e0e0e0"></path><g id="SvgjsG1460"><text id="SvgjsText1461" font-family="微软雅黑" text-anchor="middle" font-size="14px" width="50px" fill="#616161" font-weight="400" align="middle" lineHeight="125%" font-style="" opacity="1" y="6.25" transform="rotate(0)"><tspan id="SvgjsTspan1462" dy="17" x="35"><tspan id="SvgjsTspan1463" style="text-decoration:;">Store</tspan></tspan></text></g></g><g id="SvgjsG1464"><path id="SvgjsPath1465" d="M685 537L685 431L685 431L685 325 " stroke-dasharray="8,5" stroke="#616161" stroke-width="2" fill="none" marker-end="url(#SvgjsMarker1466)"></path></g><g id="SvgjsG1468" transform="translate(573,196)"><path id="SvgjsPath1469" d="M0 17.5L35 0L70 17.5L35 35Z " stroke="rgba(97,97,97,1)" stroke-width="2" fill-opacity="1" fill="#e0e0e0"></path><g id="SvgjsG1470"><text id="SvgjsText1471" font-family="微软雅黑" text-anchor="middle" font-size="14px" width="50px" fill="#616161" font-weight="400" align="middle" lineHeight="125%" font-style="" opacity="1" y="6.425000000000001" transform="rotate(0)"><tspan id="SvgjsTspan1472" dy="17" x="35"><tspan id="SvgjsTspan1473" style="text-decoration:;">View</tspan></tspan></text></g></g><g id="SvgjsG1474"><path id="SvgjsPath1475" d="M608 325.3333333333333L608 308.16666666666663L608 308.16666666666663L608 293.6 " stroke="#616161" stroke-width="2" fill="none" marker-end="url(#SvgjsMarker1476)"></path></g><g id="SvgjsG1478"><path id="SvgjsPath1479" d="M608 254L608 243L608 243L608 234.60000000000002 " stroke="#616161" stroke-width="2" fill="none" marker-end="url(#SvgjsMarker1480)"></path></g><g id="SvgjsG1482"><path id="SvgjsPath1483" d="M386 76L386 149.4 " stroke="#616161" stroke-width="2" fill="none" marker-end="url(#SvgjsMarker1484)"></path></g><g id="SvgjsG1486"><path id="SvgjsPath1487" d="M386.94346013965117 75.33148599501256L604.6035434972559 151.80665041795478 " stroke="#616161" stroke-width="2" fill="none" marker-end="url(#SvgjsMarker1488)"></path></g><g id="SvgjsG1490"><path id="SvgjsPath1491" d="M385.05653986034883 75.33148599501256L167.39645650274406 151.80665041795478 " stroke="#616161" stroke-width="2" fill="none" marker-end="url(#SvgjsMarker1492)"></path></g><g id="SvgjsG1494" transform="translate(126.75,350)"><path id="SvgjsPath1495" d="M0 0L74.5 0L74.5 28L0 28Z " stroke="none" fill="none"></path><g id="SvgjsG1496"><text id="SvgjsText1497" font-family="微软雅黑" text-anchor="middle" font-size="13px" width="75px" fill="#e0e0e0" font-weight="700" align="middle" lineHeight="125%" font-style="" opacity="1" y="3.375" transform="rotate(0)"><tspan id="SvgjsTspan1498" dy="16" x="37.5"><tspan id="SvgjsTspan1499" style="text-decoration:;">Current</tspan></tspan></text></g></g><g id="SvgjsG1500" transform="translate(348.75,350)"><path id="SvgjsPath1501" d="M0 0L74.5 0L74.5 28L0 28Z " stroke="none" fill="none"></path><g id="SvgjsG1502"><text id="SvgjsText1503" font-family="微软雅黑" text-anchor="middle" font-size="13px" width="75px" fill="#9e9e9e" font-weight="700" align="middle" lineHeight="125%" font-style="" opacity="1" y="3.375" transform="rotate(0)"><tspan id="SvgjsTspan1504" dy="16" x="37.5"><tspan id="SvgjsTspan1505" style="text-decoration:;">Current</tspan></tspan></text></g></g><g id="SvgjsG1506" transform="translate(570.75,350)"><path id="SvgjsPath1507" d="M0 0L74.5 0L74.5 28L0 28Z " stroke="none" fill="none"></path><g id="SvgjsG1508"><text id="SvgjsText1509" font-family="微软雅黑" text-anchor="middle" font-size="13px" width="75px" fill="#9e9e9e" font-weight="700" align="middle" lineHeight="125%" font-style="" opacity="1" y="3.375" transform="rotate(0)"><tspan id="SvgjsTspan1510" dy="16" x="37.5"><tspan id="SvgjsTspan1511" style="text-decoration:;">Current</tspan></tspan></text></g></g><g id="SvgjsG1512" transform="translate(240,231.5)"><path id="SvgjsPath1513" d="M7.833333333333333 0L62.166666666666664 0C72.61111111111111 0 72.61111111111111 23.5 62.166666666666664 23.5L7.833333333333333 23.5C-2.611111111111111 23.5 -2.611111111111111 0 7.833333333333333 0Z " stroke="rgba(97,97,97,1)" stroke-width="2" fill-opacity="1" fill="#616161"></path><g id="SvgjsG1514"><text id="SvgjsText1515" font-family="微软雅黑" text-anchor="middle" font-size="14px" width="50px" fill="#ffffff" font-weight="400" align="middle" lineHeight="125%" font-style="" opacity="1" y="0.5" transform="rotate(0)"><tspan id="SvgjsTspan1516" dy="17" x="35"><tspan id="SvgjsTspan1517" style="text-decoration:;">Model</tspan></tspan></text></g></g><g id="SvgjsG1518" transform="translate(240,260.75)"><path id="SvgjsPath1519" d="M7.833333333333333 0L62.166666666666664 0C72.61111111111111 0 72.61111111111111 23.5 62.166666666666664 23.5L7.833333333333333 23.5C-2.611111111111111 23.5 -2.611111111111111 0 7.833333333333333 0Z " stroke="rgba(97,97,97,1)" stroke-width="2" fill-opacity="1" fill="#616161"></path><g id="SvgjsG1520"><text id="SvgjsText1521" font-family="微软雅黑" text-anchor="middle" font-size="14px" width="50px" fill="#ffffff" font-weight="400" align="middle" lineHeight="125%" font-style="" opacity="1" y="0.5" transform="rotate(0)"><tspan id="SvgjsTspan1522" dy="17" x="35"><tspan id="SvgjsTspan1523" style="text-decoration:;">Model</tspan></tspan></text></g></g><g id="SvgjsG1524" transform="translate(240,290)"><path id="SvgjsPath1525" d="M7.833333333333333 0L62.166666666666664 0C72.61111111111111 0 72.61111111111111 23.5 62.166666666666664 23.5L7.833333333333333 23.5C-2.611111111111111 23.5 -2.611111111111111 0 7.833333333333333 0Z " stroke="rgba(97,97,97,1)" stroke-width="2" fill-opacity="1" fill="#616161"></path><g id="SvgjsG1526"><text id="SvgjsText1527" font-family="微软雅黑" text-anchor="middle" font-size="14px" width="50px" fill="#ffffff" font-weight="400" align="middle" lineHeight="125%" font-style="" opacity="1" y="0.5" transform="rotate(0)"><tspan id="SvgjsTspan1528" dy="17" x="35"><tspan id="SvgjsTspan1529" style="text-decoration:;">Model</tspan></tspan></text></g></g><g id="SvgjsG1530"><path id="SvgjsPath1531" d="M239.18593127009677 301.1692314548861L201.9306474276517 274.59076676241006 " stroke="#616161" stroke-width="2" fill="none" marker-end="url(#SvgjsMarker1532)"></path></g><g id="SvgjsG1534"><path id="SvgjsPath1535" d="M239 272.5L202.60000000000002 272.5 " stroke="#616161" stroke-width="2" fill="none" marker-end="url(#SvgjsMarker1536)"></path></g><g id="SvgjsG1538"><path id="SvgjsPath1539" d="M239.18593127009677 243.83076854511393L201.9306474276517 270.40923323758994 " stroke="#616161" stroke-width="2" fill="none" marker-end="url(#SvgjsMarker1540)"></path></g><g id="SvgjsG1542" transform="translate(464.5,231.5)"><path id="SvgjsPath1543" d="M7.833333333333333 0L62.166666666666664 0C72.61111111111111 0 72.61111111111111 23.5 62.166666666666664 23.5L7.833333333333333 23.5C-2.611111111111111 23.5 -2.611111111111111 0 7.833333333333333 0Z " stroke="rgba(97,97,97,1)" stroke-width="2" fill-opacity="1" fill="#f5f5f5"></path><g id="SvgjsG1544"><text id="SvgjsText1545" font-family="微软雅黑" text-anchor="middle" font-size="14px" width="50px" fill="#616161" font-weight="400" align="middle" lineHeight="125%" font-style="" opacity="1" y="0.5" transform="rotate(0)"><tspan id="SvgjsTspan1546" dy="17" x="35"><tspan id="SvgjsTspan1547" style="text-decoration:;">Model</tspan></tspan></text></g></g><g id="SvgjsG1548" transform="translate(464.5,260.75)"><path id="SvgjsPath1549" d="M7.833333333333333 0L62.166666666666664 0C72.61111111111111 0 72.61111111111111 23.5 62.166666666666664 23.5L7.833333333333333 23.5C-2.611111111111111 23.5 -2.611111111111111 0 7.833333333333333 0Z " stroke="rgba(97,97,97,1)" stroke-width="2" fill-opacity="1" fill="#f5f5f5"></path><g id="SvgjsG1550"><text id="SvgjsText1551" font-family="微软雅黑" text-anchor="middle" font-size="14px" width="50px" fill="#616161" font-weight="400" align="middle" lineHeight="125%" font-style="" opacity="1" y="0.5" transform="rotate(0)"><tspan id="SvgjsTspan1552" dy="17" x="35"><tspan id="SvgjsTspan1553" style="text-decoration:;">Model</tspan></tspan></text></g></g><g id="SvgjsG1554" transform="translate(464.5,290)"><path id="SvgjsPath1555" d="M7.833333333333333 0L62.166666666666664 0C72.61111111111111 0 72.61111111111111 23.5 62.166666666666664 23.5L7.833333333333333 23.5C-2.611111111111111 23.5 -2.611111111111111 0 7.833333333333333 0Z " stroke="rgba(97,97,97,1)" stroke-width="2" fill-opacity="1" fill="#f5f5f5"></path><g id="SvgjsG1556"><text id="SvgjsText1557" font-family="微软雅黑" text-anchor="middle" font-size="14px" width="50px" fill="#616161" font-weight="400" align="middle" lineHeight="125%" font-style="" opacity="1" y="0.5" transform="rotate(0)"><tspan id="SvgjsTspan1558" dy="17" x="35"><tspan id="SvgjsTspan1559" style="text-decoration:;">Model</tspan></tspan></text></g></g><g id="SvgjsG1560"><path id="SvgjsPath1561" d="M463.67015743067316 301.1920024102802L423.9874332495766 274.50879132299116 " stroke="#616161" stroke-width="2" fill="none" marker-end="url(#SvgjsMarker1562)"></path></g><g id="SvgjsG1564"><path id="SvgjsPath1565" d="M463.5 272.5L424.6 272.5 " stroke="#616161" stroke-width="2" fill="none" marker-end="url(#SvgjsMarker1566)"></path></g><g id="SvgjsG1568"><path id="SvgjsPath1569" d="M463.67015743067316 243.80799758971978L423.9874332495766 270.49120867700884 " stroke="#616161" stroke-width="2" fill="none" marker-end="url(#SvgjsMarker1570)"></path></g><g id="SvgjsG1572" transform="translate(687,231.5)"><path id="SvgjsPath1573" d="M7.833333333333333 0L62.166666666666664 0C72.61111111111111 0 72.61111111111111 23.5 62.166666666666664 23.5L7.833333333333333 23.5C-2.611111111111111 23.5 -2.611111111111111 0 7.833333333333333 0Z " stroke="rgba(97,97,97,1)" stroke-width="2" fill-opacity="1" fill="#f5f5f5"></path><g id="SvgjsG1574"><text id="SvgjsText1575" font-family="微软雅黑" text-anchor="middle" font-size="14px" width="50px" fill="#616161" font-weight="400" align="middle" lineHeight="125%" font-style="" opacity="1" y="0.5" transform="rotate(0)"><tspan id="SvgjsTspan1576" dy="17" x="35"><tspan id="SvgjsTspan1577" style="text-decoration:;">Model</tspan></tspan></text></g></g><g id="SvgjsG1578" transform="translate(687,260.75)"><path id="SvgjsPath1579" d="M7.833333333333333 0L62.166666666666664 0C72.61111111111111 0 72.61111111111111 23.5 62.166666666666664 23.5L7.833333333333333 23.5C-2.611111111111111 23.5 -2.611111111111111 0 7.833333333333333 0Z " stroke="rgba(97,97,97,1)" stroke-width="2" fill-opacity="1" fill="#f5f5f5"></path><g id="SvgjsG1580"><text id="SvgjsText1581" font-family="微软雅黑" text-anchor="middle" font-size="14px" width="50px" fill="#616161" font-weight="400" align="middle" lineHeight="125%" font-style="" opacity="1" y="0.5" transform="rotate(0)"><tspan id="SvgjsTspan1582" dy="17" x="35"><tspan id="SvgjsTspan1583" style="text-decoration:;">Model</tspan></tspan></text></g></g><g id="SvgjsG1584" transform="translate(687,290)"><path id="SvgjsPath1585" d="M7.833333333333333 0L62.166666666666664 0C72.61111111111111 0 72.61111111111111 23.5 62.166666666666664 23.5L7.833333333333333 23.5C-2.611111111111111 23.5 -2.611111111111111 0 7.833333333333333 0Z " stroke="rgba(97,97,97,1)" stroke-width="2" fill-opacity="1" fill="#f5f5f5"></path><g id="SvgjsG1586"><text id="SvgjsText1587" font-family="微软雅黑" text-anchor="middle" font-size="14px" width="50px" fill="#616161" font-weight="400" align="middle" lineHeight="125%" font-style="" opacity="1" y="0.5" transform="rotate(0)"><tspan id="SvgjsTspan1588" dy="17" x="35"><tspan id="SvgjsTspan1589" style="text-decoration:;">Model</tspan></tspan></text></g></g><g id="SvgjsG1590"><path id="SvgjsPath1591" d="M686.1672224697638 301.19639221001347L645.9979991088502 274.4929880439515 " stroke="#616161" stroke-width="2" fill="none" marker-end="url(#SvgjsMarker1592)"></path></g><g id="SvgjsG1594"><path id="SvgjsPath1595" d="M686 272.5L646.6 272.5 " stroke="#616161" stroke-width="2" fill="none" marker-end="url(#SvgjsMarker1596)"></path></g><g id="SvgjsG1598"><path id="SvgjsPath1599" d="M686.1672224697638 243.80360778998653L645.9979991088502 270.5070119560485 " stroke="#616161" stroke-width="2" fill="none" marker-end="url(#SvgjsMarker1600)"></path></g><g id="SvgjsG1602" transform="translate(25,212)"><path id="SvgjsPath1603" d="M69 0Q62.1 0 62.1 9L62.1 69Q62.1 78 47 78Q62.1 78 62.1 87L62.1 147Q62.1 156 69 156 " stroke="rgba(97,97,97,1)" stroke-width="2" fill="none"></path><path id="SvgjsPath1604" d="M0 0L69 0L69 156L0 156Z " stroke="none" fill="none"></path><g id="SvgjsG1605"><text id="SvgjsText1606" font-family="微软雅黑" text-anchor="end" font-size="13px" width="42px" fill="#616161" font-weight="400" align="middle" lineHeight="125%" font-style="" opacity="1" y="59.375" transform="rotate(0)"><tspan id="SvgjsTspan1607" dy="16" x="42"><tspan id="SvgjsTspan1608" style="text-decoration:;">Active</tspan></tspan><tspan id="SvgjsTspan1609" dy="16" x="42"><tspan id="SvgjsTspan1610" style="text-decoration:;">Page</tspan></tspan></text></g></g><g id="SvgjsG1611" transform="translate(127.25,170)"><path id="SvgjsPath1612" d="M0 0L74.5 0L74.5 28L0 28Z " stroke="none" fill="none"></path><g id="SvgjsG1613"><text id="SvgjsText1614" font-family="微软雅黑" text-anchor="middle" font-size="13px" width="75px" fill="#9e9e9e" font-weight="700" align="middle" lineHeight="125%" font-style="" opacity="1" y="3.375" transform="rotate(0)"><tspan id="SvgjsTspan1615" dy="16" x="37.5"><tspan id="SvgjsTspan1616" style="text-decoration:;">Current</tspan></tspan></text></g></g><g id="SvgjsG1617" transform="translate(181.5,538)"><path id="SvgjsPath1618" d="M0 0L119.5 0L119.5 22L0 22Z " stroke="none" fill="none"></path><g id="SvgjsG1619"><text id="SvgjsText1620" font-family="微软雅黑" text-anchor="middle" font-size="14px" width="120px" fill="#616161" font-weight="400" align="middle" lineHeight="125%" font-style="" opacity="1" y="-0.25" transform="rotate(0)"><tspan id="SvgjsTspan1621" dy="17" x="60"><tspan id="SvgjsTspan1622" style="text-decoration:;">PageHistoryStack</tspan></tspan></text></g></g><g id="SvgjsG1623" transform="translate(403.5,538)"><path id="SvgjsPath1624" d="M0 0L119.5 0L119.5 22L0 22Z " stroke="none" fill="none"></path><g id="SvgjsG1625"><text id="SvgjsText1626" font-family="微软雅黑" text-anchor="middle" font-size="14px" width="120px" fill="#616161" font-weight="400" align="middle" lineHeight="125%" font-style="" opacity="1" y="-0.25" transform="rotate(0)"><tspan id="SvgjsTspan1627" dy="17" x="60"><tspan id="SvgjsTspan1628" style="text-decoration:;">PageHistoryStack</tspan></tspan></text></g></g><g id="SvgjsG1629" transform="translate(625.5,538)"><path id="SvgjsPath1630" d="M0 0L119.5 0L119.5 22L0 22Z " stroke="none" fill="none"></path><g id="SvgjsG1631"><text id="SvgjsText1632" font-family="微软雅黑" text-anchor="middle" font-size="14px" width="120px" fill="#616161" font-weight="400" align="middle" lineHeight="125%" font-style="" opacity="1" y="-0.25" transform="rotate(0)"><tspan id="SvgjsTspan1633" dy="17" x="60"><tspan id="SvgjsTspan1634" style="text-decoration:;">PageHistoryStack</tspan></tspan></text></g></g></svg>