<svg id="SvgjsSvg1000" xmlns="http://www.w3.org/2000/svg" version="1.1" xmlns:xlink="http://www.w3.org/1999/xlink" xmlns:svgjs="http://svgjs.com/svgjs" width="458.5" height="270"><defs id="SvgjsDefs1001"><marker id="SvgjsMarker1027" markerWidth="14" markerHeight="10" refX="10" refY="5" viewBox="0 0 14 10" orient="auto" markerUnits="userSpaceOnUse" stroke-dasharray="0,0"><path id="SvgjsPath1028" d="M0 0L14 5L0 10L0 0 " fill="#616161" stroke="#616161" stroke-width="1"></path></marker><marker id="SvgjsMarker1031" markerWidth="14" markerHeight="10" refX="10" refY="5" viewBox="0 0 14 10" orient="auto" markerUnits="userSpaceOnUse" stroke-dasharray="0,0"><path id="SvgjsPath1032" d="M0 0L14 5L0 10L0 0 " fill="#616161" stroke="#616161" stroke-width="1"></path></marker></defs><g id="SvgjsG1007" transform="translate(194.5,25)"><path id="SvgjsPath1008" d="M0 0L238.5 0L238.5 220L0 220Z " stroke-dasharray="10,6" stroke="rgba(97,97,97,1)" stroke-width="2" fill-opacity="1" fill="#f5f5f5"></path><g id="SvgjsG1009"><text id="SvgjsText1010" font-family="微软雅黑" text-anchor="end" font-size="14px" width="219px" fill="#9e9e9e" font-weight="400" align="middle" lineHeight="125%" font-style="" opacity="1" y="98.75" transform="rotate(0)"><tspan id="SvgjsTspan1011" dy="17" x="229"><tspan id="SvgjsTspan1012" style="text-decoration:;">App Internal   </tspan></tspan></text></g></g><g id="SvgjsG1013" transform="translate(25,106)"><path id="SvgjsPath1014" d="M14.879999999999999 41.3C-12.4 29.5 4.96 20.65 11.16 17.7C8.680000000000001 2.95 39.68 0 52.08 5.9C62 -2.95 93 0 93 8.85C117.8 5.9 127.72 17.7 117.8 32.45C126.48 44.25 117.8 59 89.28 53.1C83.08 60.77 58.279999999999994 60.77 52.08 53.1C39.68 59 14.879999999999999 56.05 14.879999999999999 41.3Z " stroke="rgba(97,97,97,1)" stroke-width="2" fill-opacity="1" fill="#ffffff"></path><g id="SvgjsG1015"><text id="SvgjsText1016" font-family="微软雅黑" text-anchor="middle" font-size="16px" width="104px" fill="#616161" font-weight="400" align="middle" lineHeight="125%" font-style="" opacity="1" y="15.5" transform="rotate(0)"><tspan id="SvgjsTspan1017" dy="20" x="62"><tspan id="SvgjsTspan1018" style="text-decoration:;">NativeRouter</tspan></tspan></text></g></g><g id="SvgjsG1019" transform="translate(220,112)"><path id="SvgjsPath1020" d="M15.333333333333334 0L89.66666666666667 0C110.11111111111111 0 110.11111111111111 46 89.66666666666667 46L15.333333333333334 46C-5.111111111111112 46 -5.111111111111112 0 15.333333333333334 0Z " stroke="rgba(97,97,97,1)" stroke-width="2" fill-opacity="1" fill="#ffffff"></path><g id="SvgjsG1021"><text id="SvgjsText1022" font-family="微软雅黑" text-anchor="middle" font-size="16px" width="85px" fill="#616161" font-weight="400" align="middle" lineHeight="125%" font-style="" opacity="1" y="9" transform="rotate(0)"><tspan id="SvgjsTspan1023" dy="20" x="52.5"><tspan id="SvgjsTspan1024" style="text-decoration:;">EluxRouter</tspan></tspan></text></g></g><g id="SvgjsG1025"><path id="SvgjsPath1026" d="M99.65247266533447 105.62239597290065C105.4376102025218 37.57979960149076 272.5 42.7261918471346 271.8949378696908 108.45121149989666 " stroke="#616161" stroke-width="2" fill="none" marker-end="url(#SvgjsMarker1027)"></path></g><g id="SvgjsG1029"><path id="SvgjsPath1030" d="M272.3357654552158 158.98642131683147C272.5 228.7834018962073 101.84917996646993 235.51404968189888 96.5774970907562 168.48633030163293 " stroke="#616161" stroke-width="2" fill="none" marker-end="url(#SvgjsMarker1031)"></path></g><g id="SvgjsG1033" transform="translate(174.5,25)"><path id="SvgjsPath1034" d="M0 4Q0 0 4 0L16 0Q20 0 20 4L20 216Q20 220 16 220L4 220Q0 220 0 216Z " stroke="rgba(50,50,50,1)" stroke-width="2" fill-opacity="1" fill="#ffffff"></path><g id="SvgjsG1035"><text id="SvgjsText1036" font-family="微软雅黑" text-anchor="middle" font-size="13px" width="0px" fill="#323232" font-weight="400" align="middle" lineHeight="125%" font-style="" opacity="1" y="99.375" transform="rotate(0)"></text></g></g><g id="SvgjsG1037" transform="matrix(6.123233995736766e-17,1,-1,6.123233995736766e-17,206,75)"><path id="SvgjsPath1038" d="M0 0L120 0L120 40L0 40Z " stroke="none" fill="none"></path><g id="SvgjsG1039"><text id="SvgjsText1040" font-family="微软雅黑" text-anchor="middle" font-size="14px" width="120px" fill="#616161" font-weight="400" align="middle" lineHeight="125%" font-style="" opacity="1" y="8.75" transform="rotate(0)"><tspan id="SvgjsTspan1041" dy="17" x="60"><tspan id="SvgjsTspan1042" style="text-decoration:;">transformation</tspan></tspan></text></g></g></svg>