<svg id="SvgjsSvg1072" xmlns="http://www.w3.org/2000/svg" version="1.1" xmlns:xlink="http://www.w3.org/1999/xlink" xmlns:svgjs="http://svgjs.com/svgjs" width="657.796875" height="517.046875"><defs id="SvgjsDefs1073"></defs><g id="SvgjsG1074" transform="translate(75.625,112)"><path id="SvgjsPath1075" d="M0 4Q0 0 4 0L518.5943238731219 0Q522.5943238731219 0 522.5943238731219 4L522.5943238731219 326.3267973856209Q522.5943238731219 330.3267973856209 518.5943238731219 330.3267973856209L4 330.3267973856209Q0 330.3267973856209 0 326.3267973856209Z " stroke="rgba(158,158,158,1)" stroke-width="2" fill-opacity="1" fill="#ffffff"></path><path id="SvgjsPath1076" d="M0 30L0 4Q0 0 4 0L518.5943238731219 0Q522.5943238731219 0 522.5943238731219 4L522.5943238731219 30Z " stroke="rgba(158,158,158,1)" stroke-width="2" fill-opacity="1" fill="#dadada"></path><path id="SvgjsPath1077" d="M10 15C10 10 18 10 18 15C18 20 10 20 10 15Z " stroke="none" fill-opacity="1" fill="#ffffff"></path><path id="SvgjsPath1078" d="M23 15C23 10 31 10 31 15C31 20 23 20 23 15Z " stroke="none" fill-opacity="1" fill="#ffffff"></path><path id="SvgjsPath1079" d="M36 15C36 10 44 10 44 15C44 20 36 20 36 15Z " stroke="none" fill-opacity="1" fill="#ffffff"></path><path id="SvgjsPath1080" d="M55 9Q55 5 59 5L513.5943238731219 5Q517.5943238731219 5 517.5943238731219 9L517.5943238731219 21Q517.5943238731219 25 513.5943238731219 25L59 25Q55 25 55 21Z " stroke="none" fill-opacity="1" fill="#ffffff"></path><path id="SvgjsPath1081" d="M0 0L522.5943238731219 0L522.5943238731219 330.3267973856209L0 330.3267973856209Z " stroke="none" fill="none"></path><g id="SvgjsG1082"><text id="SvgjsText1083" font-family="微软雅黑" text-anchor="start" font-size="13px" width="453px" fill="#616161" font-weight="400" align="middle" lineHeight="125%" font-style="" opacity="1" y="4.375" transform="rotate(0)"><tspan id="SvgjsTspan1084" dy="16" x="60"><tspan id="SvgjsTspan1085" style="text-decoration:;">http://www.a.com</tspan></tspan></text></g></g><g id="SvgjsG1086" transform="translate(75.625,83)"><path id="SvgjsPath1087" d="M0 32L0 7Q0 0 7 0L100 0Q107 0 107 7L107 32Z " stroke="rgba(158,158,158,1)" stroke-width="2" fill-opacity="1" fill="#ebebeb"></path><path id="SvgjsPath1088" d="M107 32L107 7Q107 0 114 0L207 0Q214 0 214 7L214 32Z " stroke="rgba(158,158,158,1)" stroke-width="2" fill-opacity="1" fill="#ebebeb"></path><path id="SvgjsPath1089" d="M214 32L214 7Q214 0 221 0L314 0Q321 0 321 7L321 32 " stroke="rgba(158,158,158,1)" stroke-width="2" fill-opacity="1" fill="#ffffff"></path><path id="SvgjsPath1090" d="M0 0L321 0L321 32L0 32Z " stroke="none" fill="none"></path><g id="SvgjsG1091"><text id="SvgjsText1092" font-family="微软雅黑" text-anchor="middle" font-size="13px" width="97px" fill="#616161" font-weight="400" align="middle" lineHeight="125%" font-style="" opacity="1" y="5.375" transform="rotate(0)"><tspan id="SvgjsTspan1093" dy="16" x="53.5"><tspan id="SvgjsTspan1094" style="text-decoration:;">Tab 1</tspan></tspan></text></g><g id="SvgjsG1095"><text id="SvgjsText1096" font-family="微软雅黑" text-anchor="middle" font-size="13px" width="97px" fill="#616161" font-weight="400" align="middle" lineHeight="125%" font-style="" opacity="1" y="5.375" transform="rotate(0)"><tspan id="SvgjsTspan1097" dy="16" x="160.5"><tspan id="SvgjsTspan1098" style="text-decoration:;">Tab 2</tspan></tspan></text></g><g id="SvgjsG1099"><text id="SvgjsText1100" font-family="微软雅黑" text-anchor="middle" font-size="13px" width="97px" fill="#616161" font-weight="400" align="middle" lineHeight="125%" font-style="" opacity="1" y="5.375" transform="rotate(0)"><tspan id="SvgjsTspan1101" dy="16" x="267.5"><tspan id="SvgjsTspan1102" style="text-decoration:;">Tab 3</tspan></tspan></text></g></g><g id="SvgjsG1103" transform="translate(75.625,25)"><path id="SvgjsPath1104" d="M0 21.78L522.1402337228715 21.78L522.1402337228715 0L555.1402337228715 33L522.1402337228715 66L522.1402337228715 44.220000000000006L0 44.220000000000006L0 21.78Z " stroke="rgba(136,136,136,1)" stroke-width="2" fill-opacity="1" fill="#888888"></path><g id="SvgjsG1105"><text id="SvgjsText1106" font-family="微软雅黑" text-anchor="middle" font-size="13px" width="556px" fill="#ffffff" font-weight="400" align="middle" lineHeight="125%" font-style="" opacity="1" y="22.375" transform="rotate(0)"><tspan id="SvgjsTspan1107" dy="16" x="278"><tspan id="SvgjsTspan1108" style="text-decoration:;">...TabStack</tspan></tspan></text></g></g><g id="SvgjsG1109" transform="translate(86.78359766277129,150.91067538126362)"><path id="SvgjsPath1110" d="M0 4Q0 0 4 0L528.8230383973288 0Q532.8230383973288 0 532.8230383973288 4L532.8230383973288 308.9411764705883Q532.8230383973288 312.9411764705883 528.8230383973288 312.9411764705883L4 312.9411764705883Q0 312.9411764705883 0 308.9411764705883Z " stroke="rgba(158,158,158,1)" stroke-width="2" fill-opacity="1" fill="#f5f5f5"></path><g id="SvgjsG1111"><text id="SvgjsText1112" font-family="微软雅黑" text-anchor="middle" font-size="13px" width="513px" fill="#323232" font-weight="400" align="middle" lineHeight="125%" font-style="" opacity="1" y="145.84558823529414" transform="rotate(0)"><tspan id="SvgjsTspan1113" dy="16" x="266.5"><tspan id="SvgjsTspan1114" style="text-decoration:;"> </tspan></tspan></text></g></g><g id="SvgjsG1115" transform="translate(93.625,144)"><path id="SvgjsPath1116" d="M0 0L120 0L120 40L0 40Z " stroke="none" fill="none"></path><g id="SvgjsG1117"><text id="SvgjsText1118" font-family="微软雅黑" text-anchor="middle" font-size="13px" width="120px" fill="#616161" font-weight="400" align="middle" lineHeight="125%" font-style="" opacity="1" y="9.375" transform="rotate(0)"><tspan id="SvgjsTspan1119" dy="16" x="60"><tspan id="SvgjsTspan1120" style="text-decoration:;">http://www.b.com</tspan></tspan></text></g></g><g id="SvgjsG1121" transform="translate(99.8019616026711,179.05882352941177)"><path id="SvgjsPath1122" d="M0 4Q0 0 4 0L528.8230383973288 0Q532.8230383973288 0 532.8230383973288 4L532.8230383973288 308.9411764705883Q532.8230383973288 312.9411764705883 528.8230383973288 312.9411764705883L4 312.9411764705883Q0 312.9411764705883 0 308.9411764705883Z " stroke="rgba(158,158,158,1)" stroke-width="2" fill-opacity="1" fill="#f5f5f5"></path><g id="SvgjsG1123"><text id="SvgjsText1124" font-family="微软雅黑" text-anchor="middle" font-size="13px" width="513px" fill="#323232" font-weight="400" align="middle" lineHeight="125%" font-style="" opacity="1" y="145.84558823529414" transform="rotate(0)"><tspan id="SvgjsTspan1125" dy="16" x="266.5"><tspan id="SvgjsTspan1126" style="text-decoration:;"> </tspan></tspan></text></g></g><g id="SvgjsG1127" transform="translate(106.625,173)"><path id="SvgjsPath1128" d="M0 0L120 0L120 40L0 40Z " stroke="none" fill="none"></path><g id="SvgjsG1129"><text id="SvgjsText1130" font-family="微软雅黑" text-anchor="middle" font-size="13px" width="120px" fill="#616161" font-weight="400" align="middle" lineHeight="125%" font-style="" opacity="1" y="9.375" transform="rotate(0)"><tspan id="SvgjsTspan1131" dy="16" x="60"><tspan id="SvgjsTspan1132" style="text-decoration:;">http://www.c.com</tspan></tspan></text></g></g><g id="SvgjsG1133" transform="matrix(0.6427876096865394,0.766044443118978,-0.766044443118978,0.6427876096865394,70.96841300582504,243.3272162479564)"><path id="SvgjsPath1134" d="M0 19.8L112 19.8L112 0L142 30L112 60L112 40.2L0 40.2L0 19.8Z " stroke="rgba(136,136,136,1)" stroke-width="2" fill-opacity="1" fill="#888888"></path><g id="SvgjsG1135"><text id="SvgjsText1136" font-family="微软雅黑" text-anchor="middle" font-size="13px" width="142px" fill="#ffffff" font-weight="400" align="middle" lineHeight="125%" font-style="" opacity="1" y="19.375" transform="rotate(0)"><tspan id="SvgjsTspan1137" dy="16" x="71"><tspan id="SvgjsTspan1138" style="text-decoration:;">...PageStack</tspan></tspan></text></g></g></svg>