<svg id="SvgjsSvg1000" xmlns="http://www.w3.org/2000/svg" version="1.1" xmlns:xlink="http://www.w3.org/1999/xlink" xmlns:svgjs="http://svgjs.com/svgjs" width="782" height="585"><defs id="SvgjsDefs1001"><marker id="SvgjsMarker1021" markerWidth="14" markerHeight="10" refX="4" refY="5" viewBox="0 0 14 10" orient="auto" markerUnits="userSpaceOnUse" stroke-dasharray="0,0"><path id="SvgjsPath1022" d="M14 0L0 5L14 10L14 0 " fill="#616161" stroke="#616161" stroke-width="1"></path></marker><marker id="SvgjsMarker1059" markerWidth="14" markerHeight="10" refX="10" refY="5" viewBox="0 0 14 10" orient="auto" markerUnits="userSpaceOnUse" stroke-dasharray="0,0"><path id="SvgjsPath1060" d="M0 0L14 5L0 10L0 0 " fill="#616161" stroke="#616161" stroke-width="1"></path></marker><marker id="SvgjsMarker1073" markerWidth="14" markerHeight="10" refX="10" refY="5" viewBox="0 0 14 10" orient="auto" markerUnits="userSpaceOnUse" stroke-dasharray="0,0"><path id="SvgjsPath1074" d="M0 0L14 5L0 10L0 0 " fill="#616161" stroke="#616161" stroke-width="1"></path></marker><marker id="SvgjsMarker1077" markerWidth="14" markerHeight="10" refX="10" refY="5" viewBox="0 0 14 10" orient="auto" markerUnits="userSpaceOnUse" stroke-dasharray="0,0"><path id="SvgjsPath1078" d="M0 0L14 5L0 10L0 0 " fill="#616161" stroke="#616161" stroke-width="1"></path></marker><marker id="SvgjsMarker1115" markerWidth="14" markerHeight="10" refX="10" refY="5" viewBox="0 0 14 10" orient="auto" markerUnits="userSpaceOnUse" stroke-dasharray="0,0"><path id="SvgjsPath1116" d="M0 0L14 5L0 10L0 0 " fill="#616161" stroke="#616161" stroke-width="1"></path></marker><marker id="SvgjsMarker1129" markerWidth="14" markerHeight="10" refX="10" refY="5" viewBox="0 0 14 10" orient="auto" markerUnits="userSpaceOnUse" stroke-dasharray="0,0"><path id="SvgjsPath1130" d="M0 0L14 5L0 10L0 0 " fill="#616161" stroke="#616161" stroke-width="1"></path></marker><marker id="SvgjsMarker1133" markerWidth="14" markerHeight="10" refX="10" refY="5" viewBox="0 0 14 10" orient="auto" markerUnits="userSpaceOnUse" stroke-dasharray="0,0"><path id="SvgjsPath1134" d="M0 0L14 5L0 10L0 0 " fill="#616161" stroke="#616161" stroke-width="1"></path></marker><marker id="SvgjsMarker1171" markerWidth="14" markerHeight="10" refX="10" refY="5" viewBox="0 0 14 10" orient="auto" markerUnits="userSpaceOnUse" stroke-dasharray="0,0"><path id="SvgjsPath1172" d="M0 0L14 5L0 10L0 0 " fill="#616161" stroke="#616161" stroke-width="1"></path></marker><marker id="SvgjsMarker1185" markerWidth="14" markerHeight="10" refX="10" refY="5" viewBox="0 0 14 10" orient="auto" markerUnits="userSpaceOnUse" stroke-dasharray="0,0"><path id="SvgjsPath1186" d="M0 0L14 5L0 10L0 0 " fill="#616161" stroke="#616161" stroke-width="1"></path></marker><marker id="SvgjsMarker1189" markerWidth="14" markerHeight="10" refX="10" refY="5" viewBox="0 0 14 10" orient="auto" markerUnits="userSpaceOnUse" stroke-dasharray="0,0"><path id="SvgjsPath1190" d="M0 0L14 5L0 10L0 0 " fill="#616161" stroke="#616161" stroke-width="1"></path></marker><marker id="SvgjsMarker1193" markerWidth="14" markerHeight="10" refX="10" refY="5" viewBox="0 0 14 10" orient="auto" markerUnits="userSpaceOnUse" stroke-dasharray="0,0"><path id="SvgjsPath1194" d="M0 0L14 5L0 10L0 0 " fill="#616161" stroke="#616161" stroke-width="1"></path></marker><marker id="SvgjsMarker1197" markerWidth="14" markerHeight="10" refX="10" refY="5" viewBox="0 0 14 10" orient="auto" markerUnits="userSpaceOnUse" stroke-dasharray="0,0"><path id="SvgjsPath1198" d="M0 0L14 5L0 10L0 0 " fill="#616161" stroke="#616161" stroke-width="1"></path></marker><marker id="SvgjsMarker1201" markerWidth="14" markerHeight="10" refX="10" refY="5" viewBox="0 0 14 10" orient="auto" markerUnits="userSpaceOnUse" stroke-dasharray="0,0"><path id="SvgjsPath1202" d="M0 0L14 5L0 10L0 0 " fill="#616161" stroke="#616161" stroke-width="1"></path></marker><marker id="SvgjsMarker1223" markerWidth="14" markerHeight="10" refX="10" refY="5" viewBox="0 0 14 10" orient="auto" markerUnits="userSpaceOnUse" stroke-dasharray="0,0"><path id="SvgjsPath1224" d="M0 0L14 5L0 10L0 0 " fill="#616161" stroke="#616161" stroke-width="1"></path></marker><marker id="SvgjsMarker1227" markerWidth="14" markerHeight="10" refX="10" refY="5" viewBox="0 0 14 10" orient="auto" markerUnits="userSpaceOnUse" stroke-dasharray="0,0"><path id="SvgjsPath1228" d="M0 0L14 5L0 10L0 0 " fill="#616161" stroke="#616161" stroke-width="1"></path></marker><marker id="SvgjsMarker1231" markerWidth="14" markerHeight="10" refX="10" refY="5" viewBox="0 0 14 10" orient="auto" markerUnits="userSpaceOnUse" stroke-dasharray="0,0"><path id="SvgjsPath1232" d="M0 0L14 5L0 10L0 0 " fill="#616161" stroke="#616161" stroke-width="1"></path></marker><marker id="SvgjsMarker1253" markerWidth="14" markerHeight="10" refX="10" refY="5" viewBox="0 0 14 10" orient="auto" markerUnits="userSpaceOnUse" stroke-dasharray="0,0"><path id="SvgjsPath1254" d="M0 0L14 5L0 10L0 0 " fill="#616161" stroke="#616161" stroke-width="1"></path></marker><marker id="SvgjsMarker1257" markerWidth="14" markerHeight="10" refX="10" refY="5" viewBox="0 0 14 10" orient="auto" markerUnits="userSpaceOnUse" stroke-dasharray="0,0"><path id="SvgjsPath1258" d="M0 0L14 5L0 10L0 0 " fill="#616161" stroke="#616161" stroke-width="1"></path></marker><marker id="SvgjsMarker1261" markerWidth="14" markerHeight="10" refX="10" refY="5" viewBox="0 0 14 10" orient="auto" markerUnits="userSpaceOnUse" stroke-dasharray="0,0"><path id="SvgjsPath1262" d="M0 0L14 5L0 10L0 0 " fill="#616161" stroke="#616161" stroke-width="1"></path></marker><marker id="SvgjsMarker1283" markerWidth="14" markerHeight="10" refX="10" refY="5" viewBox="0 0 14 10" orient="auto" markerUnits="userSpaceOnUse" stroke-dasharray="0,0"><path id="SvgjsPath1284" d="M0 0L14 5L0 10L0 0 " fill="#616161" stroke="#616161" stroke-width="1"></path></marker><marker id="SvgjsMarker1287" markerWidth="14" markerHeight="10" refX="10" refY="5" viewBox="0 0 14 10" orient="auto" markerUnits="userSpaceOnUse" stroke-dasharray="0,0"><path id="SvgjsPath1288" d="M0 0L14 5L0 10L0 0 " fill="#616161" stroke="#616161" stroke-width="1"></path></marker><marker id="SvgjsMarker1291" markerWidth="14" markerHeight="10" refX="10" refY="5" viewBox="0 0 14 10" orient="auto" markerUnits="userSpaceOnUse" stroke-dasharray="0,0"><path id="SvgjsPath1292" d="M0 0L14 5L0 10L0 0 " fill="#616161" stroke="#616161" stroke-width="1"></path></marker></defs><g id="SvgjsG1007" transform="translate(101,153)"><path id="SvgjsPath1008" d="M0 380.5L0 0L126 0L126 380.5Q94.5 359.5 63 380.5Q31.5 401.5 0 380.5Z " stroke="rgba(97,97,97,1)" stroke-width="2" fill-opacity="1" fill="#f5f5f5"></path><g id="SvgjsG1009"><text id="SvgjsText1010" font-family="微软雅黑" text-anchor="middle" font-size="14px" width="126px" fill="#616161" font-weight="700" align="top" lineHeight="200%" font-style="" opacity="1" y="-8" transform="rotate(0)"><tspan id="SvgjsTspan1011" dy="28" x="63"><tspan id="SvgjsTspan1012" style="text-decoration:;">Window Current</tspan></tspan></text></g></g><g id="SvgjsG1013" transform="translate(336,25)"><path id="SvgjsPath1014" d="M16.666666666666668 0L83.33333333333333 0C105.55555555555556 0 105.55555555555556 50 83.33333333333333 50L16.666666666666668 50C-5.555555555555556 50 -5.555555555555556 0 16.666666666666668 0Z " stroke="rgba(97,97,97,1)" stroke-width="2" fill-opacity="1" fill="#ffffff"></path><g id="SvgjsG1015"><text id="SvgjsText1016" font-family="微软雅黑" text-anchor="middle" font-size="16px" width="80px" fill="#616161" font-weight="400" align="middle" lineHeight="125%" font-style="" opacity="1" y="11" transform="rotate(0)"><tspan id="SvgjsTspan1017" dy="20" x="50"><tspan id="SvgjsTspan1018" style="text-decoration:;">Router</tspan></tspan></text></g></g><g id="SvgjsG1019"><path id="SvgjsPath1020" d="M91 134L386 134L386 134L681 134 " stroke-dasharray="8,5" stroke="#616161" stroke-width="2" fill="none" marker-start="url(#SvgjsMarker1021)"></path></g><g id="SvgjsG1023" transform="translate(89,98)"><path id="SvgjsPath1024" d="M0 0L165 0L165 32L0 32Z " stroke="none" fill="none"></path><g id="SvgjsG1025"><text id="SvgjsText1026" font-family="微软雅黑" text-anchor="middle" font-size="14px" width="165px" fill="#616161" font-weight="400" align="middle" lineHeight="125%" font-style="" opacity="1" y="4.75" transform="rotate(0)"><tspan id="SvgjsTspan1027" dy="17" x="82.5"><tspan id="SvgjsTspan1028" style="text-decoration:;">WindowHistoryStack</tspan></tspan></text></g></g><g id="SvgjsG1029" transform="translate(114,318)"><path id="SvgjsPath1030" d="M0 8.333333333333334Q25 25 50 8.333333333333334Q75 -8.333333333333334 100 8.333333333333334L100 61.666666666666664Q75 45 50 61.666666666666664Q25 78.33333333333333 0 61.666666666666664L0 8.333333333333334Z " stroke="rgba(97,97,97,1)" stroke-width="2" fill-opacity="1" fill="#616161"></path><g id="SvgjsG1031"><text id="SvgjsText1032" font-family="微软雅黑" text-anchor="middle" font-size="14px" width="100px" fill="#ffffff" font-weight="400" align="middle" lineHeight="125%" font-style="" opacity="1" y="23.75" transform="rotate(0)"><tspan id="SvgjsTspan1033" dy="17" x="50"><tspan id="SvgjsTspan1034" style="text-decoration:;">Page Current</tspan></tspan></text></g></g><g id="SvgjsG1035" transform="translate(114,384)"><path id="SvgjsPath1036" d="M0 8.333333333333334Q25 25 50 8.333333333333334Q75 -8.333333333333334 100 8.333333333333334L100 61.666666666666664Q75 45 50 61.666666666666664Q25 78.33333333333333 0 61.666666666666664L0 8.333333333333334Z " stroke="rgba(97,97,97,1)" stroke-width="2" fill-opacity="1" fill="#ffffff"></path><g id="SvgjsG1037"><text id="SvgjsText1038" font-family="微软雅黑" text-anchor="middle" font-size="14px" width="100px" fill="#616161" font-weight="400" align="middle" lineHeight="125%" font-style="" opacity="1" y="15.25" transform="rotate(0)"><tspan id="SvgjsTspan1039" dy="17" x="50"><tspan id="SvgjsTspan1040" style="text-decoration:;">Page History </tspan></tspan><tspan id="SvgjsTspan1041" dy="17" x="50"><tspan id="SvgjsTspan1042" style="text-decoration:;">URL</tspan></tspan></text></g></g><g id="SvgjsG1043" transform="translate(114,450)"><path id="SvgjsPath1044" d="M0 8.333333333333334Q25 25 50 8.333333333333334Q75 -8.333333333333334 100 8.333333333333334L100 61.666666666666664Q75 45 50 61.666666666666664Q25 78.33333333333333 0 61.666666666666664L0 8.333333333333334Z " stroke="rgba(97,97,97,1)" stroke-width="2" fill-opacity="1" fill="#ffffff"></path><g id="SvgjsG1045"><text id="SvgjsText1046" font-family="微软雅黑" text-anchor="middle" font-size="14px" width="100px" fill="#616161" font-weight="400" align="middle" lineHeight="125%" font-style="" opacity="1" y="15.25" transform="rotate(0)"><tspan id="SvgjsTspan1047" dy="17" x="50"><tspan id="SvgjsTspan1048" style="text-decoration:;">Page History </tspan></tspan><tspan id="SvgjsTspan1049" dy="17" x="50"><tspan id="SvgjsTspan1050" style="text-decoration:;">URL</tspan></tspan></text></g></g><g id="SvgjsG1051" transform="translate(129,255)"><path id="SvgjsPath1052" d="M0 17.5C0 -5.833333333333333 70 -5.833333333333333 70 17.5C70 40.833333333333336 0 40.833333333333336 0 17.5Z " stroke="rgba(97,97,97,1)" stroke-width="2" fill-opacity="1" fill="#616161"></path><g id="SvgjsG1053"><text id="SvgjsText1054" font-family="微软雅黑" text-anchor="middle" font-size="14px" width="50px" fill="#ffffff" font-weight="400" align="middle" lineHeight="125%" font-style="" opacity="1" y="6.25" transform="rotate(0)"><tspan id="SvgjsTspan1055" dy="17" x="35"><tspan id="SvgjsTspan1056" style="text-decoration:;">Store</tspan></tspan></text></g></g><g id="SvgjsG1057"><path id="SvgjsPath1058" d="M251 537L251 431L251 431L251 325 " stroke-dasharray="8,5" stroke="#616161" stroke-width="2" fill="none" marker-end="url(#SvgjsMarker1059)"></path><rect id="SvgjsRect1061" width="26" height="16" x="238" y="423" fill="#ffffff"></rect><text id="SvgjsText1062" font-family="微软雅黑" text-anchor="middle" font-size="13px" width="26px" fill="#616161" font-weight="400" align="top" lineHeight="16px" font-style="" opacity="1" y="420.375" transform="rotate(0)"><tspan id="SvgjsTspan1063" dy="16" x="251"><tspan id="SvgjsTspan1064" style="text-decoration:;">time</tspan></tspan></text></g><g id="SvgjsG1065" transform="translate(129,196)"><path id="SvgjsPath1066" d="M0 17.5L35 0L70 17.5L35 35Z " stroke="rgba(97,97,97,1)" stroke-width="2" fill-opacity="1" fill="#616161"></path><g id="SvgjsG1067"><text id="SvgjsText1068" font-family="微软雅黑" text-anchor="middle" font-size="14px" width="50px" fill="#ffffff" font-weight="400" align="middle" lineHeight="125%" font-style="" opacity="1" y="6.425000000000001" transform="rotate(0)"><tspan id="SvgjsTspan1069" dy="17" x="35"><tspan id="SvgjsTspan1070" style="text-decoration:;">View</tspan></tspan></text></g></g><g id="SvgjsG1071"><path id="SvgjsPath1072" d="M164 325.3333333333333L164 308.16666666666663L164 308.16666666666663L164 293.6 " stroke="#616161" stroke-width="2" fill="none" marker-end="url(#SvgjsMarker1073)"></path></g><g id="SvgjsG1075"><path id="SvgjsPath1076" d="M164 254L164 243L164 243L164 234.60000000000002 " stroke="#616161" stroke-width="2" fill="none" marker-end="url(#SvgjsMarker1077)"></path></g><g id="SvgjsG1079" transform="translate(323,153)"><path id="SvgjsPath1080" d="M0 380.5L0 0L126 0L126 380.5Q94.5 359.5 63 380.5Q31.5 401.5 0 380.5Z " stroke="rgba(97,97,97,1)" stroke-width="2" fill-opacity="1" fill="#ffffff"></path><g id="SvgjsG1081"><text id="SvgjsText1082" font-family="微软雅黑" text-anchor="middle" font-size="14px" width="126px" fill="#9e9e9e" font-weight="700" align="top" lineHeight="200%" font-style="" opacity="1" y="-8" transform="rotate(0)"><tspan id="SvgjsTspan1083" dy="28" x="63"><tspan id="SvgjsTspan1084" style="text-decoration:;">Window History</tspan></tspan></text></g></g><g id="SvgjsG1085" transform="translate(336,318)"><path id="SvgjsPath1086" d="M0 8.333333333333334Q25 25 50 8.333333333333334Q75 -8.333333333333334 100 8.333333333333334L100 61.666666666666664Q75 45 50 61.666666666666664Q25 78.33333333333333 0 61.666666666666664L0 8.333333333333334Z " stroke="rgba(97,97,97,1)" stroke-width="2" fill-opacity="1" fill="#e0e0e0"></path><g id="SvgjsG1087"><text id="SvgjsText1088" font-family="微软雅黑" text-anchor="middle" font-size="14px" width="100px" fill="#616161" font-weight="400" align="middle" lineHeight="125%" font-style="" opacity="1" y="23.75" transform="rotate(0)"><tspan id="SvgjsTspan1089" dy="17" x="50"><tspan id="SvgjsTspan1090" style="text-decoration:;">Page Current</tspan></tspan></text></g></g><g id="SvgjsG1091" transform="translate(336,384)"><path id="SvgjsPath1092" d="M0 8.333333333333334Q25 25 50 8.333333333333334Q75 -8.333333333333334 100 8.333333333333334L100 61.666666666666664Q75 45 50 61.666666666666664Q25 78.33333333333333 0 61.666666666666664L0 8.333333333333334Z " stroke="rgba(97,97,97,1)" stroke-width="2" fill-opacity="1" fill="#ffffff"></path><g id="SvgjsG1093"><text id="SvgjsText1094" font-family="微软雅黑" text-anchor="middle" font-size="14px" width="100px" fill="#616161" font-weight="400" align="middle" lineHeight="125%" font-style="" opacity="1" y="15.25" transform="rotate(0)"><tspan id="SvgjsTspan1095" dy="17" x="50"><tspan id="SvgjsTspan1096" style="text-decoration:;">Page History </tspan></tspan><tspan id="SvgjsTspan1097" dy="17" x="50"><tspan id="SvgjsTspan1098" style="text-decoration:;">URL</tspan></tspan></text></g></g><g id="SvgjsG1099" transform="translate(336,450)"><path id="SvgjsPath1100" d="M0 8.333333333333334Q25 25 50 8.333333333333334Q75 -8.333333333333334 100 8.333333333333334L100 61.666666666666664Q75 45 50 61.666666666666664Q25 78.33333333333333 0 61.666666666666664L0 8.333333333333334Z " stroke="rgba(97,97,97,1)" stroke-width="2" fill-opacity="1" fill="#ffffff"></path><g id="SvgjsG1101"><text id="SvgjsText1102" font-family="微软雅黑" text-anchor="middle" font-size="14px" width="100px" fill="#616161" font-weight="400" align="middle" lineHeight="125%" font-style="" opacity="1" y="15.25" transform="rotate(0)"><tspan id="SvgjsTspan1103" dy="17" x="50"><tspan id="SvgjsTspan1104" style="text-decoration:;">Page History </tspan></tspan><tspan id="SvgjsTspan1105" dy="17" x="50"><tspan id="SvgjsTspan1106" style="text-decoration:;">URL</tspan></tspan></text></g></g><g id="SvgjsG1107" transform="translate(351,255)"><path id="SvgjsPath1108" d="M0 17.5C0 -5.833333333333333 70 -5.833333333333333 70 17.5C70 40.833333333333336 0 40.833333333333336 0 17.5Z " stroke="rgba(97,97,97,1)" stroke-width="2" fill-opacity="1" fill="#e0e0e0"></path><g id="SvgjsG1109"><text id="SvgjsText1110" font-family="微软雅黑" text-anchor="middle" font-size="14px" width="50px" fill="#616161" font-weight="400" align="middle" lineHeight="125%" font-style="" opacity="1" y="6.25" transform="rotate(0)"><tspan id="SvgjsTspan1111" dy="17" x="35"><tspan id="SvgjsTspan1112" style="text-decoration:;">Store</tspan></tspan></text></g></g><g id="SvgjsG1113"><path id="SvgjsPath1114" d="M473 537L473 431L473 431L473 325 " stroke-dasharray="8,5" stroke="#616161" stroke-width="2" fill="none" marker-end="url(#SvgjsMarker1115)"></path><rect id="SvgjsRect1117" width="26" height="16" x="460" y="423" fill="#ffffff"></rect><text id="SvgjsText1118" font-family="微软雅黑" text-anchor="middle" font-size="13px" width="26px" fill="#616161" font-weight="400" align="top" lineHeight="16px" font-style="" opacity="1" y="420.375" transform="rotate(0)"><tspan id="SvgjsTspan1119" dy="16" x="473"><tspan id="SvgjsTspan1120" style="text-decoration:;">time</tspan></tspan></text></g><g id="SvgjsG1121" transform="translate(351,196)"><path id="SvgjsPath1122" d="M0 17.5L35 0L70 17.5L35 35Z " stroke="rgba(97,97,97,1)" stroke-width="2" fill-opacity="1" fill="#e0e0e0"></path><g id="SvgjsG1123"><text id="SvgjsText1124" font-family="微软雅黑" text-anchor="middle" font-size="14px" width="50px" fill="#616161" font-weight="400" align="middle" lineHeight="125%" font-style="" opacity="1" y="6.425000000000001" transform="rotate(0)"><tspan id="SvgjsTspan1125" dy="17" x="35"><tspan id="SvgjsTspan1126" style="text-decoration:;">View</tspan></tspan></text></g></g><g id="SvgjsG1127"><path id="SvgjsPath1128" d="M386 325.3333333333333L386 308.16666666666663L386 308.16666666666663L386 293.6 " stroke="#616161" stroke-width="2" fill="none" marker-end="url(#SvgjsMarker1129)"></path></g><g id="SvgjsG1131"><path id="SvgjsPath1132" d="M386 254L386 243L386 243L386 234.60000000000002 " stroke="#616161" stroke-width="2" fill="none" marker-end="url(#SvgjsMarker1133)"></path></g><g id="SvgjsG1135" transform="translate(545,153)"><path id="SvgjsPath1136" d="M0 380.5L0 0L126 0L126 380.5Q94.5 359.5 63 380.5Q31.5 401.5 0 380.5Z " stroke="rgba(97,97,97,1)" stroke-width="2" fill-opacity="1" fill="#ffffff"></path><g id="SvgjsG1137"><text id="SvgjsText1138" font-family="微软雅黑" text-anchor="middle" font-size="14px" width="126px" fill="#9e9e9e" font-weight="700" align="top" lineHeight="200%" font-style="" opacity="1" y="-8" transform="rotate(0)"><tspan id="SvgjsTspan1139" dy="28" x="63"><tspan id="SvgjsTspan1140" style="text-decoration:;">Window History</tspan></tspan></text></g></g><g id="SvgjsG1141" transform="translate(558,318)"><path id="SvgjsPath1142" d="M0 8.333333333333334Q25 25 50 8.333333333333334Q75 -8.333333333333334 100 8.333333333333334L100 61.666666666666664Q75 45 50 61.666666666666664Q25 78.33333333333333 0 61.666666666666664L0 8.333333333333334Z " stroke="rgba(97,97,97,1)" stroke-width="2" fill-opacity="1" fill="#e0e0e0"></path><g id="SvgjsG1143"><text id="SvgjsText1144" font-family="微软雅黑" text-anchor="middle" font-size="14px" width="100px" fill="#616161" font-weight="400" align="middle" lineHeight="125%" font-style="" opacity="1" y="23.75" transform="rotate(0)"><tspan id="SvgjsTspan1145" dy="17" x="50"><tspan id="SvgjsTspan1146" style="text-decoration:;">Page Current</tspan></tspan></text></g></g><g id="SvgjsG1147" transform="translate(558,384)"><path id="SvgjsPath1148" d="M0 8.333333333333334Q25 25 50 8.333333333333334Q75 -8.333333333333334 100 8.333333333333334L100 61.666666666666664Q75 45 50 61.666666666666664Q25 78.33333333333333 0 61.666666666666664L0 8.333333333333334Z " stroke="rgba(97,97,97,1)" stroke-width="2" fill-opacity="1" fill="#ffffff"></path><g id="SvgjsG1149"><text id="SvgjsText1150" font-family="微软雅黑" text-anchor="middle" font-size="14px" width="100px" fill="#616161" font-weight="400" align="middle" lineHeight="125%" font-style="" opacity="1" y="15.25" transform="rotate(0)"><tspan id="SvgjsTspan1151" dy="17" x="50"><tspan id="SvgjsTspan1152" style="text-decoration:;">Page History </tspan></tspan><tspan id="SvgjsTspan1153" dy="17" x="50"><tspan id="SvgjsTspan1154" style="text-decoration:;">URL</tspan></tspan></text></g></g><g id="SvgjsG1155" transform="translate(558,450)"><path id="SvgjsPath1156" d="M0 8.333333333333334Q25 25 50 8.333333333333334Q75 -8.333333333333334 100 8.333333333333334L100 61.666666666666664Q75 45 50 61.666666666666664Q25 78.33333333333333 0 61.666666666666664L0 8.333333333333334Z " stroke="rgba(97,97,97,1)" stroke-width="2" fill-opacity="1" fill="#ffffff"></path><g id="SvgjsG1157"><text id="SvgjsText1158" font-family="微软雅黑" text-anchor="middle" font-size="14px" width="100px" fill="#616161" font-weight="400" align="middle" lineHeight="125%" font-style="" opacity="1" y="15.25" transform="rotate(0)"><tspan id="SvgjsTspan1159" dy="17" x="50"><tspan id="SvgjsTspan1160" style="text-decoration:;">Page History </tspan></tspan><tspan id="SvgjsTspan1161" dy="17" x="50"><tspan id="SvgjsTspan1162" style="text-decoration:;">URL</tspan></tspan></text></g></g><g id="SvgjsG1163" transform="translate(573,255)"><path id="SvgjsPath1164" d="M0 17.5C0 -5.833333333333333 70 -5.833333333333333 70 17.5C70 40.833333333333336 0 40.833333333333336 0 17.5Z " stroke="rgba(97,97,97,1)" stroke-width="2" fill-opacity="1" fill="#e0e0e0"></path><g id="SvgjsG1165"><text id="SvgjsText1166" font-family="微软雅黑" text-anchor="middle" font-size="14px" width="50px" fill="#616161" font-weight="400" align="middle" lineHeight="125%" font-style="" opacity="1" y="6.25" transform="rotate(0)"><tspan id="SvgjsTspan1167" dy="17" x="35"><tspan id="SvgjsTspan1168" style="text-decoration:;">Store</tspan></tspan></text></g></g><g id="SvgjsG1169"><path id="SvgjsPath1170" d="M695 537L695 431L695 431L695 325 " stroke-dasharray="8,5" stroke="#616161" stroke-width="2" fill="none" marker-end="url(#SvgjsMarker1171)"></path><rect id="SvgjsRect1173" width="26" height="16" x="682" y="423" fill="#ffffff"></rect><text id="SvgjsText1174" font-family="微软雅黑" text-anchor="start" font-size="13px" width="26px" fill="#616161" font-weight="400" align="top" lineHeight="16px" font-style="" opacity="1" y="420.375" transform="rotate(0)"><tspan id="SvgjsTspan1175" dy="16" x="682"><tspan id="SvgjsTspan1176" style="text-decoration:;">time</tspan></tspan></text></g><g id="SvgjsG1177" transform="translate(573,196)"><path id="SvgjsPath1178" d="M0 17.5L35 0L70 17.5L35 35Z " stroke="rgba(97,97,97,1)" stroke-width="2" fill-opacity="1" fill="#e0e0e0"></path><g id="SvgjsG1179"><text id="SvgjsText1180" font-family="微软雅黑" text-anchor="middle" font-size="14px" width="50px" fill="#616161" font-weight="400" align="middle" lineHeight="125%" font-style="" opacity="1" y="6.425000000000001" transform="rotate(0)"><tspan id="SvgjsTspan1181" dy="17" x="35"><tspan id="SvgjsTspan1182" style="text-decoration:;">View</tspan></tspan></text></g></g><g id="SvgjsG1183"><path id="SvgjsPath1184" d="M608 325.3333333333333L608 308.16666666666663L608 308.16666666666663L608 293.6 " stroke="#616161" stroke-width="2" fill="none" marker-end="url(#SvgjsMarker1185)"></path></g><g id="SvgjsG1187"><path id="SvgjsPath1188" d="M608 254L608 243L608 243L608 234.60000000000002 " stroke="#616161" stroke-width="2" fill="none" marker-end="url(#SvgjsMarker1189)"></path></g><g id="SvgjsG1191"><path id="SvgjsPath1192" d="M386 76L386 149.4 " stroke="#616161" stroke-width="2" fill="none" marker-end="url(#SvgjsMarker1193)"></path></g><g id="SvgjsG1195"><path id="SvgjsPath1196" d="M386.94346013965117 75.33148599501256L604.6035434972559 151.80665041795478 " stroke="#616161" stroke-width="2" fill="none" marker-end="url(#SvgjsMarker1197)"></path></g><g id="SvgjsG1199"><path id="SvgjsPath1200" d="M385.05653986034883 75.33148599501256L167.39645650274406 151.80665041795478 " stroke="#616161" stroke-width="2" fill="none" marker-end="url(#SvgjsMarker1201)"></path></g><g id="SvgjsG1203" transform="translate(240,231.5)"><path id="SvgjsPath1204" d="M7.833333333333333 0L62.166666666666664 0C72.61111111111111 0 72.61111111111111 23.5 62.166666666666664 23.5L7.833333333333333 23.5C-2.611111111111111 23.5 -2.611111111111111 0 7.833333333333333 0Z " stroke="rgba(97,97,97,1)" stroke-width="2" fill-opacity="1" fill="#616161"></path><g id="SvgjsG1205"><text id="SvgjsText1206" font-family="微软雅黑" text-anchor="middle" font-size="14px" width="50px" fill="#ffffff" font-weight="400" align="middle" lineHeight="125%" font-style="" opacity="1" y="0.5" transform="rotate(0)"><tspan id="SvgjsTspan1207" dy="17" x="35"><tspan id="SvgjsTspan1208" style="text-decoration:;">Model</tspan></tspan></text></g></g><g id="SvgjsG1209" transform="translate(240,260.75)"><path id="SvgjsPath1210" d="M7.833333333333333 0L62.166666666666664 0C72.61111111111111 0 72.61111111111111 23.5 62.166666666666664 23.5L7.833333333333333 23.5C-2.611111111111111 23.5 -2.611111111111111 0 7.833333333333333 0Z " stroke="rgba(97,97,97,1)" stroke-width="2" fill-opacity="1" fill="#616161"></path><g id="SvgjsG1211"><text id="SvgjsText1212" font-family="微软雅黑" text-anchor="middle" font-size="14px" width="50px" fill="#ffffff" font-weight="400" align="middle" lineHeight="125%" font-style="" opacity="1" y="0.5" transform="rotate(0)"><tspan id="SvgjsTspan1213" dy="17" x="35"><tspan id="SvgjsTspan1214" style="text-decoration:;">Model</tspan></tspan></text></g></g><g id="SvgjsG1215" transform="translate(240,290)"><path id="SvgjsPath1216" d="M7.833333333333333 0L62.166666666666664 0C72.61111111111111 0 72.61111111111111 23.5 62.166666666666664 23.5L7.833333333333333 23.5C-2.611111111111111 23.5 -2.611111111111111 0 7.833333333333333 0Z " stroke="rgba(97,97,97,1)" stroke-width="2" fill-opacity="1" fill="#616161"></path><g id="SvgjsG1217"><text id="SvgjsText1218" font-family="微软雅黑" text-anchor="middle" font-size="14px" width="50px" fill="#ffffff" font-weight="400" align="middle" lineHeight="125%" font-style="" opacity="1" y="0.5" transform="rotate(0)"><tspan id="SvgjsTspan1219" dy="17" x="35"><tspan id="SvgjsTspan1220" style="text-decoration:;">Model</tspan></tspan></text></g></g><g id="SvgjsG1221"><path id="SvgjsPath1222" d="M239.18593127009677 301.1692314548861L201.9306474276517 274.59076676241006 " stroke="#616161" stroke-width="2" fill="none" marker-end="url(#SvgjsMarker1223)"></path></g><g id="SvgjsG1225"><path id="SvgjsPath1226" d="M239 272.5L202.60000000000002 272.5 " stroke="#616161" stroke-width="2" fill="none" marker-end="url(#SvgjsMarker1227)"></path></g><g id="SvgjsG1229"><path id="SvgjsPath1230" d="M239.18593127009677 243.83076854511393L201.9306474276517 270.40923323758994 " stroke="#616161" stroke-width="2" fill="none" marker-end="url(#SvgjsMarker1231)"></path></g><g id="SvgjsG1233" transform="translate(464.5,231.5)"><path id="SvgjsPath1234" d="M7.833333333333333 0L62.166666666666664 0C72.61111111111111 0 72.61111111111111 23.5 62.166666666666664 23.5L7.833333333333333 23.5C-2.611111111111111 23.5 -2.611111111111111 0 7.833333333333333 0Z " stroke="rgba(97,97,97,1)" stroke-width="2" fill-opacity="1" fill="#f5f5f5"></path><g id="SvgjsG1235"><text id="SvgjsText1236" font-family="微软雅黑" text-anchor="middle" font-size="14px" width="50px" fill="#616161" font-weight="400" align="middle" lineHeight="125%" font-style="" opacity="1" y="0.5" transform="rotate(0)"><tspan id="SvgjsTspan1237" dy="17" x="35"><tspan id="SvgjsTspan1238" style="text-decoration:;">Model</tspan></tspan></text></g></g><g id="SvgjsG1239" transform="translate(464.5,260.75)"><path id="SvgjsPath1240" d="M7.833333333333333 0L62.166666666666664 0C72.61111111111111 0 72.61111111111111 23.5 62.166666666666664 23.5L7.833333333333333 23.5C-2.611111111111111 23.5 -2.611111111111111 0 7.833333333333333 0Z " stroke="rgba(97,97,97,1)" stroke-width="2" fill-opacity="1" fill="#f5f5f5"></path><g id="SvgjsG1241"><text id="SvgjsText1242" font-family="微软雅黑" text-anchor="middle" font-size="14px" width="50px" fill="#616161" font-weight="400" align="middle" lineHeight="125%" font-style="" opacity="1" y="0.5" transform="rotate(0)"><tspan id="SvgjsTspan1243" dy="17" x="35"><tspan id="SvgjsTspan1244" style="text-decoration:;">Model</tspan></tspan></text></g></g><g id="SvgjsG1245" transform="translate(464.5,290)"><path id="SvgjsPath1246" d="M7.833333333333333 0L62.166666666666664 0C72.61111111111111 0 72.61111111111111 23.5 62.166666666666664 23.5L7.833333333333333 23.5C-2.611111111111111 23.5 -2.611111111111111 0 7.833333333333333 0Z " stroke="rgba(97,97,97,1)" stroke-width="2" fill-opacity="1" fill="#f5f5f5"></path><g id="SvgjsG1247"><text id="SvgjsText1248" font-family="微软雅黑" text-anchor="middle" font-size="14px" width="50px" fill="#616161" font-weight="400" align="middle" lineHeight="125%" font-style="" opacity="1" y="0.5" transform="rotate(0)"><tspan id="SvgjsTspan1249" dy="17" x="35"><tspan id="SvgjsTspan1250" style="text-decoration:;">Model</tspan></tspan></text></g></g><g id="SvgjsG1251"><path id="SvgjsPath1252" d="M463.67015743067316 301.1920024102802L423.9874332495766 274.50879132299116 " stroke="#616161" stroke-width="2" fill="none" marker-end="url(#SvgjsMarker1253)"></path></g><g id="SvgjsG1255"><path id="SvgjsPath1256" d="M463.5 272.5L424.6 272.5 " stroke="#616161" stroke-width="2" fill="none" marker-end="url(#SvgjsMarker1257)"></path></g><g id="SvgjsG1259"><path id="SvgjsPath1260" d="M463.67015743067316 243.80799758971978L423.9874332495766 270.49120867700884 " stroke="#616161" stroke-width="2" fill="none" marker-end="url(#SvgjsMarker1261)"></path></g><g id="SvgjsG1263" transform="translate(687,231.5)"><path id="SvgjsPath1264" d="M7.833333333333333 0L62.166666666666664 0C72.61111111111111 0 72.61111111111111 23.5 62.166666666666664 23.5L7.833333333333333 23.5C-2.611111111111111 23.5 -2.611111111111111 0 7.833333333333333 0Z " stroke="rgba(97,97,97,1)" stroke-width="2" fill-opacity="1" fill="#f5f5f5"></path><g id="SvgjsG1265"><text id="SvgjsText1266" font-family="微软雅黑" text-anchor="middle" font-size="14px" width="50px" fill="#616161" font-weight="400" align="middle" lineHeight="125%" font-style="" opacity="1" y="0.5" transform="rotate(0)"><tspan id="SvgjsTspan1267" dy="17" x="35"><tspan id="SvgjsTspan1268" style="text-decoration:;">Model</tspan></tspan></text></g></g><g id="SvgjsG1269" transform="translate(687,260.75)"><path id="SvgjsPath1270" d="M7.833333333333333 0L62.166666666666664 0C72.61111111111111 0 72.61111111111111 23.5 62.166666666666664 23.5L7.833333333333333 23.5C-2.611111111111111 23.5 -2.611111111111111 0 7.833333333333333 0Z " stroke="rgba(97,97,97,1)" stroke-width="2" fill-opacity="1" fill="#f5f5f5"></path><g id="SvgjsG1271"><text id="SvgjsText1272" font-family="微软雅黑" text-anchor="middle" font-size="14px" width="50px" fill="#616161" font-weight="400" align="middle" lineHeight="125%" font-style="" opacity="1" y="0.5" transform="rotate(0)"><tspan id="SvgjsTspan1273" dy="17" x="35"><tspan id="SvgjsTspan1274" style="text-decoration:;">Model</tspan></tspan></text></g></g><g id="SvgjsG1275" transform="translate(687,290)"><path id="SvgjsPath1276" d="M7.833333333333333 0L62.166666666666664 0C72.61111111111111 0 72.61111111111111 23.5 62.166666666666664 23.5L7.833333333333333 23.5C-2.611111111111111 23.5 -2.611111111111111 0 7.833333333333333 0Z " stroke="rgba(97,97,97,1)" stroke-width="2" fill-opacity="1" fill="#f5f5f5"></path><g id="SvgjsG1277"><text id="SvgjsText1278" font-family="微软雅黑" text-anchor="middle" font-size="14px" width="50px" fill="#616161" font-weight="400" align="middle" lineHeight="125%" font-style="" opacity="1" y="0.5" transform="rotate(0)"><tspan id="SvgjsTspan1279" dy="17" x="35"><tspan id="SvgjsTspan1280" style="text-decoration:;">Model</tspan></tspan></text></g></g><g id="SvgjsG1281"><path id="SvgjsPath1282" d="M686.1672224697638 301.19639221001347L645.9979991088502 274.4929880439515 " stroke="#616161" stroke-width="2" fill="none" marker-end="url(#SvgjsMarker1283)"></path></g><g id="SvgjsG1285"><path id="SvgjsPath1286" d="M686 272.5L646.6 272.5 " stroke="#616161" stroke-width="2" fill="none" marker-end="url(#SvgjsMarker1287)"></path></g><g id="SvgjsG1289"><path id="SvgjsPath1290" d="M686.1672224697638 243.80360778998653L645.9979991088502 270.5070119560485 " stroke="#616161" stroke-width="2" fill="none" marker-end="url(#SvgjsMarker1291)"></path></g><g id="SvgjsG1293" transform="translate(25,212)"><path id="SvgjsPath1294" d="M69 0Q62.1 0 62.1 9L62.1 69Q62.1 78 47 78Q62.1 78 62.1 87L62.1 147Q62.1 156 69 156 " stroke="rgba(97,97,97,1)" stroke-width="2" fill="none"></path><path id="SvgjsPath1295" d="M0 0L69 0L69 156L0 156Z " stroke="none" fill="none"></path><g id="SvgjsG1296"><text id="SvgjsText1297" font-family="微软雅黑" text-anchor="end" font-size="13px" width="42px" fill="#616161" font-weight="400" align="middle" lineHeight="125%" font-style="" opacity="1" y="59.375" transform="rotate(0)"><tspan id="SvgjsTspan1298" dy="16" x="42"><tspan id="SvgjsTspan1299" style="text-decoration:;">Active</tspan></tspan><tspan id="SvgjsTspan1300" dy="16" x="42"><tspan id="SvgjsTspan1301" style="text-decoration:;">Page</tspan></tspan></text></g></g><g id="SvgjsG1302" transform="translate(181.5,538)"><path id="SvgjsPath1303" d="M0 0L119.5 0L119.5 22L0 22Z " stroke="none" fill="none"></path><g id="SvgjsG1304"><text id="SvgjsText1305" font-family="微软雅黑" text-anchor="middle" font-size="14px" width="120px" fill="#616161" font-weight="400" align="middle" lineHeight="125%" font-style="" opacity="1" y="-0.25" transform="rotate(0)"><tspan id="SvgjsTspan1306" dy="17" x="60"><tspan id="SvgjsTspan1307" style="text-decoration:;">PageHistoryStack</tspan></tspan></text></g></g><g id="SvgjsG1308" transform="translate(403.5,538)"><path id="SvgjsPath1309" d="M0 0L119.5 0L119.5 22L0 22Z " stroke="none" fill="none"></path><g id="SvgjsG1310"><text id="SvgjsText1311" font-family="微软雅黑" text-anchor="middle" font-size="14px" width="120px" fill="#616161" font-weight="400" align="middle" lineHeight="125%" font-style="" opacity="1" y="-0.25" transform="rotate(0)"><tspan id="SvgjsTspan1312" dy="17" x="60"><tspan id="SvgjsTspan1313" style="text-decoration:;">PageHistoryStack</tspan></tspan></text></g></g><g id="SvgjsG1314" transform="translate(625.5,538)"><path id="SvgjsPath1315" d="M0 0L119.5 0L119.5 22L0 22Z " stroke="none" fill="none"></path><g id="SvgjsG1316"><text id="SvgjsText1317" font-family="微软雅黑" text-anchor="middle" font-size="14px" width="120px" fill="#616161" font-weight="400" align="middle" lineHeight="125%" font-style="" opacity="1" y="-0.25" transform="rotate(0)"><tspan id="SvgjsTspan1318" dy="17" x="60"><tspan id="SvgjsTspan1319" style="text-decoration:;">PageHistoryStack</tspan></tspan></text></g></g><g id="SvgjsG1320" transform="translate(606,110)"><path id="SvgjsPath1321" d="M0 0L77 0L77 20L0 20Z " stroke="none" fill="none"></path><g id="SvgjsG1322"><text id="SvgjsText1323" font-family="微软雅黑" text-anchor="middle" font-size="13px" width="77px" fill="#616161" font-weight="400" align="middle" lineHeight="125%" font-style="" opacity="1" y="-0.625" transform="rotate(0)"><tspan id="SvgjsTspan1324" dy="16" x="38.5"><tspan id="SvgjsTspan1325" style="text-decoration:;">time</tspan></tspan></text></g></g></svg>