<svg id="SvgjsSvg1677" xmlns="http://www.w3.org/2000/svg" version="1.1" xmlns:xlink="http://www.w3.org/1999/xlink" xmlns:svgjs="http://svgjs.com/svgjs" width="811.5" height="488"><defs id="SvgjsDefs1678"><marker id="SvgjsMarker1687" markerWidth="14" markerHeight="10" refX="4" refY="5" viewBox="0 0 14 10" orient="auto" markerUnits="userSpaceOnUse" stroke-dasharray="0,0"><path id="SvgjsPath1688" d="M14 0L0 5L14 10L14 0 " fill="#616161" stroke="#616161" stroke-width="1"></path></marker><marker id="SvgjsMarker1727" markerWidth="14" markerHeight="10" refX="10" refY="5" viewBox="0 0 14 10" orient="auto" markerUnits="userSpaceOnUse" stroke-dasharray="0,0"><path id="SvgjsPath1728" d="M0 0L14 5L0 10L0 0 " fill="#616161" stroke="#616161" stroke-width="1"></path></marker><marker id="SvgjsMarker1761" markerWidth="14" markerHeight="10" refX="10" refY="5" viewBox="0 0 14 10" orient="auto" markerUnits="userSpaceOnUse" stroke-dasharray="0,0"><path id="SvgjsPath1762" d="M0 0L14 5L0 10L0 0 " fill="#616161" stroke="#616161" stroke-width="1"></path></marker><marker id="SvgjsMarker1771" markerWidth="14" markerHeight="10" refX="10" refY="5" viewBox="0 0 14 10" orient="auto" markerUnits="userSpaceOnUse" stroke-dasharray="0,0"><path id="SvgjsPath1772" d="M0 0L14 5L0 10L0 0 " fill="#616161" stroke="#616161" stroke-width="1"></path></marker><marker id="SvgjsMarker1781" markerWidth="14" markerHeight="10" refX="10" refY="5" viewBox="0 0 14 10" orient="auto" markerUnits="userSpaceOnUse" stroke-dasharray="0,0"><path id="SvgjsPath1782" d="M0 0L14 5L0 10L0 0 " fill="#616161" stroke="#616161" stroke-width="1"></path></marker><marker id="SvgjsMarker1815" markerWidth="14" markerHeight="10" refX="10" refY="5" viewBox="0 0 14 10" orient="auto" markerUnits="userSpaceOnUse" stroke-dasharray="0,0"><path id="SvgjsPath1816" d="M0 0L14 5L0 10L0 0 " fill="#616161" stroke="#616161" stroke-width="1"></path></marker><marker id="SvgjsMarker1825" markerWidth="14" markerHeight="10" refX="10" refY="5" viewBox="0 0 14 10" orient="auto" markerUnits="userSpaceOnUse" stroke-dasharray="0,0"><path id="SvgjsPath1826" d="M0 0L14 5L0 10L0 0 " fill="#616161" stroke="#616161" stroke-width="1"></path></marker><marker id="SvgjsMarker1847" markerWidth="14" markerHeight="10" refX="10" refY="5" viewBox="0 0 14 10" orient="auto" markerUnits="userSpaceOnUse" stroke-dasharray="0,0"><path id="SvgjsPath1848" d="M0 0L14 5L0 10L0 0 " fill="#616161" stroke="#616161" stroke-width="1"></path></marker><marker id="SvgjsMarker1863" markerWidth="14" markerHeight="10" refX="10" refY="5" viewBox="0 0 14 10" orient="auto" markerUnits="userSpaceOnUse" stroke-dasharray="0,0"><path id="SvgjsPath1864" d="M0 0L14 5L0 10L0 0 " fill="#616161" stroke="#616161" stroke-width="1"></path></marker><marker id="SvgjsMarker1867" markerWidth="14" markerHeight="10" refX="10" refY="5" viewBox="0 0 14 10" orient="auto" markerUnits="userSpaceOnUse" stroke-dasharray="0,0"><path id="SvgjsPath1868" d="M0 0L14 5L0 10L0 0 " fill="#616161" stroke="#616161" stroke-width="1"></path></marker></defs><g id="SvgjsG1679" transform="translate(380.93508500772805,25)"><path id="SvgjsPath1680" d="M16.666666666666668 0L83.33333333333333 0C105.55555555555556 0 105.55555555555556 50 83.33333333333333 50L16.666666666666668 50C-5.555555555555556 50 -5.555555555555556 0 16.666666666666668 0Z " stroke="rgba(97,97,97,1)" stroke-width="2" fill-opacity="1" fill="#ffffff"></path><g id="SvgjsG1681"><text id="SvgjsText1682" font-family="微软雅黑" text-anchor="middle" font-size="16px" width="80px" fill="#616161" font-weight="400" align="middle" lineHeight="125%" font-style="" opacity="1" y="11" transform="rotate(0)"><tspan id="SvgjsTspan1683" dy="20" x="50"><tspan id="SvgjsTspan1684" style="text-decoration:;">Router</tspan></tspan></text></g></g><g id="SvgjsG1685"><path id="SvgjsPath1686" d="M56 137L416 137L416 137L776 137 " stroke-dasharray="8,5" stroke="#616161" stroke-width="2" fill="none" marker-start="url(#SvgjsMarker1687)"></path></g><g id="SvgjsG1689" transform="translate(76,102)"><path id="SvgjsPath1690" d="M0 0L101 0L101 34L0 34Z " stroke="none" fill="none"></path><g id="SvgjsG1691"><text id="SvgjsText1692" font-family="微软雅黑" text-anchor="middle" font-size="16px" width="101px" fill="#616161" font-weight="400" align="middle" lineHeight="125%" font-style="" opacity="1" y="3" transform="rotate(0)"><tspan id="SvgjsTspan1693" dy="20" x="50.5"><tspan id="SvgjsTspan1694" style="text-decoration:;">WindowStack</tspan></tspan></text></g></g><g id="SvgjsG1695" transform="translate(375,227)"><path id="SvgjsPath1696" d="M0 8.333333333333334Q25 25 50 8.333333333333334Q75 -8.333333333333334 100 8.333333333333334L100 61.666666666666664Q75 45 50 61.666666666666664Q25 78.33333333333333 0 61.666666666666664L0 8.333333333333334Z " stroke="rgba(97,97,97,1)" stroke-width="2" fill-opacity="1" fill="#ffffff"></path><g id="SvgjsG1697"><text id="SvgjsText1698" font-family="微软雅黑" text-anchor="middle" font-size="16px" width="100px" fill="#616161" font-weight="400" align="middle" lineHeight="125%" font-style="" opacity="1" y="21" transform="rotate(0)"><tspan id="SvgjsTspan1699" dy="20" x="50"><tspan id="SvgjsTspan1700" style="text-decoration:;">Page</tspan></tspan></text></g></g><g id="SvgjsG1701" transform="translate(375,293)"><path id="SvgjsPath1702" d="M0 8.333333333333334Q25 25 50 8.333333333333334Q75 -8.333333333333334 100 8.333333333333334L100 61.666666666666664Q75 45 50 61.666666666666664Q25 78.33333333333333 0 61.666666666666664L0 8.333333333333334Z " stroke="rgba(97,97,97,1)" stroke-width="2" fill-opacity="1" fill="#ffffff"></path><g id="SvgjsG1703"><text id="SvgjsText1704" font-family="微软雅黑" text-anchor="middle" font-size="16px" width="100px" fill="#616161" font-weight="400" align="middle" lineHeight="125%" font-style="" opacity="1" y="21" transform="rotate(0)"><tspan id="SvgjsTspan1705" dy="20" x="50"><tspan id="SvgjsTspan1706" style="text-decoration:;">Page</tspan></tspan></text></g></g><g id="SvgjsG1707" transform="translate(365,156)"><path id="SvgjsPath1708" d="M0 59.5L0 0L131.87017001545595 0L131.87017001545595 59.5Q98.90262751159196 42.5 65.93508500772798 59.5Q32.96754250386399 76.5 0 59.5Z " stroke="rgba(97,97,97,1)" stroke-width="2" fill-opacity="1" fill="#e0e0e0"></path><g id="SvgjsG1709"><text id="SvgjsText1710" font-family="微软雅黑" text-anchor="middle" font-size="16px" width="132px" fill="#616161" font-weight="400" align="middle" lineHeight="125%" font-style="" opacity="1" y="16.6" transform="rotate(0)"><tspan id="SvgjsTspan1711" dy="20" x="66"><tspan id="SvgjsTspan1712" style="text-decoration:;">Window</tspan></tspan></text></g></g><g id="SvgjsG1713" transform="translate(375,359)"><path id="SvgjsPath1714" d="M0 8.333333333333334Q25 25 50 8.333333333333334Q75 -8.333333333333334 100 8.333333333333334L100 61.666666666666664Q75 45 50 61.666666666666664Q25 78.33333333333333 0 61.666666666666664L0 8.333333333333334Z " stroke="rgba(97,97,97,1)" stroke-width="2" fill-opacity="1" fill="#ffffff"></path><g id="SvgjsG1715"><text id="SvgjsText1716" font-family="微软雅黑" text-anchor="middle" font-size="16px" width="100px" fill="#616161" font-weight="400" align="middle" lineHeight="125%" font-style="" opacity="1" y="21" transform="rotate(0)"><tspan id="SvgjsTspan1717" dy="20" x="50"><tspan id="SvgjsTspan1718" style="text-decoration:;">Page</tspan></tspan></text></g></g><g id="SvgjsG1719" transform="translate(282,235)"><path id="SvgjsPath1720" d="M0 27C0 -9 60 -9 60 27C60 63 0 63 0 27Z " stroke="rgba(97,97,97,1)" stroke-width="2" fill-opacity="1" fill="#ffffff"></path><g id="SvgjsG1721"><text id="SvgjsText1722" font-family="微软雅黑" text-anchor="middle" font-size="16px" width="40px" fill="#616161" font-weight="400" align="middle" lineHeight="125%" font-style="" opacity="1" y="13" transform="rotate(0)"><tspan id="SvgjsTspan1723" dy="20" x="30"><tspan id="SvgjsTspan1724" style="text-decoration:;">Store</tspan></tspan></text></g></g><g id="SvgjsG1725"><path id="SvgjsPath1726" d="M374 262L358.5 262L358.5 262L345.6 262 " stroke="#616161" stroke-width="2" fill="none" marker-end="url(#SvgjsMarker1727)"></path></g><g id="SvgjsG1729" transform="translate(621,227)"><path id="SvgjsPath1730" d="M0 8.333333333333334Q25 25 50 8.333333333333334Q75 -8.333333333333334 100 8.333333333333334L100 61.666666666666664Q75 45 50 61.666666666666664Q25 78.33333333333333 0 61.666666666666664L0 8.333333333333334Z " stroke="rgba(97,97,97,1)" stroke-width="2" fill-opacity="1" fill="#ffffff"></path><g id="SvgjsG1731"><text id="SvgjsText1732" font-family="微软雅黑" text-anchor="middle" font-size="16px" width="100px" fill="#616161" font-weight="400" align="middle" lineHeight="125%" font-style="" opacity="1" y="21" transform="rotate(0)"><tspan id="SvgjsTspan1733" dy="20" x="50"><tspan id="SvgjsTspan1734" style="text-decoration:;">Page</tspan></tspan></text></g></g><g id="SvgjsG1735" transform="translate(621,293)"><path id="SvgjsPath1736" d="M0 8.333333333333334Q25 25 50 8.333333333333334Q75 -8.333333333333334 100 8.333333333333334L100 61.666666666666664Q75 45 50 61.666666666666664Q25 78.33333333333333 0 61.666666666666664L0 8.333333333333334Z " stroke="rgba(97,97,97,1)" stroke-width="2" fill-opacity="1" fill="#ffffff"></path><g id="SvgjsG1737"><text id="SvgjsText1738" font-family="微软雅黑" text-anchor="middle" font-size="16px" width="100px" fill="#616161" font-weight="400" align="middle" lineHeight="125%" font-style="" opacity="1" y="21" transform="rotate(0)"><tspan id="SvgjsTspan1739" dy="20" x="50"><tspan id="SvgjsTspan1740" style="text-decoration:;">Page</tspan></tspan></text></g></g><g id="SvgjsG1741" transform="translate(611,156)"><path id="SvgjsPath1742" d="M0 59.5L0 0L131.87017001545595 0L131.87017001545595 59.5Q98.90262751159196 42.5 65.93508500772798 59.5Q32.96754250386399 76.5 0 59.5Z " stroke="rgba(97,97,97,1)" stroke-width="2" fill-opacity="1" fill="#e0e0e0"></path><g id="SvgjsG1743"><text id="SvgjsText1744" font-family="微软雅黑" text-anchor="middle" font-size="16px" width="132px" fill="#616161" font-weight="400" align="middle" lineHeight="125%" font-style="" opacity="1" y="16.6" transform="rotate(0)"><tspan id="SvgjsTspan1745" dy="20" x="66"><tspan id="SvgjsTspan1746" style="text-decoration:;">Window</tspan></tspan></text></g></g><g id="SvgjsG1747" transform="translate(621,359)"><path id="SvgjsPath1748" d="M0 8.333333333333334Q25 25 50 8.333333333333334Q75 -8.333333333333334 100 8.333333333333334L100 61.666666666666664Q75 45 50 61.666666666666664Q25 78.33333333333333 0 61.666666666666664L0 8.333333333333334Z " stroke="rgba(97,97,97,1)" stroke-width="2" fill-opacity="1" fill="#ffffff"></path><g id="SvgjsG1749"><text id="SvgjsText1750" font-family="微软雅黑" text-anchor="middle" font-size="16px" width="100px" fill="#616161" font-weight="400" align="middle" lineHeight="125%" font-style="" opacity="1" y="21" transform="rotate(0)"><tspan id="SvgjsTspan1751" dy="20" x="50"><tspan id="SvgjsTspan1752" style="text-decoration:;">Page</tspan></tspan></text></g></g><g id="SvgjsG1753" transform="translate(528,235)"><path id="SvgjsPath1754" d="M0 27C0 -9 60 -9 60 27C60 63 0 63 0 27Z " stroke="rgba(97,97,97,1)" stroke-width="2" fill-opacity="1" fill="#ffffff"></path><g id="SvgjsG1755"><text id="SvgjsText1756" font-family="微软雅黑" text-anchor="middle" font-size="16px" width="40px" fill="#616161" font-weight="400" align="middle" lineHeight="125%" font-style="" opacity="1" y="13" transform="rotate(0)"><tspan id="SvgjsTspan1757" dy="20" x="30"><tspan id="SvgjsTspan1758" style="text-decoration:;">Store</tspan></tspan></text></g></g><g id="SvgjsG1759"><path id="SvgjsPath1760" d="M620 262L604.5 262L604.5 262L591.6 262 " stroke="#616161" stroke-width="2" fill="none" marker-end="url(#SvgjsMarker1761)"></path></g><g id="SvgjsG1763" transform="translate(440,429)"><path id="SvgjsPath1764" d="M0 0L101 0L101 34L0 34Z " stroke="none" fill="none"></path><g id="SvgjsG1765"><text id="SvgjsText1766" font-family="微软雅黑" text-anchor="middle" font-size="16px" width="101px" fill="#616161" font-weight="400" align="middle" lineHeight="125%" font-style="" opacity="1" y="3" transform="rotate(0)"><tspan id="SvgjsTspan1767" dy="20" x="50.5"><tspan id="SvgjsTspan1768" style="text-decoration:;">PageStack</tspan></tspan></text></g></g><g id="SvgjsG1769"><path id="SvgjsPath1770" d="M490.5 429L490.5 328L490.5 328L490.5 227 " stroke-dasharray="8,5" stroke="#616161" stroke-width="2" fill="none" marker-end="url(#SvgjsMarker1771)"></path></g><g id="SvgjsG1773" transform="translate(685.5,429)"><path id="SvgjsPath1774" d="M0 0L101 0L101 34L0 34Z " stroke="none" fill="none"></path><g id="SvgjsG1775"><text id="SvgjsText1776" font-family="微软雅黑" text-anchor="middle" font-size="16px" width="101px" fill="#616161" font-weight="400" align="middle" lineHeight="125%" font-style="" opacity="1" y="3" transform="rotate(0)"><tspan id="SvgjsTspan1777" dy="20" x="50.5"><tspan id="SvgjsTspan1778" style="text-decoration:;">PageStack</tspan></tspan></text></g></g><g id="SvgjsG1779"><path id="SvgjsPath1780" d="M736 429L736 328L736 328L736 227 " stroke-dasharray="8,5" stroke="#616161" stroke-width="2" fill="none" marker-end="url(#SvgjsMarker1781)"></path></g><g id="SvgjsG1783" transform="translate(129.5,227)"><path id="SvgjsPath1784" d="M0 8.333333333333334Q25 25 50 8.333333333333334Q75 -8.333333333333334 100 8.333333333333334L100 61.666666666666664Q75 45 50 61.666666666666664Q25 78.33333333333333 0 61.666666666666664L0 8.333333333333334Z " stroke="rgba(97,97,97,1)" stroke-width="2" fill-opacity="1" fill="#616161"></path><g id="SvgjsG1785"><text id="SvgjsText1786" font-family="微软雅黑" text-anchor="middle" font-size="16px" width="100px" fill="#ffffff" font-weight="400" align="middle" lineHeight="125%" font-style="" opacity="1" y="21" transform="rotate(0)"><tspan id="SvgjsTspan1787" dy="20" x="50"><tspan id="SvgjsTspan1788" style="text-decoration:;">Page</tspan></tspan></text></g></g><g id="SvgjsG1789" transform="translate(129.5,293)"><path id="SvgjsPath1790" d="M0 8.333333333333334Q25 25 50 8.333333333333334Q75 -8.333333333333334 100 8.333333333333334L100 61.666666666666664Q75 45 50 61.666666666666664Q25 78.33333333333333 0 61.666666666666664L0 8.333333333333334Z " stroke="rgba(97,97,97,1)" stroke-width="2" fill-opacity="1" fill="#ffffff"></path><g id="SvgjsG1791"><text id="SvgjsText1792" font-family="微软雅黑" text-anchor="middle" font-size="16px" width="100px" fill="#616161" font-weight="400" align="middle" lineHeight="125%" font-style="" opacity="1" y="21" transform="rotate(0)"><tspan id="SvgjsTspan1793" dy="20" x="50"><tspan id="SvgjsTspan1794" style="text-decoration:;">Page</tspan></tspan></text></g></g><g id="SvgjsG1795" transform="translate(119.5,156)"><path id="SvgjsPath1796" d="M0 59.5L0 0L131.87017001545595 0L131.87017001545595 59.5Q98.90262751159196 42.5 65.93508500772798 59.5Q32.96754250386399 76.5 0 59.5Z " stroke="rgba(97,97,97,1)" stroke-width="2" fill-opacity="1" fill="#e0e0e0"></path><g id="SvgjsG1797"><text id="SvgjsText1798" font-family="微软雅黑" text-anchor="middle" font-size="16px" width="132px" fill="#616161" font-weight="400" align="middle" lineHeight="125%" font-style="" opacity="1" y="16.6" transform="rotate(0)"><tspan id="SvgjsTspan1799" dy="20" x="66"><tspan id="SvgjsTspan1800" style="text-decoration:;">Window</tspan></tspan></text></g></g><g id="SvgjsG1801" transform="translate(129.5,359)"><path id="SvgjsPath1802" d="M0 8.333333333333334Q25 25 50 8.333333333333334Q75 -8.333333333333334 100 8.333333333333334L100 61.666666666666664Q75 45 50 61.666666666666664Q25 78.33333333333333 0 61.666666666666664L0 8.333333333333334Z " stroke="rgba(97,97,97,1)" stroke-width="2" fill-opacity="1" fill="#ffffff"></path><g id="SvgjsG1803"><text id="SvgjsText1804" font-family="微软雅黑" text-anchor="middle" font-size="16px" width="100px" fill="#616161" font-weight="400" align="middle" lineHeight="125%" font-style="" opacity="1" y="21" transform="rotate(0)"><tspan id="SvgjsTspan1805" dy="20" x="50"><tspan id="SvgjsTspan1806" style="text-decoration:;">Page</tspan></tspan></text></g></g><g id="SvgjsG1807" transform="translate(36.5,235)"><path id="SvgjsPath1808" d="M0 27C0 -9 60 -9 60 27C60 63 0 63 0 27Z " stroke="rgba(97,97,97,1)" stroke-width="2" fill-opacity="1" fill="#616161"></path><g id="SvgjsG1809"><text id="SvgjsText1810" font-family="微软雅黑" text-anchor="middle" font-size="16px" width="40px" fill="#ffffff" font-weight="400" align="middle" lineHeight="125%" font-style="" opacity="1" y="13" transform="rotate(0)"><tspan id="SvgjsTspan1811" dy="20" x="30"><tspan id="SvgjsTspan1812" style="text-decoration:;">Store</tspan></tspan></text></g></g><g id="SvgjsG1813"><path id="SvgjsPath1814" d="M128.5 262L113 262L113 262L100.10000000000002 262 " stroke="#616161" stroke-width="2" fill="none" marker-end="url(#SvgjsMarker1815)"></path></g><g id="SvgjsG1817" transform="translate(194.5,429)"><path id="SvgjsPath1818" d="M0 0L101 0L101 34L0 34Z " stroke="none" fill="none"></path><g id="SvgjsG1819"><text id="SvgjsText1820" font-family="微软雅黑" text-anchor="middle" font-size="16px" width="101px" fill="#616161" font-weight="400" align="middle" lineHeight="125%" font-style="" opacity="1" y="3" transform="rotate(0)"><tspan id="SvgjsTspan1821" dy="20" x="50.5"><tspan id="SvgjsTspan1822" style="text-decoration:;">PageStack</tspan></tspan></text></g></g><g id="SvgjsG1823"><path id="SvgjsPath1824" d="M245 429L245 328L245 328L245 227 " stroke-dasharray="8,5" stroke="#616161" stroke-width="2" fill="none" marker-end="url(#SvgjsMarker1825)"></path></g><g id="SvgjsG1827"><path id="SvgjsPath1828" d="M185.435085007728 155L185.435085007728 115.5L430.93508500772805 115.5L430.93508500772805 76 " stroke="#616161" stroke-width="2" fill="none"></path></g><g id="SvgjsG1829"><path id="SvgjsPath1830" d="M430.93508500772793 155L430.93508500772793 115.5L430.93508500772793 115.5L430.93508500772793 76 " stroke="#616161" stroke-width="2" fill="none"></path></g><g id="SvgjsG1831"><path id="SvgjsPath1832" d="M676.9350850077279 155L676.9350850077279 115.5L430.93508500772805 115.5L430.93508500772805 76 " stroke="#616161" stroke-width="2" fill="none"></path></g><g id="SvgjsG1833" transform="translate(65,213)"><path id="SvgjsPath1834" d="M0 0L74.5 0L74.5 28L0 28Z " stroke="none" fill="none"></path><g id="SvgjsG1835"><text id="SvgjsText1836" font-family="微软雅黑" text-anchor="middle" font-size="13px" width="75px" fill="#616161" font-weight="700" align="middle" lineHeight="125%" font-style="" opacity="1" y="3.375" transform="rotate(0)"><tspan id="SvgjsTspan1837" dy="16" x="37.5"><tspan id="SvgjsTspan1838" style="text-decoration:;">Current</tspan></tspan></text></g></g><g id="SvgjsG1839" transform="translate(25,162)"><path id="SvgjsPath1840" d="M0 23.5L41.5 0L83 23.5L41.5 47Z " stroke="rgba(97,97,97,1)" stroke-width="2" fill-opacity="1" fill="#616161"></path><g id="SvgjsG1841"><text id="SvgjsText1842" font-family="微软雅黑" text-anchor="middle" font-size="16px" width="63px" fill="#ffffff" font-weight="400" align="middle" lineHeight="125%" font-style="" opacity="1" y="9.735" transform="rotate(0)"><tspan id="SvgjsTspan1843" dy="20" x="41.5"><tspan id="SvgjsTspan1844" style="text-decoration:;">View</tspan></tspan></text></g></g><g id="SvgjsG1845"><path id="SvgjsPath1846" d="M66.5 234L66.5 222L66.5 222L66.5 212.6 " stroke="#616161" stroke-width="2" fill="none" marker-end="url(#SvgjsMarker1847)"></path></g><g id="SvgjsG1849" transform="translate(270.5,162)"><path id="SvgjsPath1850" d="M0 23.5L41.5 0L83 23.5L41.5 47Z " stroke="rgba(97,97,97,1)" stroke-width="2" fill-opacity="1" fill="#ffffff"></path><g id="SvgjsG1851"><text id="SvgjsText1852" font-family="微软雅黑" text-anchor="middle" font-size="16px" width="63px" fill="#616161" font-weight="400" align="middle" lineHeight="125%" font-style="" opacity="1" y="9.735" transform="rotate(0)"><tspan id="SvgjsTspan1853" dy="20" x="41.5"><tspan id="SvgjsTspan1854" style="text-decoration:;">View</tspan></tspan></text></g></g><g id="SvgjsG1855" transform="translate(516.5,162)"><path id="SvgjsPath1856" d="M0 23.5L41.5 0L83 23.5L41.5 47Z " stroke="rgba(97,97,97,1)" stroke-width="2" fill-opacity="1" fill="#ffffff"></path><g id="SvgjsG1857"><text id="SvgjsText1858" font-family="微软雅黑" text-anchor="middle" font-size="16px" width="63px" fill="#616161" font-weight="400" align="middle" lineHeight="125%" font-style="" opacity="1" y="9.735" transform="rotate(0)"><tspan id="SvgjsTspan1859" dy="20" x="41.5"><tspan id="SvgjsTspan1860" style="text-decoration:;">View</tspan></tspan></text></g></g><g id="SvgjsG1861"><path id="SvgjsPath1862" d="M312 234L312 222L312 222L312 212.6 " stroke="#616161" stroke-width="2" fill="none" marker-end="url(#SvgjsMarker1863)"></path></g><g id="SvgjsG1865"><path id="SvgjsPath1866" d="M558 234L558 222L558 222L558 212.6 " stroke="#616161" stroke-width="2" fill="none" marker-end="url(#SvgjsMarker1867)"></path></g></svg>