<svg id="SvgjsSvg1163" xmlns="http://www.w3.org/2000/svg" version="1.1" xmlns:xlink="http://www.w3.org/1999/xlink" xmlns:svgjs="http://svgjs.com/svgjs" width="532.5" height="586"><defs id="SvgjsDefs1164"><marker id="SvgjsMarker1167" markerWidth="14" markerHeight="10" refX="10" refY="5" viewBox="0 0 14 10" orient="auto" markerUnits="userSpaceOnUse" stroke-dasharray="0,0"><path id="SvgjsPath1168" d="M0 0L14 5L0 10L0 0 " fill="#616161" stroke="#616161" stroke-width="1"></path></marker><marker id="SvgjsMarker1183" markerWidth="14" markerHeight="10" refX="10" refY="5" viewBox="0 0 14 10" orient="auto" markerUnits="userSpaceOnUse" stroke-dasharray="0,0"><path id="SvgjsPath1184" d="M0 0L14 5L0 10L0 0 " fill="#616161" stroke="#616161" stroke-width="1"></path></marker><marker id="SvgjsMarker1187" markerWidth="14" markerHeight="10" refX="10" refY="5" viewBox="0 0 14 10" orient="auto" markerUnits="userSpaceOnUse" stroke-dasharray="0,0"><path id="SvgjsPath1188" d="M0 0L14 5L0 10L0 0 " fill="#616161" stroke="#616161" stroke-width="1"></path></marker><marker id="SvgjsMarker1191" markerWidth="16" markerHeight="16" refX="3" refY="8" viewBox="0 0 16 16" orient="auto" markerUnits="userSpaceOnUse" stroke-dasharray="0,0"><circle id="SvgjsCircle1192" r="4" cx="8" cy="8" fill="#ffffff" stroke="#616161" stroke-width="2"></circle></marker><marker id="SvgjsMarker1193" markerWidth="14" markerHeight="10" refX="10" refY="5" viewBox="0 0 14 10" orient="auto" markerUnits="userSpaceOnUse" stroke-dasharray="0,0"><path id="SvgjsPath1194" d="M0 0L14 5L0 10L0 0 " fill="#616161" stroke="#616161" stroke-width="1"></path></marker><marker id="SvgjsMarker1201" markerWidth="16" markerHeight="16" refX="3" refY="8" viewBox="0 0 16 16" orient="auto" markerUnits="userSpaceOnUse" stroke-dasharray="0,0"><circle id="SvgjsCircle1202" r="4" cx="8" cy="8" fill="#ffffff" stroke="#616161" stroke-width="2"></circle></marker><marker id="SvgjsMarker1203" markerWidth="14" markerHeight="10" refX="10" refY="5" viewBox="0 0 14 10" orient="auto" markerUnits="userSpaceOnUse" stroke-dasharray="0,0"><path id="SvgjsPath1204" d="M0 0L14 5L0 10L0 0 " fill="#616161" stroke="#616161" stroke-width="1"></path></marker><marker id="SvgjsMarker1211" markerWidth="14" markerHeight="10" refX="4" refY="5" viewBox="0 0 14 10" orient="auto" markerUnits="userSpaceOnUse" stroke-dasharray="0,0"><path id="SvgjsPath1212" d="M14 0L0 5L14 10L14 0 " fill="#616161" stroke="#616161" stroke-width="1"></path></marker><marker id="SvgjsMarker1213" markerWidth="16" markerHeight="16" refX="13" refY="8" viewBox="0 0 16 16" orient="auto" markerUnits="userSpaceOnUse" stroke-dasharray="0,0"><circle id="SvgjsCircle1214" r="4" cx="8" cy="8" fill="#ffffff" stroke="#616161" stroke-width="2"></circle></marker><marker id="SvgjsMarker1221" markerWidth="14" markerHeight="10" refX="4" refY="5" viewBox="0 0 14 10" orient="auto" markerUnits="userSpaceOnUse" stroke-dasharray="0,0"><path id="SvgjsPath1222" d="M14 0L0 5L14 10L14 0 " fill="#616161" stroke="#616161" stroke-width="1"></path></marker><marker id="SvgjsMarker1223" markerWidth="16" markerHeight="16" refX="13" refY="8" viewBox="0 0 16 16" orient="auto" markerUnits="userSpaceOnUse" stroke-dasharray="0,0"><circle id="SvgjsCircle1224" r="4" cx="8" cy="8" fill="#ffffff" stroke="#616161" stroke-width="2"></circle></marker><marker id="SvgjsMarker1231" markerWidth="16" markerHeight="16" refX="3" refY="8" viewBox="0 0 16 16" orient="auto" markerUnits="userSpaceOnUse" stroke-dasharray="0,0"><circle id="SvgjsCircle1232" r="4" cx="8" cy="8" fill="#ffffff" stroke="#616161" stroke-width="2"></circle></marker><marker id="SvgjsMarker1233" markerWidth="14" markerHeight="10" refX="10" refY="5" viewBox="0 0 14 10" orient="auto" markerUnits="userSpaceOnUse" stroke-dasharray="0,0"><path id="SvgjsPath1234" d="M0 0L14 5L0 10L0 0 " fill="#616161" stroke="#616161" stroke-width="1"></path></marker><marker id="SvgjsMarker1241" markerWidth="14" markerHeight="10" refX="4" refY="5" viewBox="0 0 14 10" orient="auto" markerUnits="userSpaceOnUse" stroke-dasharray="0,0"><path id="SvgjsPath1242" d="M14 0L0 5L14 10L14 0 " fill="#616161" stroke="#616161" stroke-width="1"></path></marker><marker id="SvgjsMarker1243" markerWidth="16" markerHeight="16" refX="13" refY="8" viewBox="0 0 16 16" orient="auto" markerUnits="userSpaceOnUse" stroke-dasharray="0,0"><circle id="SvgjsCircle1244" r="4" cx="8" cy="8" fill="#ffffff" stroke="#616161" stroke-width="2"></circle></marker><marker id="SvgjsMarker1257" markerWidth="16" markerHeight="16" refX="3" refY="8" viewBox="0 0 16 16" orient="auto" markerUnits="userSpaceOnUse" stroke-dasharray="0,0"><circle id="SvgjsCircle1258" r="4" cx="8" cy="8" fill="#ffffff" stroke="#616161" stroke-width="2"></circle></marker><marker id="SvgjsMarker1259" markerWidth="14" markerHeight="10" refX="10" refY="5" viewBox="0 0 14 10" orient="auto" markerUnits="userSpaceOnUse" stroke-dasharray="0,0"><path id="SvgjsPath1260" d="M0 0L14 5L0 10L0 0 " fill="#616161" stroke="#616161" stroke-width="1"></path></marker><marker id="SvgjsMarker1267" markerWidth="16" markerHeight="16" refX="3" refY="8" viewBox="0 0 16 16" orient="auto" markerUnits="userSpaceOnUse" stroke-dasharray="0,0"><circle id="SvgjsCircle1268" r="4" cx="8" cy="8" fill="#ffffff" stroke="#616161" stroke-width="2"></circle></marker><marker id="SvgjsMarker1269" markerWidth="14" markerHeight="10" refX="10" refY="5" viewBox="0 0 14 10" orient="auto" markerUnits="userSpaceOnUse" stroke-dasharray="0,0"><path id="SvgjsPath1270" d="M0 0L14 5L0 10L0 0 " fill="#616161" stroke="#616161" stroke-width="1"></path></marker><marker id="SvgjsMarker1277" markerWidth="14" markerHeight="10" refX="4" refY="5" viewBox="0 0 14 10" orient="auto" markerUnits="userSpaceOnUse" stroke-dasharray="0,0"><path id="SvgjsPath1278" d="M14 0L0 5L14 10L14 0 " fill="#616161" stroke="#616161" stroke-width="1"></path></marker><marker id="SvgjsMarker1279" markerWidth="16" markerHeight="16" refX="13" refY="8" viewBox="0 0 16 16" orient="auto" markerUnits="userSpaceOnUse" stroke-dasharray="0,0"><circle id="SvgjsCircle1280" r="4" cx="8" cy="8" fill="#ffffff" stroke="#616161" stroke-width="2"></circle></marker><marker id="SvgjsMarker1287" markerWidth="14" markerHeight="10" refX="4" refY="5" viewBox="0 0 14 10" orient="auto" markerUnits="userSpaceOnUse" stroke-dasharray="0,0"><path id="SvgjsPath1288" d="M14 0L0 5L14 10L14 0 " fill="#616161" stroke="#616161" stroke-width="1"></path></marker><marker id="SvgjsMarker1289" markerWidth="16" markerHeight="16" refX="13" refY="8" viewBox="0 0 16 16" orient="auto" markerUnits="userSpaceOnUse" stroke-dasharray="0,0"><circle id="SvgjsCircle1290" r="4" cx="8" cy="8" fill="#ffffff" stroke="#616161" stroke-width="2"></circle></marker><marker id="SvgjsMarker1297" markerWidth="16" markerHeight="16" refX="3" refY="8" viewBox="0 0 16 16" orient="auto" markerUnits="userSpaceOnUse" stroke-dasharray="0,0"><circle id="SvgjsCircle1298" r="4" cx="8" cy="8" fill="#ffffff" stroke="#616161" stroke-width="2"></circle></marker><marker id="SvgjsMarker1299" markerWidth="14" markerHeight="10" refX="10" refY="5" viewBox="0 0 14 10" orient="auto" markerUnits="userSpaceOnUse" stroke-dasharray="0,0"><path id="SvgjsPath1300" d="M0 0L14 5L0 10L0 0 " fill="#616161" stroke="#616161" stroke-width="1"></path></marker><marker id="SvgjsMarker1307" markerWidth="14" markerHeight="10" refX="4" refY="5" viewBox="0 0 14 10" orient="auto" markerUnits="userSpaceOnUse" stroke-dasharray="0,0"><path id="SvgjsPath1308" d="M14 0L0 5L14 10L14 0 " fill="#616161" stroke="#616161" stroke-width="1"></path></marker><marker id="SvgjsMarker1309" markerWidth="16" markerHeight="16" refX="13" refY="8" viewBox="0 0 16 16" orient="auto" markerUnits="userSpaceOnUse" stroke-dasharray="0,0"><circle id="SvgjsCircle1310" r="4" cx="8" cy="8" fill="#ffffff" stroke="#616161" stroke-width="2"></circle></marker></defs><g id="SvgjsG1165"><path id="SvgjsPath1166" d="M277.44000000000005 83L277.44000000000005 322L277.44000000000005 322L277.44000000000005 561 " stroke="#616161" stroke-width="2" fill="none" marker-end="url(#SvgjsMarker1167)"></path></g><g id="SvgjsG1169" transform="translate(425.5,25)"><path id="SvgjsPath1170" d="M9.78 40.599999999999994C-8.15 29 3.2600000000000002 20.299999999999997 7.335 17.4C5.705000000000001 2.9000000000000004 26.080000000000002 0 34.23 5.800000000000001C40.75 -2.9000000000000004 61.125 0 61.125 8.7C77.425 5.800000000000001 83.94500000000001 17.4 77.425 31.900000000000002C83.13 43.5 77.425 58 58.68 52.2C54.605000000000004 59.74 38.305 59.74 34.23 52.2C26.080000000000002 58 9.78 55.099999999999994 9.78 40.599999999999994Z " stroke="rgba(97,97,97,1)" stroke-width="2" fill-opacity="1" fill="#ffffff"></path><g id="SvgjsG1171"><text id="SvgjsText1172" font-family="微软雅黑" text-anchor="middle" font-size="14px" width="62px" fill="#616161" font-weight="400" align="middle" lineHeight="125%" font-style="" opacity="1" y="17.75" transform="rotate(0)"><tspan id="SvgjsTspan1173" dy="17" x="41"><tspan id="SvgjsTspan1174" style="text-decoration:;">API</tspan></tspan></text></g></g><g id="SvgjsG1175" transform="translate(25,25)"><path id="SvgjsPath1176" d="M0 29L59.5 0L119 29L59.5 58Z " stroke="rgba(97,97,97,1)" stroke-width="2" fill-opacity="1" fill="#ffffff"></path><g id="SvgjsG1177"><text id="SvgjsText1178" font-family="微软雅黑" text-anchor="middle" font-size="14px" width="99px" fill="#616161" font-weight="400" align="middle" lineHeight="125%" font-style="" opacity="1" y="18.04" transform="rotate(0)"><tspan id="SvgjsTspan1179" dy="17" x="59.5"><tspan id="SvgjsTspan1180" style="text-decoration:;">Browser</tspan></tspan></text></g></g><g id="SvgjsG1181"><path id="SvgjsPath1182" d="M466.25 84L466.25 321L466.25 321L466.25 559 " stroke="#616161" stroke-width="2" fill="none" marker-end="url(#SvgjsMarker1183)"></path></g><g id="SvgjsG1185"><path id="SvgjsPath1186" d="M84.5 84L84.5 321.5L84.5 321.5L84.5 560 " stroke="#616161" stroke-width="2" fill="none" marker-end="url(#SvgjsMarker1187)"></path></g><g id="SvgjsG1189"><path id="SvgjsPath1190" d="M81 131L177.5 131L177.5 131L274 131 " stroke="#616161" stroke-width="2" fill="none" marker-start="url(#SvgjsMarker1191)" marker-end="url(#SvgjsMarker1193)"></path><rect id="SvgjsRect1195" width="55" height="18" x="150" y="122" fill="#ffffff"></rect><text id="SvgjsText1196" font-family="微软雅黑" text-anchor="middle" font-size="14px" width="55px" fill="#616161" font-weight="400" align="top" lineHeight="18px" font-style="" opacity="1" y="119.25" transform="rotate(0)"><tspan id="SvgjsTspan1197" dy="17" x="177.5"><tspan id="SvgjsTspan1198" style="text-decoration:;">Input Url</tspan></tspan></text></g><g id="SvgjsG1199"><path id="SvgjsPath1200" d="M271 153L367.5 153L367.5 153L464 153 " stroke="#616161" stroke-width="2" fill="none" marker-start="url(#SvgjsMarker1201)" marker-end="url(#SvgjsMarker1203)"></path><rect id="SvgjsRect1205" width="53" height="18" x="341" y="144" fill="#ffffff"></rect><text id="SvgjsText1206" font-family="微软雅黑" text-anchor="middle" font-size="14px" width="53px" fill="#616161" font-weight="400" align="top" lineHeight="18px" font-style="" opacity="1" y="141.25" transform="rotate(0)"><tspan id="SvgjsTspan1207" dy="17" x="367.5"><tspan id="SvgjsTspan1208" style="text-decoration:;">Request</tspan></tspan></text></g><g id="SvgjsG1209"><path id="SvgjsPath1210" d="M277 175L373.5 175L373.5 175L470 175 " stroke="#616161" stroke-width="2" fill="none" marker-start="url(#SvgjsMarker1211)" marker-end="url(#SvgjsMarker1213)"></path><rect id="SvgjsRect1215" width="63" height="18" x="342" y="166" fill="#ffffff"></rect><text id="SvgjsText1216" font-family="微软雅黑" text-anchor="middle" font-size="14px" width="63px" fill="#616161" font-weight="400" align="top" lineHeight="18px" font-style="" opacity="1" y="163.25" transform="rotate(0)"><tspan id="SvgjsTspan1217" dy="17" x="373.5"><tspan id="SvgjsTspan1218" style="text-decoration:;">Response</tspan></tspan></text></g><g id="SvgjsG1219"><path id="SvgjsPath1220" d="M87 197L183.5 197L183.5 197L280 197 " stroke="#616161" stroke-width="2" fill="none" marker-start="url(#SvgjsMarker1221)" marker-end="url(#SvgjsMarker1223)"></path><rect id="SvgjsRect1225" width="63" height="18" x="152" y="188" fill="#ffffff"></rect><text id="SvgjsText1226" font-family="微软雅黑" text-anchor="middle" font-size="14px" width="63px" fill="#616161" font-weight="400" align="top" lineHeight="18px" font-style="" opacity="1" y="185.25" transform="rotate(0)"><tspan id="SvgjsTspan1227" dy="17" x="183.5"><tspan id="SvgjsTspan1228" style="text-decoration:;">Response</tspan></tspan></text></g><g id="SvgjsG1229"><path id="SvgjsPath1230" d="M81 266L273 266L273 266L465 266 " stroke="#616161" stroke-width="2" fill="none" marker-start="url(#SvgjsMarker1231)" marker-end="url(#SvgjsMarker1233)"></path><rect id="SvgjsRect1235" width="68" height="18" x="239" y="257" fill="#ffffff"></rect><text id="SvgjsText1236" font-family="微软雅黑" text-anchor="middle" font-size="14px" width="68px" fill="#616161" font-weight="400" align="top" lineHeight="18px" font-style="" opacity="1" y="254.25" transform="rotate(0)"><tspan id="SvgjsTspan1237" dy="17" x="273"><tspan id="SvgjsTspan1238" style="text-decoration:;">Interactive  </tspan></tspan></text></g><g id="SvgjsG1239"><path id="SvgjsPath1240" d="M88 289.88888888888886L279.5 289.88888888888886L279.5 289.88888888888886L471 289.88888888888886 " stroke="#616161" stroke-width="2" fill="none" marker-start="url(#SvgjsMarker1241)" marker-end="url(#SvgjsMarker1243)"></path><rect id="SvgjsRect1245" width="63" height="18" x="248" y="280.88888888888886" fill="#ffffff"></rect><text id="SvgjsText1246" font-family="微软雅黑" text-anchor="middle" font-size="14px" width="63px" fill="#616161" font-weight="400" align="top" lineHeight="18px" font-style="" opacity="1" y="278.13888888888886" transform="rotate(0)"><tspan id="SvgjsTspan1247" dy="17" x="279.5"><tspan id="SvgjsTspan1248" style="text-decoration:;">Response</tspan></tspan></text></g><g id="SvgjsG1249" transform="translate(231,25)"><path id="SvgjsPath1250" d="M0 4Q0 0 4 0L88 0Q92 0 92 4L92 54Q92 58 88 58L4 58Q0 58 0 54Z " stroke="rgba(97,97,97,1)" stroke-width="2" fill-opacity="1" fill="#ffffff"></path><g id="SvgjsG1251"><text id="SvgjsText1252" font-family="微软雅黑" text-anchor="middle" font-size="14px" width="72px" fill="#616161" font-weight="400" align="middle" lineHeight="125%" font-style="" opacity="1" y="17.75" transform="rotate(0)"><tspan id="SvgjsTspan1253" dy="17" x="46"><tspan id="SvgjsTspan1254" style="text-decoration:;">Server</tspan></tspan></text></g></g><g id="SvgjsG1255"><path id="SvgjsPath1256" d="M82.5 418L179 418L179 418L275.5 418 " stroke="#616161" stroke-width="2" fill="none" marker-start="url(#SvgjsMarker1257)" marker-end="url(#SvgjsMarker1259)"></path><rect id="SvgjsRect1261" width="50" height="18" x="154" y="409" fill="#ffffff"></rect><text id="SvgjsText1262" font-family="微软雅黑" text-anchor="middle" font-size="14px" width="50px" fill="#616161" font-weight="400" align="top" lineHeight="18px" font-style="" opacity="1" y="406.25" transform="rotate(0)"><tspan id="SvgjsTspan1263" dy="17" x="179"><tspan id="SvgjsTspan1264" style="text-decoration:;">Refresh</tspan></tspan></text></g><g id="SvgjsG1265"><path id="SvgjsPath1266" d="M272.5 440L369 440L369 440L465.5 440 " stroke="#616161" stroke-width="2" fill="none" marker-start="url(#SvgjsMarker1267)" marker-end="url(#SvgjsMarker1269)"></path><rect id="SvgjsRect1271" width="53" height="18" x="342.5" y="431" fill="#ffffff"></rect><text id="SvgjsText1272" font-family="微软雅黑" text-anchor="middle" font-size="14px" width="53px" fill="#616161" font-weight="400" align="top" lineHeight="18px" font-style="" opacity="1" y="428.25" transform="rotate(0)"><tspan id="SvgjsTspan1273" dy="17" x="369"><tspan id="SvgjsTspan1274" style="text-decoration:;">Request</tspan></tspan></text></g><g id="SvgjsG1275"><path id="SvgjsPath1276" d="M278.5 462L375 462L375 462L471.5 462 " stroke="#616161" stroke-width="2" fill="none" marker-start="url(#SvgjsMarker1277)" marker-end="url(#SvgjsMarker1279)"></path><rect id="SvgjsRect1281" width="63" height="18" x="343.5" y="453" fill="#ffffff"></rect><text id="SvgjsText1282" font-family="微软雅黑" text-anchor="middle" font-size="14px" width="63px" fill="#616161" font-weight="400" align="top" lineHeight="18px" font-style="" opacity="1" y="450.25" transform="rotate(0)"><tspan id="SvgjsTspan1283" dy="17" x="375"><tspan id="SvgjsTspan1284" style="text-decoration:;">Response</tspan></tspan></text></g><g id="SvgjsG1285"><path id="SvgjsPath1286" d="M88.5 484L185 484L185 484L281.5 484 " stroke="#616161" stroke-width="2" fill="none" marker-start="url(#SvgjsMarker1287)" marker-end="url(#SvgjsMarker1289)"></path><rect id="SvgjsRect1291" width="63" height="18" x="153.5" y="475" fill="#ffffff"></rect><text id="SvgjsText1292" font-family="微软雅黑" text-anchor="middle" font-size="14px" width="63px" fill="#616161" font-weight="400" align="top" lineHeight="18px" font-style="" opacity="1" y="472.25" transform="rotate(0)"><tspan id="SvgjsTspan1293" dy="17" x="185"><tspan id="SvgjsTspan1294" style="text-decoration:;">Response</tspan></tspan></text></g><g id="SvgjsG1295"><path id="SvgjsPath1296" d="M82 313.7777777777777L274 313.7777777777777L274 313.7777777777777L466 313.7777777777777 " stroke="#616161" stroke-width="2" fill="none" marker-start="url(#SvgjsMarker1297)" marker-end="url(#SvgjsMarker1299)"></path><rect id="SvgjsRect1301" width="68" height="18" x="240" y="304.7777777777777" fill="#ffffff"></rect><text id="SvgjsText1302" font-family="微软雅黑" text-anchor="middle" font-size="14px" width="68px" fill="#616161" font-weight="400" align="top" lineHeight="18px" font-style="" opacity="1" y="302.0277777777777" transform="rotate(0)"><tspan id="SvgjsTspan1303" dy="17" x="274"><tspan id="SvgjsTspan1304" style="text-decoration:;">Interactive  </tspan></tspan></text></g><g id="SvgjsG1305"><path id="SvgjsPath1306" d="M89 337.6666666666666L280.5 337.6666666666666L280.5 337.6666666666666L472 337.6666666666666 " stroke="#616161" stroke-width="2" fill="none" marker-start="url(#SvgjsMarker1307)" marker-end="url(#SvgjsMarker1309)"></path><rect id="SvgjsRect1311" width="63" height="18" x="249" y="328.6666666666666" fill="#ffffff"></rect><text id="SvgjsText1312" font-family="微软雅黑" text-anchor="middle" font-size="14px" width="63px" fill="#616161" font-weight="400" align="top" lineHeight="18px" font-style="" opacity="1" y="325.9166666666666" transform="rotate(0)"><tspan id="SvgjsTspan1313" dy="17" x="280.5"><tspan id="SvgjsTspan1314" style="text-decoration:;">Response</tspan></tspan></text></g><g id="SvgjsG1315" transform="translate(25,526)"><path id="SvgjsPath1316" d="M0 0L75 0L75 24L0 24Z " stroke="none" fill="none"></path><g id="SvgjsG1317"><text id="SvgjsText1318" font-family="微软雅黑" text-anchor="middle" font-size="13px" width="75px" fill="#616161" font-weight="400" align="middle" lineHeight="125%" font-style="" opacity="1" y="1.375" transform="rotate(0)"><tspan id="SvgjsTspan1319" dy="16" x="37.5"><tspan id="SvgjsTspan1320" style="text-decoration:;">time</tspan></tspan></text></g></g></svg>