<svg id="SvgjsSvg1000" xmlns="http://www.w3.org/2000/svg" version="1.1" xmlns:xlink="http://www.w3.org/1999/xlink" xmlns:svgjs="http://svgjs.com/svgjs" width="673.75" height="441.5"><defs id="SvgjsDefs1001"><marker id="SvgjsMarker1075" markerWidth="14" markerHeight="10" refX="10" refY="5" viewBox="0 0 14 10" orient="auto" markerUnits="userSpaceOnUse" stroke-dasharray="0,0"><path id="SvgjsPath1076" d="M0 0L14 5L0 10L0 0 " fill="#616161" stroke="#616161" stroke-width="1"></path></marker><marker id="SvgjsMarker1079" markerWidth="14" markerHeight="10" refX="10" refY="5" viewBox="0 0 14 10" orient="auto" markerUnits="userSpaceOnUse" stroke-dasharray="0,0"><path id="SvgjsPath1080" d="M0 0L14 5L0 10L0 0 " fill="#616161" stroke="#616161" stroke-width="1"></path></marker><marker id="SvgjsMarker1083" markerWidth="14" markerHeight="10" refX="10" refY="5" viewBox="0 0 14 10" orient="auto" markerUnits="userSpaceOnUse" stroke-dasharray="0,0"><path id="SvgjsPath1084" d="M0 0L14 5L0 10L0 0 " fill="#616161" stroke="#616161" stroke-width="1"></path></marker><marker id="SvgjsMarker1087" markerWidth="14" markerHeight="10" refX="10" refY="5" viewBox="0 0 14 10" orient="auto" markerUnits="userSpaceOnUse" stroke-dasharray="0,0"><path id="SvgjsPath1088" d="M0 0L14 5L0 10L0 0 " fill="#616161" stroke="#616161" stroke-width="1"></path></marker><marker id="SvgjsMarker1091" markerWidth="14" markerHeight="10" refX="10" refY="5" viewBox="0 0 14 10" orient="auto" markerUnits="userSpaceOnUse" stroke-dasharray="0,0"><path id="SvgjsPath1092" d="M0 0L14 5L0 10L0 0 " fill="#616161" stroke="#616161" stroke-width="1"></path></marker><marker id="SvgjsMarker1095" markerWidth="14" markerHeight="10" refX="10" refY="5" viewBox="0 0 14 10" orient="auto" markerUnits="userSpaceOnUse" stroke-dasharray="0,0"><path id="SvgjsPath1096" d="M0 0L14 5L0 10L0 0 " fill="#616161" stroke="#616161" stroke-width="1"></path></marker><marker id="SvgjsMarker1099" markerWidth="14" markerHeight="10" refX="10" refY="5" viewBox="0 0 14 10" orient="auto" markerUnits="userSpaceOnUse" stroke-dasharray="0,0"><path id="SvgjsPath1100" d="M0 0L14 5L0 10L0 0 " fill="#616161" stroke="#616161" stroke-width="1"></path></marker><marker id="SvgjsMarker1103" markerWidth="14" markerHeight="10" refX="10" refY="5" viewBox="0 0 14 10" orient="auto" markerUnits="userSpaceOnUse" stroke-dasharray="0,0"><path id="SvgjsPath1104" d="M0 0L14 5L0 10L0 0 " fill="#616161" stroke="#616161" stroke-width="1"></path></marker><marker id="SvgjsMarker1131" markerWidth="14" markerHeight="10" refX="10" refY="5" viewBox="0 0 14 10" orient="auto" markerUnits="userSpaceOnUse" stroke-dasharray="0,0"><path id="SvgjsPath1132" d="M0 0L14 5L0 10L0 0 " fill="#616161" stroke="#616161" stroke-width="1"></path></marker><marker id="SvgjsMarker1135" markerWidth="14" markerHeight="10" refX="10" refY="5" viewBox="0 0 14 10" orient="auto" markerUnits="userSpaceOnUse" stroke-dasharray="0,0"><path id="SvgjsPath1136" d="M0 0L14 5L0 10L0 0 " fill="#616161" stroke="#616161" stroke-width="1"></path></marker><marker id="SvgjsMarker1139" markerWidth="14" markerHeight="10" refX="10" refY="5" viewBox="0 0 14 10" orient="auto" markerUnits="userSpaceOnUse" stroke-dasharray="0,0"><path id="SvgjsPath1140" d="M0 0L14 5L0 10L0 0 " fill="#616161" stroke="#616161" stroke-width="1"></path></marker><marker id="SvgjsMarker1143" markerWidth="14" markerHeight="10" refX="10" refY="5" viewBox="0 0 14 10" orient="auto" markerUnits="userSpaceOnUse" stroke-dasharray="0,0"><path id="SvgjsPath1144" d="M0 0L14 5L0 10L0 0 " fill="#616161" stroke="#616161" stroke-width="1"></path></marker><marker id="SvgjsMarker1153" markerWidth="14" markerHeight="10" refX="10" refY="5" viewBox="0 0 14 10" orient="auto" markerUnits="userSpaceOnUse" stroke-dasharray="0,0"><path id="SvgjsPath1154" d="M0 0L14 5L0 10L0 0 " fill="#616161" stroke="#616161" stroke-width="1"></path></marker><marker id="SvgjsMarker1157" markerWidth="14" markerHeight="10" refX="10" refY="5" viewBox="0 0 14 10" orient="auto" markerUnits="userSpaceOnUse" stroke-dasharray="0,0"><path id="SvgjsPath1158" d="M0 0L14 5L0 10L0 0 " fill="#616161" stroke="#616161" stroke-width="1"></path></marker></defs><g id="SvgjsG1007" transform="matrix(6.123233995736766e-17,1,-1,6.123233995736766e-17,648.75,379.5)"><path id="SvgjsPath1008" d="M0 76.91666666666666L0 0L37.00000000000003 0L37.00000000000003 76.91666666666666Q27.75000000000002 70.75 18.500000000000014 76.91666666666666Q9.250000000000007 83.08333333333334 0 76.91666666666666Z " stroke="rgba(97,97,97,1)" stroke-width="2" fill-opacity="1" fill="#e0e0e0"></path><g id="SvgjsG1009"><text id="SvgjsText1010" font-family="微软雅黑" text-anchor="middle" font-size="16px" width="38px" fill="#616161" font-weight="400" align="middle" lineHeight="125%" font-style="" opacity="1" y="22" transform="rotate(0)"><tspan id="SvgjsTspan1011" dy="20" x="19"><tspan id="SvgjsTspan1012" style="text-decoration:;"> </tspan></tspan></text></g></g><g id="SvgjsG1013" transform="translate(568.75,379)"><path id="SvgjsPath1014" d="M0 0L80 0L80 37L0 37Z " stroke="none" fill="none"></path><g id="SvgjsG1015"><text id="SvgjsText1016" font-family="微软雅黑" text-anchor="middle" font-size="16px" width="80px" fill="#616161" font-weight="400" align="middle" lineHeight="125%" font-style="" opacity="1" y="4.5" transform="rotate(0)"><tspan id="SvgjsTspan1017" dy="20" x="40"><tspan id="SvgjsTspan1018" style="text-decoration:;">State</tspan></tspan></text></g></g><g id="SvgjsG1019" transform="translate(382.75,25)"><path id="SvgjsPath1020" d="M16.666666666666668 0L83.33333333333333 0C105.55555555555556 0 105.55555555555556 50 83.33333333333333 50L16.666666666666668 50C-5.555555555555556 50 -5.555555555555556 0 16.666666666666668 0Z " stroke="rgba(97,97,97,1)" stroke-width="2" fill-opacity="1" fill="#ffffff"></path><g id="SvgjsG1021"><text id="SvgjsText1022" font-family="微软雅黑" text-anchor="middle" font-size="16px" width="80px" fill="#616161" font-weight="400" align="middle" lineHeight="125%" font-style="" opacity="1" y="11" transform="rotate(0)"><tspan id="SvgjsTspan1023" dy="20" x="50"><tspan id="SvgjsTspan1024" style="text-decoration:;">APP</tspan></tspan></text></g></g><g id="SvgjsG1025" transform="translate(276.75,131)"><path id="SvgjsPath1026" d="M0 0L80 0L80 80L0 80Z " stroke="rgba(97,97,97,1)" stroke-width="2" fill-opacity="1" fill="#ffffff"></path><g id="SvgjsG1027"><text id="SvgjsText1028" font-family="微软雅黑" text-anchor="middle" font-size="16px" width="60px" fill="#616161" font-weight="400" align="middle" lineHeight="125%" font-style="" opacity="1" y="26" transform="rotate(0)"><tspan id="SvgjsTspan1029" dy="20" x="40"><tspan id="SvgjsTspan1030" style="text-decoration:;">Module</tspan></tspan></text></g></g><g id="SvgjsG1031" transform="translate(392.75,131)"><path id="SvgjsPath1032" d="M0 0L80 0L80 80L0 80Z " stroke="rgba(97,97,97,1)" stroke-width="2" fill-opacity="1" fill="#ffffff"></path><g id="SvgjsG1033"><text id="SvgjsText1034" font-family="微软雅黑" text-anchor="middle" font-size="16px" width="60px" fill="#616161" font-weight="400" align="middle" lineHeight="125%" font-style="" opacity="1" y="26" transform="rotate(0)"><tspan id="SvgjsTspan1035" dy="20" x="40"><tspan id="SvgjsTspan1036" style="text-decoration:;">Module</tspan></tspan></text></g></g><g id="SvgjsG1037" transform="translate(508.75,131)"><path id="SvgjsPath1038" d="M0 0L80 0L80 80L0 80Z " stroke="rgba(97,97,97,1)" stroke-width="2" fill-opacity="1" fill="#ffffff"></path><g id="SvgjsG1039"><text id="SvgjsText1040" font-family="微软雅黑" text-anchor="middle" font-size="16px" width="60px" fill="#616161" font-weight="400" align="middle" lineHeight="125%" font-style="" opacity="1" y="26" transform="rotate(0)"><tspan id="SvgjsTspan1041" dy="20" x="40"><tspan id="SvgjsTspan1042" style="text-decoration:;">Module</tspan></tspan></text></g></g><g id="SvgjsG1043" transform="translate(486.25,267)"><path id="SvgjsPath1044" d="M0 35C0 -11.666666666666666 70 -11.666666666666666 70 35C70 81.66666666666667 0 81.66666666666667 0 35Z " stroke="rgba(97,97,97,1)" stroke-width="2" fill-opacity="1" fill="#e0e0e0"></path><g id="SvgjsG1045"><text id="SvgjsText1046" font-family="微软雅黑" text-anchor="middle" font-size="16px" width="50px" fill="#616161" font-weight="400" align="middle" lineHeight="125%" font-style="" opacity="1" y="21" transform="rotate(0)"><tspan id="SvgjsTspan1047" dy="20" x="35"><tspan id="SvgjsTspan1048" style="text-decoration:;">Model</tspan></tspan></text></g></g><g id="SvgjsG1049" transform="translate(213.75,267)"><path id="SvgjsPath1050" d="M0 35L45 0L90 35L45 70L0 35Z " stroke="rgba(97,97,97,1)" stroke-width="2" fill-opacity="1" fill="#f5f5f5"></path><g id="SvgjsG1051"><text id="SvgjsText1052" font-family="微软雅黑" text-anchor="middle" font-size="16px" width="70px" fill="#616161" font-weight="400" align="middle" lineHeight="125%" font-style="" opacity="1" y="21" transform="rotate(0)"><tspan id="SvgjsTspan1053" dy="20" x="45"><tspan id="SvgjsTspan1054" style="text-decoration:;">View</tspan></tspan></text></g></g><g id="SvgjsG1055" transform="translate(25,379)"><path id="SvgjsPath1056" d="M0 18.5L18.5 0L97.11297071129708 0L115.61297071129708 18.5L97.11297071129708 37L18.5 37L0 18.5Z " stroke="rgba(97,97,97,1)" stroke-width="2" fill-opacity="1" fill="#f5f5f5"></path><g id="SvgjsG1057"><text id="SvgjsText1058" font-family="微软雅黑" text-anchor="middle" font-size="16px" width="96px" fill="#616161" font-weight="400" align="middle" lineHeight="125%" font-style="" opacity="1" y="4.5" transform="rotate(0)"><tspan id="SvgjsTspan1059" dy="20" x="58"><tspan id="SvgjsTspan1060" style="text-decoration:;">Component</tspan></tspan></text></g></g><g id="SvgjsG1061" transform="translate(107.75,267)"><path id="SvgjsPath1062" d="M0 35L45 0L90 35L45 70L0 35Z " stroke="rgba(97,97,97,1)" stroke-width="2" fill-opacity="1" fill="#f5f5f5"></path><g id="SvgjsG1063"><text id="SvgjsText1064" font-family="微软雅黑" text-anchor="middle" font-size="16px" width="70px" fill="#616161" font-weight="400" align="middle" lineHeight="125%" font-style="" opacity="1" y="21" transform="rotate(0)"><tspan id="SvgjsTspan1065" dy="20" x="45"><tspan id="SvgjsTspan1066" style="text-decoration:;">View</tspan></tspan></text></g></g><g id="SvgjsG1067" transform="translate(139.88702928870293,379)"><path id="SvgjsPath1068" d="M0 18.5L18.5 0L97.11297071129708 0L115.61297071129708 18.5L97.11297071129708 37L18.5 37L0 18.5Z " stroke="rgba(97,97,97,1)" stroke-width="2" fill-opacity="1" fill="#f5f5f5"></path><g id="SvgjsG1069"><text id="SvgjsText1070" font-family="微软雅黑" text-anchor="middle" font-size="16px" width="96px" fill="#616161" font-weight="400" align="middle" lineHeight="125%" font-style="" opacity="1" y="4.5" transform="rotate(0)"><tspan id="SvgjsTspan1071" dy="20" x="58"><tspan id="SvgjsTspan1072" style="text-decoration:;">Component</tspan></tspan></text></g></g><g id="SvgjsG1073"><path id="SvgjsPath1074" d="M431.8494483636355 75.43474906583117L319.9919858909125 129.43490336300778 " stroke="#616161" stroke-width="2" fill="none" marker-end="url(#SvgjsMarker1075)"></path></g><g id="SvgjsG1077"><path id="SvgjsPath1078" d="M432.75 76L432.75 127.4 " stroke="#616161" stroke-width="2" fill="none" marker-end="url(#SvgjsMarker1079)"></path></g><g id="SvgjsG1081"><path id="SvgjsPath1082" d="M433.6505516363645 75.43474906583117L545.5080141090875 129.43490336300778 " stroke="#616161" stroke-width="2" fill="none" marker-end="url(#SvgjsMarker1083)"></path></g><g id="SvgjsG1085"><path id="SvgjsPath1086" d="M315.80365014393203 211.3231438532915L156.15685948184478 265.8366821281506 " stroke="#616161" stroke-width="2" fill="none" marker-end="url(#SvgjsMarker1087)"></path></g><g id="SvgjsG1089"><path id="SvgjsPath1090" d="M316.0305985393826 211.69459451369957L261.3398452582227 264.4994597506816 " stroke="#616161" stroke-width="2" fill="none" marker-end="url(#SvgjsMarker1091)"></path></g><g id="SvgjsG1093"><path id="SvgjsPath1094" d="M317.7144912089229 211.26411495207668L517.7778316478776 266.04918617252395 " stroke="#616161" stroke-width="2" fill="none" marker-end="url(#SvgjsMarker1095)"></path></g><g id="SvgjsG1097"><path id="SvgjsPath1098" d="M151.89269039797915 337.514801171602L85.89279992292364 377.14671578223266 " stroke="#616161" stroke-width="2" fill="none" marker-end="url(#SvgjsMarker1099)"></path></g><g id="SvgjsG1101"><path id="SvgjsPath1102" d="M153.4806276220163 337.6827761550807L195.0632552050928 376.5420058417094 " stroke="#616161" stroke-width="2" fill="none" marker-end="url(#SvgjsMarker1103)"></path></g><g id="SvgjsG1105" transform="matrix(-1.8369701987210297e-16,-1,1,-1.8369701987210297e-16,384.75,416)"><path id="SvgjsPath1106" d="M0 3.0833333333333335Q9.25 9.25 18.5 3.0833333333333335Q27.75 -3.0833333333333335 37 3.0833333333333335L37 85.91666666666667Q27.75 79.75 18.5 85.91666666666667Q9.25 92.08333333333333 0 85.91666666666667L0 3.0833333333333335Z " stroke="rgba(97,97,97,1)" stroke-width="2" fill-opacity="1" fill="#e0e0e0"></path><g id="SvgjsG1107"><text id="SvgjsText1108" font-family="微软雅黑" text-anchor="middle" font-size="16px" width="37px" fill="#616161" font-weight="400" align="middle" lineHeight="125%" font-style="" opacity="1" y="30.5" transform="rotate(0)"><tspan id="SvgjsTspan1109" dy="20" x="18.5"><tspan id="SvgjsTspan1110" style="text-decoration:;"> </tspan></tspan></text></g></g><g id="SvgjsG1111" transform="translate(391.75,379)"><path id="SvgjsPath1112" d="M0 0L80 0L80 37L0 37Z " stroke="none" fill="none"></path><g id="SvgjsG1113"><text id="SvgjsText1114" font-family="微软雅黑" text-anchor="middle" font-size="16px" width="80px" fill="#616161" font-weight="400" align="middle" lineHeight="125%" font-style="" opacity="1" y="4.5" transform="rotate(0)"><tspan id="SvgjsTspan1115" dy="20" x="40"><tspan id="SvgjsTspan1116" style="text-decoration:;">Effect</tspan></tspan></text></g></g><g id="SvgjsG1117" transform="matrix(-1.8369701987210297e-16,-1,1,-1.8369701987210297e-16,476.75,416)"><path id="SvgjsPath1118" d="M0 3.0833333333333335Q9.25 9.25 18.5 3.0833333333333335Q27.75 -3.0833333333333335 37 3.0833333333333335L37 85.91666666666667Q27.75 79.75 18.5 85.91666666666667Q9.25 92.08333333333333 0 85.91666666666667L0 3.0833333333333335Z " stroke="rgba(97,97,97,1)" stroke-width="2" fill-opacity="1" fill="#e0e0e0"></path><g id="SvgjsG1119"><text id="SvgjsText1120" font-family="微软雅黑" text-anchor="middle" font-size="16px" width="37px" fill="#616161" font-weight="400" align="middle" lineHeight="125%" font-style="" opacity="1" y="30.5" transform="rotate(0)"><tspan id="SvgjsTspan1121" dy="20" x="18.5"><tspan id="SvgjsTspan1122" style="text-decoration:;"> </tspan></tspan></text></g></g><g id="SvgjsG1123" transform="translate(482.75,379)"><path id="SvgjsPath1124" d="M0 0L80 0L80 37L0 37Z " stroke="none" fill="none"></path><g id="SvgjsG1125"><text id="SvgjsText1126" font-family="微软雅黑" text-anchor="middle" font-size="16px" width="80px" fill="#616161" font-weight="400" align="middle" lineHeight="125%" font-style="" opacity="1" y="4.5" transform="rotate(0)"><tspan id="SvgjsTspan1127" dy="20" x="40"><tspan id="SvgjsTspan1128" style="text-decoration:;">Reducer</tspan></tspan></text></g></g><g id="SvgjsG1129"><path id="SvgjsPath1130" d="M520.3287135768335 337.38888472133664L425.0666311233995 377.60001500318816 " stroke="#616161" stroke-width="2" fill="none" marker-end="url(#SvgjsMarker1131)"></path></g><g id="SvgjsG1133"><path id="SvgjsPath1134" d="M521.25 338L521.25 375.4 " stroke="#616161" stroke-width="2" fill="none" marker-end="url(#SvgjsMarker1135)"></path></g><g id="SvgjsG1137"><path id="SvgjsPath1138" d="M522.1515230574682 337.43273106758477L605.5045169931142 377.44216815669483 " stroke="#616161" stroke-width="2" fill="none" marker-end="url(#SvgjsMarker1139)"></path></g><g id="SvgjsG1141"><path id="SvgjsPath1142" d="M257.9261071917285 337.5667456576618L200.65952875412893 376.9597156324176 " stroke="#616161" stroke-width="2" fill="none" marker-end="url(#SvgjsMarker1143)"></path></g><g id="SvgjsG1145" transform="translate(257.13702928870293,379)"><path id="SvgjsPath1146" d="M0 18.5L18.5 0L97.11297071129708 0L115.61297071129708 18.5L97.11297071129708 37L18.5 37L0 18.5Z " stroke="rgba(97,97,97,1)" stroke-width="2" fill-opacity="1" fill="#f5f5f5"></path><g id="SvgjsG1147"><text id="SvgjsText1148" font-family="微软雅黑" text-anchor="middle" font-size="16px" width="96px" fill="#616161" font-weight="400" align="middle" lineHeight="125%" font-style="" opacity="1" y="4.5" transform="rotate(0)"><tspan id="SvgjsTspan1149" dy="20" x="58"><tspan id="SvgjsTspan1150" style="text-decoration:;">Component</tspan></tspan></text></g></g><g id="SvgjsG1151"><path id="SvgjsPath1152" d="M259.5509919249912 337.5986751507278L312.05994371438317 376.84476945738004 " stroke="#616161" stroke-width="2" fill="none" marker-end="url(#SvgjsMarker1153)"></path></g><g id="SvgjsG1155"><path id="SvgjsPath1156" d="M316.73924773257374 211.99994219270175L314.982222807086 375.4002081062737 " stroke="#616161" stroke-width="2" fill="none" marker-end="url(#SvgjsMarker1157)"></path></g></svg>