<svg id="SvgjsSvg1000" xmlns="http://www.w3.org/2000/svg" version="1.1" xmlns:xlink="http://www.w3.org/1999/xlink" xmlns:svgjs="http://svgjs.com/svgjs" width="703.75" height="456"><defs id="SvgjsDefs1001"><marker id="SvgjsMarker1081" markerWidth="14" markerHeight="10" refX="10" refY="5" viewBox="0 0 14 10" orient="auto" markerUnits="userSpaceOnUse" stroke-dasharray="0,0"><path id="SvgjsPath1082" d="M0 0L14 5L0 10L0 0 " fill="#616161" stroke="#616161" stroke-width="1"></path></marker><marker id="SvgjsMarker1085" markerWidth="14" markerHeight="10" refX="10" refY="5" viewBox="0 0 14 10" orient="auto" markerUnits="userSpaceOnUse" stroke-dasharray="0,0"><path id="SvgjsPath1086" d="M0 0L14 5L0 10L0 0 " fill="#616161" stroke="#616161" stroke-width="1"></path></marker><marker id="SvgjsMarker1089" markerWidth="14" markerHeight="10" refX="10" refY="5" viewBox="0 0 14 10" orient="auto" markerUnits="userSpaceOnUse" stroke-dasharray="0,0"><path id="SvgjsPath1090" d="M0 0L14 5L0 10L0 0 " fill="#616161" stroke="#616161" stroke-width="1"></path></marker><marker id="SvgjsMarker1093" markerWidth="14" markerHeight="10" refX="10" refY="5" viewBox="0 0 14 10" orient="auto" markerUnits="userSpaceOnUse" stroke-dasharray="0,0"><path id="SvgjsPath1094" d="M0 0L14 5L0 10L0 0 " fill="#616161" stroke="#616161" stroke-width="1"></path></marker><marker id="SvgjsMarker1097" markerWidth="14" markerHeight="10" refX="10" refY="5" viewBox="0 0 14 10" orient="auto" markerUnits="userSpaceOnUse" stroke-dasharray="0,0"><path id="SvgjsPath1098" d="M0 0L14 5L0 10L0 0 " fill="#616161" stroke="#616161" stroke-width="1"></path></marker><marker id="SvgjsMarker1101" markerWidth="14" markerHeight="10" refX="10" refY="5" viewBox="0 0 14 10" orient="auto" markerUnits="userSpaceOnUse" stroke-dasharray="0,0"><path id="SvgjsPath1102" d="M0 0L14 5L0 10L0 0 " fill="#616161" stroke="#616161" stroke-width="1"></path></marker><marker id="SvgjsMarker1105" markerWidth="14" markerHeight="10" refX="10" refY="5" viewBox="0 0 14 10" orient="auto" markerUnits="userSpaceOnUse" stroke-dasharray="0,0"><path id="SvgjsPath1106" d="M0 0L14 5L0 10L0 0 " fill="#616161" stroke="#616161" stroke-width="1"></path></marker><marker id="SvgjsMarker1109" markerWidth="14" markerHeight="10" refX="10" refY="5" viewBox="0 0 14 10" orient="auto" markerUnits="userSpaceOnUse" stroke-dasharray="0,0"><path id="SvgjsPath1110" d="M0 0L14 5L0 10L0 0 " fill="#616161" stroke="#616161" stroke-width="1"></path></marker><marker id="SvgjsMarker1137" markerWidth="14" markerHeight="10" refX="10" refY="5" viewBox="0 0 14 10" orient="auto" markerUnits="userSpaceOnUse" stroke-dasharray="0,0"><path id="SvgjsPath1138" d="M0 0L14 5L0 10L0 0 " fill="#616161" stroke="#616161" stroke-width="1"></path></marker><marker id="SvgjsMarker1141" markerWidth="14" markerHeight="10" refX="10" refY="5" viewBox="0 0 14 10" orient="auto" markerUnits="userSpaceOnUse" stroke-dasharray="0,0"><path id="SvgjsPath1142" d="M0 0L14 5L0 10L0 0 " fill="#616161" stroke="#616161" stroke-width="1"></path></marker><marker id="SvgjsMarker1145" markerWidth="14" markerHeight="10" refX="10" refY="5" viewBox="0 0 14 10" orient="auto" markerUnits="userSpaceOnUse" stroke-dasharray="0,0"><path id="SvgjsPath1146" d="M0 0L14 5L0 10L0 0 " fill="#616161" stroke="#616161" stroke-width="1"></path></marker><marker id="SvgjsMarker1149" markerWidth="14" markerHeight="10" refX="10" refY="5" viewBox="0 0 14 10" orient="auto" markerUnits="userSpaceOnUse" stroke-dasharray="0,0"><path id="SvgjsPath1150" d="M0 0L14 5L0 10L0 0 " fill="#616161" stroke="#616161" stroke-width="1"></path></marker><marker id="SvgjsMarker1159" markerWidth="14" markerHeight="10" refX="10" refY="5" viewBox="0 0 14 10" orient="auto" markerUnits="userSpaceOnUse" stroke-dasharray="0,0"><path id="SvgjsPath1160" d="M0 0L14 5L0 10L0 0 " fill="#616161" stroke="#616161" stroke-width="1"></path></marker><marker id="SvgjsMarker1163" markerWidth="14" markerHeight="10" refX="10" refY="5" viewBox="0 0 14 10" orient="auto" markerUnits="userSpaceOnUse" stroke-dasharray="0,0"><path id="SvgjsPath1164" d="M0 0L14 5L0 10L0 0 " fill="#616161" stroke="#616161" stroke-width="1"></path></marker></defs><g id="SvgjsG1007" transform="translate(382.75,337)"><path id="SvgjsPath1008" d="M0 0L207 0L207 94L0 94Z " stroke-dasharray="10,6" stroke="rgba(158,158,158,1)" stroke-width="2" fill-opacity="1" fill="#ffffff"></path><g id="SvgjsG1009"><text id="SvgjsText1010" font-family="微软雅黑" text-anchor="start" font-size="13px" width="187px" fill="#9e9e9e" font-weight="400" align="top" lineHeight="200%" font-style="" opacity="1" y="-7.5" transform="rotate(0)"><tspan id="SvgjsTspan1011" dy="26" x="10"><tspan id="SvgjsTspan1012" style="text-decoration:;">ActionHandelr</tspan></tspan></text></g></g><g id="SvgjsG1013" transform="matrix(6.123233995736766e-17,1,-1,6.123233995736766e-17,678.75,379.5)"><path id="SvgjsPath1014" d="M0 76.91666666666666L0 0L37.00000000000003 0L37.00000000000003 76.91666666666666Q27.75000000000002 70.75 18.500000000000014 76.91666666666666Q9.250000000000007 83.08333333333334 0 76.91666666666666Z " stroke="rgba(97,97,97,1)" stroke-width="2" fill-opacity="1" fill="#e0e0e0"></path><g id="SvgjsG1015"><text id="SvgjsText1016" font-family="微软雅黑" text-anchor="middle" font-size="16px" width="38px" fill="#616161" font-weight="400" align="middle" lineHeight="125%" font-style="" opacity="1" y="22" transform="rotate(0)"><tspan id="SvgjsTspan1017" dy="20" x="19"><tspan id="SvgjsTspan1018" style="text-decoration:;"> </tspan></tspan></text></g></g><g id="SvgjsG1019" transform="translate(598.75,379)"><path id="SvgjsPath1020" d="M0 0L80 0L80 37L0 37Z " stroke="none" fill="none"></path><g id="SvgjsG1021"><text id="SvgjsText1022" font-family="微软雅黑" text-anchor="middle" font-size="16px" width="80px" fill="#616161" font-weight="400" align="middle" lineHeight="125%" font-style="" opacity="1" y="4.5" transform="rotate(0)"><tspan id="SvgjsTspan1023" dy="20" x="40"><tspan id="SvgjsTspan1024" style="text-decoration:;">State</tspan></tspan></text></g></g><g id="SvgjsG1025" transform="translate(382.75,25)"><path id="SvgjsPath1026" d="M16.666666666666668 0L83.33333333333333 0C105.55555555555556 0 105.55555555555556 50 83.33333333333333 50L16.666666666666668 50C-5.555555555555556 50 -5.555555555555556 0 16.666666666666668 0Z " stroke="rgba(97,97,97,1)" stroke-width="2" fill-opacity="1" fill="#ffffff"></path><g id="SvgjsG1027"><text id="SvgjsText1028" font-family="微软雅黑" text-anchor="middle" font-size="16px" width="80px" fill="#616161" font-weight="400" align="middle" lineHeight="125%" font-style="" opacity="1" y="11" transform="rotate(0)"><tspan id="SvgjsTspan1029" dy="20" x="50"><tspan id="SvgjsTspan1030" style="text-decoration:;">APP</tspan></tspan></text></g></g><g id="SvgjsG1031" transform="translate(276.75,131)"><path id="SvgjsPath1032" d="M0 0L80 0L80 80L0 80Z " stroke="rgba(97,97,97,1)" stroke-width="2" fill-opacity="1" fill="#ffffff"></path><g id="SvgjsG1033"><text id="SvgjsText1034" font-family="微软雅黑" text-anchor="middle" font-size="16px" width="60px" fill="#616161" font-weight="400" align="middle" lineHeight="125%" font-style="" opacity="1" y="26" transform="rotate(0)"><tspan id="SvgjsTspan1035" dy="20" x="40"><tspan id="SvgjsTspan1036" style="text-decoration:;">Module</tspan></tspan></text></g></g><g id="SvgjsG1037" transform="translate(392.75,131)"><path id="SvgjsPath1038" d="M0 0L80 0L80 80L0 80Z " stroke="rgba(97,97,97,1)" stroke-width="2" fill-opacity="1" fill="#ffffff"></path><g id="SvgjsG1039"><text id="SvgjsText1040" font-family="微软雅黑" text-anchor="middle" font-size="16px" width="60px" fill="#616161" font-weight="400" align="middle" lineHeight="125%" font-style="" opacity="1" y="26" transform="rotate(0)"><tspan id="SvgjsTspan1041" dy="20" x="40"><tspan id="SvgjsTspan1042" style="text-decoration:;">Module</tspan></tspan></text></g></g><g id="SvgjsG1043" transform="translate(508.75,131)"><path id="SvgjsPath1044" d="M0 0L80 0L80 80L0 80Z " stroke="rgba(97,97,97,1)" stroke-width="2" fill-opacity="1" fill="#ffffff"></path><g id="SvgjsG1045"><text id="SvgjsText1046" font-family="微软雅黑" text-anchor="middle" font-size="16px" width="60px" fill="#616161" font-weight="400" align="middle" lineHeight="125%" font-style="" opacity="1" y="26" transform="rotate(0)"><tspan id="SvgjsTspan1047" dy="20" x="40"><tspan id="SvgjsTspan1048" style="text-decoration:;">Module</tspan></tspan></text></g></g><g id="SvgjsG1049" transform="translate(496.25,267)"><path id="SvgjsPath1050" d="M0 35C0 -11.666666666666666 70 -11.666666666666666 70 35C70 81.66666666666667 0 81.66666666666667 0 35Z " stroke="rgba(97,97,97,1)" stroke-width="2" fill-opacity="1" fill="#e0e0e0"></path><g id="SvgjsG1051"><text id="SvgjsText1052" font-family="微软雅黑" text-anchor="middle" font-size="16px" width="50px" fill="#616161" font-weight="400" align="middle" lineHeight="125%" font-style="" opacity="1" y="21" transform="rotate(0)"><tspan id="SvgjsTspan1053" dy="20" x="35"><tspan id="SvgjsTspan1054" style="text-decoration:;">Model</tspan></tspan></text></g></g><g id="SvgjsG1055" transform="translate(213.75,267)"><path id="SvgjsPath1056" d="M0 35L45 0L90 35L45 70L0 35Z " stroke="rgba(97,97,97,1)" stroke-width="2" fill-opacity="1" fill="#f5f5f5"></path><g id="SvgjsG1057"><text id="SvgjsText1058" font-family="微软雅黑" text-anchor="middle" font-size="16px" width="70px" fill="#616161" font-weight="400" align="middle" lineHeight="125%" font-style="" opacity="1" y="21" transform="rotate(0)"><tspan id="SvgjsTspan1059" dy="20" x="45"><tspan id="SvgjsTspan1060" style="text-decoration:;">View</tspan></tspan></text></g></g><g id="SvgjsG1061" transform="translate(25,379)"><path id="SvgjsPath1062" d="M0 18.5L18.5 0L97.11297071129708 0L115.61297071129708 18.5L97.11297071129708 37L18.5 37L0 18.5Z " stroke="rgba(97,97,97,1)" stroke-width="2" fill-opacity="1" fill="#f5f5f5"></path><g id="SvgjsG1063"><text id="SvgjsText1064" font-family="微软雅黑" text-anchor="middle" font-size="16px" width="96px" fill="#616161" font-weight="400" align="middle" lineHeight="125%" font-style="" opacity="1" y="4.5" transform="rotate(0)"><tspan id="SvgjsTspan1065" dy="20" x="58"><tspan id="SvgjsTspan1066" style="text-decoration:;">Component</tspan></tspan></text></g></g><g id="SvgjsG1067" transform="translate(107.75,267)"><path id="SvgjsPath1068" d="M0 35L45 0L90 35L45 70L0 35Z " stroke="rgba(97,97,97,1)" stroke-width="2" fill-opacity="1" fill="#f5f5f5"></path><g id="SvgjsG1069"><text id="SvgjsText1070" font-family="微软雅黑" text-anchor="middle" font-size="16px" width="70px" fill="#616161" font-weight="400" align="middle" lineHeight="125%" font-style="" opacity="1" y="21" transform="rotate(0)"><tspan id="SvgjsTspan1071" dy="20" x="45"><tspan id="SvgjsTspan1072" style="text-decoration:;">View</tspan></tspan></text></g></g><g id="SvgjsG1073" transform="translate(141.97175732217573,379)"><path id="SvgjsPath1074" d="M0 18.5L18.5 0L97.11297071129708 0L115.61297071129708 18.5L97.11297071129708 37L18.5 37L0 18.5Z " stroke="rgba(97,97,97,1)" stroke-width="2" fill-opacity="1" fill="#f5f5f5"></path><g id="SvgjsG1075"><text id="SvgjsText1076" font-family="微软雅黑" text-anchor="middle" font-size="16px" width="96px" fill="#616161" font-weight="400" align="middle" lineHeight="125%" font-style="" opacity="1" y="4.5" transform="rotate(0)"><tspan id="SvgjsTspan1077" dy="20" x="58"><tspan id="SvgjsTspan1078" style="text-decoration:;">Component</tspan></tspan></text></g></g><g id="SvgjsG1079"><path id="SvgjsPath1080" d="M431.8494483636355 75.43474906583117L319.9919858909125 129.43490336300778 " stroke="#616161" stroke-width="2" fill="none" marker-end="url(#SvgjsMarker1081)"></path></g><g id="SvgjsG1083"><path id="SvgjsPath1084" d="M432.75 76L432.75 127.4 " stroke="#616161" stroke-width="2" fill="none" marker-end="url(#SvgjsMarker1085)"></path></g><g id="SvgjsG1087"><path id="SvgjsPath1088" d="M433.6505516363645 75.43474906583117L545.5080141090875 129.43490336300778 " stroke="#616161" stroke-width="2" fill="none" marker-end="url(#SvgjsMarker1089)"></path></g><g id="SvgjsG1091"><path id="SvgjsPath1092" d="M315.80365014393203 211.3231438532915L156.15685948184478 265.8366821281506 " stroke="#616161" stroke-width="2" fill="none" marker-end="url(#SvgjsMarker1093)"></path></g><g id="SvgjsG1095"><path id="SvgjsPath1096" d="M316.0305985393826 211.69459451369957L261.3398452582227 264.4994597506816 " stroke="#616161" stroke-width="2" fill="none" marker-end="url(#SvgjsMarker1097)"></path></g><g id="SvgjsG1099"><path id="SvgjsPath1100" d="M317.7175693525362 211.25260551861086L527.7667503308696 266.0906201330009 " stroke="#616161" stroke-width="2" fill="none" marker-end="url(#SvgjsMarker1101)"></path></g><g id="SvgjsG1103"><path id="SvgjsPath1104" d="M151.89269039797915 337.514801171602L85.89279992292364 377.14671578223266 " stroke="#616161" stroke-width="2" fill="none" marker-end="url(#SvgjsMarker1105)"></path></g><g id="SvgjsG1107"><path id="SvgjsPath1108" d="M153.4958549430084 337.66610840258176L197.09316488299413 376.60200975070575 " stroke="#616161" stroke-width="2" fill="none" marker-end="url(#SvgjsMarker1109)"></path></g><g id="SvgjsG1111" transform="matrix(-1.8369701987210297e-16,-1,1,-1.8369701987210297e-16,394.75,416)"><path id="SvgjsPath1112" d="M0 3.0833333333333335Q9.25 9.25 18.5 3.0833333333333335Q27.75 -3.0833333333333335 37 3.0833333333333335L37 85.91666666666667Q27.75 79.75 18.5 85.91666666666667Q9.25 92.08333333333333 0 85.91666666666667L0 3.0833333333333335Z " stroke="rgba(97,97,97,1)" stroke-width="2" fill-opacity="1" fill="#e0e0e0"></path><g id="SvgjsG1113"><text id="SvgjsText1114" font-family="微软雅黑" text-anchor="middle" font-size="16px" width="37px" fill="#616161" font-weight="400" align="middle" lineHeight="125%" font-style="" opacity="1" y="30.5" transform="rotate(0)"><tspan id="SvgjsTspan1115" dy="20" x="18.5"><tspan id="SvgjsTspan1116" style="text-decoration:;"> </tspan></tspan></text></g></g><g id="SvgjsG1117" transform="translate(401.75,379)"><path id="SvgjsPath1118" d="M0 0L80 0L80 37L0 37Z " stroke="none" fill="none"></path><g id="SvgjsG1119"><text id="SvgjsText1120" font-family="微软雅黑" text-anchor="middle" font-size="16px" width="80px" fill="#616161" font-weight="400" align="middle" lineHeight="125%" font-style="" opacity="1" y="4.5" transform="rotate(0)"><tspan id="SvgjsTspan1121" dy="20" x="40"><tspan id="SvgjsTspan1122" style="text-decoration:;">Effect</tspan></tspan></text></g></g><g id="SvgjsG1123" transform="matrix(-1.8369701987210297e-16,-1,1,-1.8369701987210297e-16,486.75,416)"><path id="SvgjsPath1124" d="M0 3.0833333333333335Q9.25 9.25 18.5 3.0833333333333335Q27.75 -3.0833333333333335 37 3.0833333333333335L37 85.91666666666667Q27.75 79.75 18.5 85.91666666666667Q9.25 92.08333333333333 0 85.91666666666667L0 3.0833333333333335Z " stroke="rgba(97,97,97,1)" stroke-width="2" fill-opacity="1" fill="#e0e0e0"></path><g id="SvgjsG1125"><text id="SvgjsText1126" font-family="微软雅黑" text-anchor="middle" font-size="16px" width="37px" fill="#616161" font-weight="400" align="middle" lineHeight="125%" font-style="" opacity="1" y="30.5" transform="rotate(0)"><tspan id="SvgjsTspan1127" dy="20" x="18.5"><tspan id="SvgjsTspan1128" style="text-decoration:;"> </tspan></tspan></text></g></g><g id="SvgjsG1129" transform="translate(492.75,379)"><path id="SvgjsPath1130" d="M0 0L80 0L80 37L0 37Z " stroke="none" fill="none"></path><g id="SvgjsG1131"><text id="SvgjsText1132" font-family="微软雅黑" text-anchor="middle" font-size="16px" width="80px" fill="#616161" font-weight="400" align="middle" lineHeight="125%" font-style="" opacity="1" y="4.5" transform="rotate(0)"><tspan id="SvgjsTspan1133" dy="20" x="40"><tspan id="SvgjsTspan1134" style="text-decoration:;">Reducer</tspan></tspan></text></g></g><g id="SvgjsG1135"><path id="SvgjsPath1136" d="M530.3287135768335 337.38888472133664L435.0666311233995 377.60001500318816 " stroke="#616161" stroke-width="2" fill="none" marker-end="url(#SvgjsMarker1137)"></path></g><g id="SvgjsG1139"><path id="SvgjsPath1140" d="M531.25 338L531.25 375.4 " stroke="#616161" stroke-width="2" fill="none" marker-end="url(#SvgjsMarker1141)"></path></g><g id="SvgjsG1143"><path id="SvgjsPath1144" d="M532.181434406233 337.3639092563887L635.3968361375612 377.68992667700064 " stroke="#616161" stroke-width="2" fill="none" marker-end="url(#SvgjsMarker1145)"></path></g><g id="SvgjsG1147"><path id="SvgjsPath1148" d="M257.935465829603 337.5801155792217L202.7105656912534 376.911583914802 " stroke="#616161" stroke-width="2" fill="none" marker-end="url(#SvgjsMarker1149)"></path></g><g id="SvgjsG1151" transform="translate(258.94351464435147,379)"><path id="SvgjsPath1152" d="M0 18.5L18.5 0L97.11297071129708 0L115.61297071129708 18.5L97.11297071129708 37L18.5 37L0 18.5Z " stroke="rgba(97,97,97,1)" stroke-width="2" fill-opacity="1" fill="#f5f5f5"></path><g id="SvgjsG1153"><text id="SvgjsText1154" font-family="微软雅黑" text-anchor="middle" font-size="16px" width="96px" fill="#616161" font-weight="400" align="middle" lineHeight="125%" font-style="" opacity="1" y="4.5" transform="rotate(0)"><tspan id="SvgjsTspan1155" dy="20" x="58"><tspan id="SvgjsTspan1156" style="text-decoration:;">Component</tspan></tspan></text></g></g><g id="SvgjsG1157"><path id="SvgjsPath1158" d="M259.55994212154303 337.58650981215186L313.8342083624451 376.88856467625334 " stroke="#616161" stroke-width="2" fill="none" marker-end="url(#SvgjsMarker1159)"></path></g><g id="SvgjsG1161"><path id="SvgjsPath1162" d="M316.75 212L316.75 295L316.75 295L316.75 375.4 " stroke="#616161" stroke-width="2" fill="none" marker-end="url(#SvgjsMarker1163)"></path></g></svg>