<svg id="SvgjsSvg1000" xmlns="http://www.w3.org/2000/svg" version="1.1" xmlns:xlink="http://www.w3.org/1999/xlink" xmlns:svgjs="http://svgjs.com/svgjs" width="420" height="499.71875"><defs id="SvgjsDefs1001"></defs><g id="SvgjsG1007" transform="translate(25,25)"><path id="SvgjsPath1008" d="M0 0L370 0L370 350L0 350Z " stroke-dasharray="10,6" stroke="rgba(33,33,33,1)" stroke-width="2" fill-opacity="1" fill="#f5f5f5"></path><g id="SvgjsG1009"><text id="SvgjsText1010" font-family="微软雅黑" text-anchor="start" font-size="13px" width="350px" fill="#212121" font-weight="400" align="top" lineHeight="300%" font-style="" opacity="1" y="-14" transform="rotate(0)"><tspan id="SvgjsTspan1011" dy="39" x="10"><tspan id="SvgjsTspan1012" style="text-decoration:;">Elux Project Three Layered</tspan></tspan></text></g></g><g id="SvgjsG1013" transform="translate(65,72)"><path id="SvgjsPath1014" d="M0 0L290 0L290 57.55555555555555L0 57.55555555555555Z " stroke="rgba(33,33,33,1)" stroke-width="2" fill-opacity="1" fill="#ffffff"></path><g id="SvgjsG1015"><text id="SvgjsText1016" font-family="微软雅黑" text-anchor="middle" font-size="13px" width="270px" fill="#212121" font-weight="400" align="middle" lineHeight="125%" font-style="" opacity="1" y="18.152777777777775" transform="rotate(0)"><tspan id="SvgjsTspan1017" dy="16" x="145"><tspan id="SvgjsTspan1018" style="text-decoration:;">UI Layer</tspan></tspan></text></g></g><g id="SvgjsG1019" transform="translate(65,171.22222222222223)"><path id="SvgjsPath1020" d="M0 0L290 0L290 57.55555555555555L0 57.55555555555555Z " stroke="rgba(33,33,33,1)" stroke-width="2" fill-opacity="1" fill="#ffffff"></path><g id="SvgjsG1021"><text id="SvgjsText1022" font-family="微软雅黑" text-anchor="middle" font-size="13px" width="270px" fill="#212121" font-weight="400" align="middle" lineHeight="125%" font-style="" opacity="1" y="18.152777777777775" transform="rotate(0)"><tspan id="SvgjsTspan1023" dy="16" x="145"><tspan id="SvgjsTspan1024" style="text-decoration:;">Business Layer</tspan></tspan></text></g></g><g id="SvgjsG1025" transform="translate(65,270.44444444444446)"><path id="SvgjsPath1026" d="M0 0L290 0L290 57.55555555555555L0 57.55555555555555Z " stroke="rgba(33,33,33,1)" stroke-width="2" fill-opacity="1" fill="#ffffff"></path><g id="SvgjsG1027"><text id="SvgjsText1028" font-family="微软雅黑" text-anchor="middle" font-size="13px" width="270px" fill="#212121" font-weight="400" align="middle" lineHeight="125%" font-style="" opacity="1" y="18.152777777777775" transform="rotate(0)"><tspan id="SvgjsTspan1029" dy="16" x="145"><tspan id="SvgjsTspan1030" style="text-decoration:;">Service Layer</tspan></tspan></text></g></g><g id="SvgjsG1031" transform="translate(198,130.38888888888889)"><path id="SvgjsPath1032" d="M12 0L24 12L16.080000000000002 12L16.080000000000002 28L24 28L12 40L0 28L7.92 28L7.92 12L0 12L12 0Z " stroke="rgba(33,33,33,1)" stroke-width="2" fill-opacity="1" fill="#ffffff"></path><g id="SvgjsG1033"><text id="SvgjsText1034" font-family="微软雅黑" text-anchor="middle" font-size="13px" width="34px" fill="#212121" font-weight="400" align="middle" lineHeight="125%" font-style="" opacity="1" y="9.375" transform="rotate(0)"></text></g></g><g id="SvgjsG1035" transform="translate(198,229.61111111111114)"><path id="SvgjsPath1036" d="M12 0L24 12L16.080000000000002 12L16.080000000000002 28L24 28L12 40L0 28L7.92 28L7.92 12L0 12L12 0Z " stroke="rgba(33,33,33,1)" stroke-width="2" fill-opacity="1" fill="#ffffff"></path><g id="SvgjsG1037"><text id="SvgjsText1038" font-family="微软雅黑" text-anchor="middle" font-size="13px" width="34px" fill="#212121" font-weight="400" align="middle" lineHeight="125%" font-style="" opacity="1" y="9.375" transform="rotate(0)"></text></g></g><g id="SvgjsG1039" transform="translate(143.5,407.7222222222222)"><path id="SvgjsPath1040" d="M15.959999999999999 46.9C-13.3 33.5 5.32 23.45 11.969999999999999 20.099999999999998C9.31 3.35 42.56 0 55.86 6.7C66.5 -3.35 99.75 0 99.75 10.049999999999999C126.35 6.7 136.99 20.099999999999998 126.35 36.85C135.66 50.25 126.35 67 95.75999999999999 60.300000000000004C89.11 69.01 62.51 69.01 55.86 60.300000000000004C42.56 67 15.959999999999999 63.65 15.959999999999999 46.9Z " stroke="rgba(33,33,33,1)" stroke-width="2" fill-opacity="1" fill="#f5f5f5"></path><g id="SvgjsG1041"><text id="SvgjsText1042" font-family="微软雅黑" text-anchor="middle" font-size="13px" width="113px" fill="#212121" font-weight="400" align="middle" lineHeight="125%" font-style="" opacity="1" y="22.875" transform="rotate(0)"><tspan id="SvgjsTspan1043" dy="16" x="66.5"><tspan id="SvgjsTspan1044" style="text-decoration:;">API</tspan></tspan></text></g></g><g id="SvgjsG1045" transform="translate(198,328.83333333333337)"><path id="SvgjsPath1046" d="M12 0L24 12L16.080000000000002 12L16.080000000000002 68L24 68L12 80L0 68L7.92 68L7.92 12L0 12L12 0Z " stroke="rgba(33,33,33,1)" stroke-width="2" fill-opacity="1" fill="#ffffff"></path><g id="SvgjsG1047"><text id="SvgjsText1048" font-family="微软雅黑" text-anchor="middle" font-size="13px" width="34px" fill="#212121" font-weight="400" align="middle" lineHeight="125%" font-style="" opacity="1" y="29.375" transform="rotate(0)"></text></g></g></svg>